<mxfile host="app.diagrams.net" modified="2023-06-05T01:03:10.373Z" agent="Mozilla/5.0 (Windows NT 10.0; Win64; x64) AppleWebKit/537.36 (KHTML, like Gecko) Chrome/114.0.0.0 Safari/537.36" etag="h-63IeS5Ual6SSkYYf1U" version="21.3.7" type="device">
  <diagram name="Страница 1" id="PXF8gYfuSEdTyaRWxLsL">
    <mxGraphModel dx="13560" dy="4573" grid="0" gridSize="10" guides="1" tooltips="1" connect="1" arrows="1" fold="1" page="0" pageScale="1" pageWidth="827" pageHeight="1169" math="0" shadow="0">
      <root>
        <mxCell id="0" />
        <mxCell id="1" parent="0" />
        <mxCell id="HRkGqnotARpjoitVVcCS-3" style="edgeStyle=orthogonalEdgeStyle;rounded=0;orthogonalLoop=1;jettySize=auto;html=1;entryX=0.5;entryY=0;entryDx=0;entryDy=0;" parent="1" source="HRkGqnotARpjoitVVcCS-24" target="NZz8lFGvhAFFfCNbKwrk-48" edge="1">
          <mxGeometry relative="1" as="geometry">
            <mxPoint x="-506" y="1556" as="targetPoint" />
          </mxGeometry>
        </mxCell>
        <mxCell id="HRkGqnotARpjoitVVcCS-116" style="edgeStyle=orthogonalEdgeStyle;rounded=0;orthogonalLoop=1;jettySize=auto;html=1;exitX=0.5;exitY=1;exitDx=0;exitDy=0;" parent="1" source="HRkGqnotARpjoitVVcCS-1" target="HRkGqnotARpjoitVVcCS-24" edge="1">
          <mxGeometry relative="1" as="geometry" />
        </mxCell>
        <mxCell id="HRkGqnotARpjoitVVcCS-1" value="&lt;font style=&quot;font-size: 14px;&quot;&gt;Загрузка каталога&lt;/font&gt;" style="rounded=1;whiteSpace=wrap;html=1;" parent="1" vertex="1">
          <mxGeometry x="-374" y="1355" width="120" height="60" as="geometry" />
        </mxCell>
        <mxCell id="HRkGqnotARpjoitVVcCS-5" value="&lt;font style=&quot;font-size: 14px;&quot;&gt;Товары из БД&lt;/font&gt;" style="rounded=1;whiteSpace=wrap;html=1;" parent="1" vertex="1">
          <mxGeometry x="-566" y="1689" width="120" height="60" as="geometry" />
        </mxCell>
        <mxCell id="HRkGqnotARpjoitVVcCS-7" style="edgeStyle=orthogonalEdgeStyle;rounded=0;orthogonalLoop=1;jettySize=auto;html=1;entryX=0.5;entryY=0;entryDx=0;entryDy=0;" parent="1" source="HRkGqnotARpjoitVVcCS-6" target="HRkGqnotARpjoitVVcCS-1" edge="1">
          <mxGeometry relative="1" as="geometry" />
        </mxCell>
        <mxCell id="HRkGqnotARpjoitVVcCS-6" value="&lt;font style=&quot;font-size: 14px;&quot;&gt;Переход на сайт&lt;/font&gt;" style="rounded=1;whiteSpace=wrap;html=1;" parent="1" vertex="1">
          <mxGeometry x="-375" y="1230" width="120" height="60" as="geometry" />
        </mxCell>
        <mxCell id="HRkGqnotARpjoitVVcCS-111" style="edgeStyle=orthogonalEdgeStyle;rounded=0;orthogonalLoop=1;jettySize=auto;html=1;exitX=0;exitY=0.5;exitDx=0;exitDy=0;entryX=0.583;entryY=0.992;entryDx=0;entryDy=0;entryPerimeter=0;" parent="1" source="HRkGqnotARpjoitVVcCS-11" target="HRkGqnotARpjoitVVcCS-24" edge="1">
          <mxGeometry relative="1" as="geometry">
            <Array as="points">
              <mxPoint x="-69" y="1671" />
              <mxPoint x="-169" y="1671" />
              <mxPoint x="-169" y="1627" />
              <mxPoint x="-304" y="1627" />
            </Array>
          </mxGeometry>
        </mxCell>
        <mxCell id="HRkGqnotARpjoitVVcCS-119" style="edgeStyle=orthogonalEdgeStyle;rounded=0;orthogonalLoop=1;jettySize=auto;html=1;" parent="1" source="HRkGqnotARpjoitVVcCS-11" target="HRkGqnotARpjoitVVcCS-28" edge="1">
          <mxGeometry relative="1" as="geometry" />
        </mxCell>
        <mxCell id="HRkGqnotARpjoitVVcCS-11" value="&lt;font style=&quot;font-size: 14px;&quot;&gt;Получение данных из БД&lt;/font&gt;" style="rounded=1;whiteSpace=wrap;html=1;" parent="1" vertex="1">
          <mxGeometry x="-69" y="1655" width="120" height="60" as="geometry" />
        </mxCell>
        <mxCell id="HRkGqnotARpjoitVVcCS-22" value="&lt;font style=&quot;font-size: 14px;&quot;&gt;Запрос на выборку данных&lt;/font&gt;" style="text;html=1;strokeColor=none;fillColor=none;align=center;verticalAlign=middle;whiteSpace=wrap;rounded=0;" parent="1" vertex="1">
          <mxGeometry x="-206" y="1556" width="115" height="30" as="geometry" />
        </mxCell>
        <mxCell id="HRkGqnotARpjoitVVcCS-114" style="edgeStyle=orthogonalEdgeStyle;rounded=0;orthogonalLoop=1;jettySize=auto;html=1;exitX=1;exitY=0.75;exitDx=0;exitDy=0;" parent="1" source="HRkGqnotARpjoitVVcCS-24" target="HRkGqnotARpjoitVVcCS-11" edge="1">
          <mxGeometry relative="1" as="geometry">
            <Array as="points">
              <mxPoint x="-226" y="1551" />
              <mxPoint x="-226" y="1592" />
              <mxPoint x="-9" y="1592" />
            </Array>
          </mxGeometry>
        </mxCell>
        <mxCell id="HRkGqnotARpjoitVVcCS-24" value="&lt;font style=&quot;font-size: 14px;&quot;&gt;Поиск товаров&lt;/font&gt;" style="rounded=1;whiteSpace=wrap;html=1;" parent="1" vertex="1">
          <mxGeometry x="-374" y="1506" width="120" height="60" as="geometry" />
        </mxCell>
        <mxCell id="HRkGqnotARpjoitVVcCS-25" value="&lt;font style=&quot;font-size: 14px;&quot;&gt;Данные из БД&lt;/font&gt;" style="text;html=1;strokeColor=none;fillColor=none;align=center;verticalAlign=middle;whiteSpace=wrap;rounded=0;" parent="1" vertex="1">
          <mxGeometry x="-284" y="1597" width="97" height="30" as="geometry" />
        </mxCell>
        <mxCell id="HRkGqnotARpjoitVVcCS-45" style="edgeStyle=orthogonalEdgeStyle;rounded=0;orthogonalLoop=1;jettySize=auto;html=1;exitX=0.5;exitY=1;exitDx=0;exitDy=0;entryX=1;entryY=0.5;entryDx=0;entryDy=0;" parent="1" source="HRkGqnotARpjoitVVcCS-28" target="HRkGqnotARpjoitVVcCS-44" edge="1">
          <mxGeometry relative="1" as="geometry" />
        </mxCell>
        <mxCell id="HRkGqnotARpjoitVVcCS-122" style="edgeStyle=orthogonalEdgeStyle;rounded=0;orthogonalLoop=1;jettySize=auto;html=1;entryX=1;entryY=0.5;entryDx=0;entryDy=0;exitX=1;exitY=0.5;exitDx=0;exitDy=0;" parent="1" source="HRkGqnotARpjoitVVcCS-28" target="HRkGqnotARpjoitVVcCS-11" edge="1">
          <mxGeometry relative="1" as="geometry">
            <mxPoint x="55" y="1808" as="sourcePoint" />
            <Array as="points">
              <mxPoint x="-12" y="1791" />
              <mxPoint x="99" y="1791" />
              <mxPoint x="99" y="1685" />
            </Array>
          </mxGeometry>
        </mxCell>
        <mxCell id="HRkGqnotARpjoitVVcCS-28" value="&lt;font style=&quot;font-size: 14px;&quot;&gt;Редактирование БД&lt;/font&gt;" style="rounded=1;whiteSpace=wrap;html=1;" parent="1" vertex="1">
          <mxGeometry x="-132" y="1764" width="120" height="60" as="geometry" />
        </mxCell>
        <mxCell id="HRkGqnotARpjoitVVcCS-31" value="&lt;font style=&quot;font-size: 14px;&quot;&gt;Сообщение об успехе&lt;/font&gt;" style="text;html=1;strokeColor=none;fillColor=none;align=center;verticalAlign=middle;whiteSpace=wrap;rounded=0;" parent="1" vertex="1">
          <mxGeometry x="-569" y="1946" width="97" height="30" as="geometry" />
        </mxCell>
        <mxCell id="HRkGqnotARpjoitVVcCS-50" style="edgeStyle=orthogonalEdgeStyle;rounded=0;orthogonalLoop=1;jettySize=auto;html=1;entryX=0.5;entryY=0;entryDx=0;entryDy=0;" parent="1" source="HRkGqnotARpjoitVVcCS-44" target="HRkGqnotARpjoitVVcCS-51" edge="1">
          <mxGeometry relative="1" as="geometry">
            <mxPoint x="-367" y="1929" as="targetPoint" />
          </mxGeometry>
        </mxCell>
        <mxCell id="HRkGqnotARpjoitVVcCS-44" value="&lt;font style=&quot;font-size: 14px;&quot;&gt;Подключение к серверу&lt;/font&gt;" style="rounded=1;whiteSpace=wrap;html=1;" parent="1" vertex="1">
          <mxGeometry x="-427" y="1818" width="120" height="60" as="geometry" />
        </mxCell>
        <mxCell id="HRkGqnotARpjoitVVcCS-46" value="&lt;font style=&quot;font-size: 14px;&quot;&gt;Запрос на подключение к серверу&lt;/font&gt;" style="text;html=1;strokeColor=none;fillColor=none;align=center;verticalAlign=middle;whiteSpace=wrap;rounded=0;" parent="1" vertex="1">
          <mxGeometry x="-280" y="1809" width="113" height="30" as="geometry" />
        </mxCell>
        <mxCell id="HRkGqnotARpjoitVVcCS-51" value="&lt;font style=&quot;font-size: 14px;&quot;&gt;Обновление данных на сайте&lt;br&gt;&lt;/font&gt;" style="rounded=1;whiteSpace=wrap;html=1;" parent="1" vertex="1">
          <mxGeometry x="-427" y="1955" width="120" height="60" as="geometry" />
        </mxCell>
        <mxCell id="HRkGqnotARpjoitVVcCS-53" value="&lt;font style=&quot;font-size: 14px;&quot;&gt;Измененные данные&lt;/font&gt;" style="text;html=1;strokeColor=none;fillColor=none;align=center;verticalAlign=middle;whiteSpace=wrap;rounded=0;" parent="1" vertex="1">
          <mxGeometry x="-375" y="1904" width="113" height="30" as="geometry" />
        </mxCell>
        <mxCell id="HRkGqnotARpjoitVVcCS-55" value="&lt;font style=&quot;font-size: 30px;&quot;&gt;STD&lt;/font&gt;" style="text;html=1;strokeColor=none;fillColor=none;align=center;verticalAlign=middle;whiteSpace=wrap;rounded=0;" parent="1" vertex="1">
          <mxGeometry x="-374" y="1143" width="128" height="78" as="geometry" />
        </mxCell>
        <mxCell id="HRkGqnotARpjoitVVcCS-56" value="SADT" style="text;html=1;strokeColor=none;fillColor=none;align=center;verticalAlign=middle;whiteSpace=wrap;rounded=0;" parent="1" vertex="1">
          <mxGeometry x="785" y="1028" width="60" height="30" as="geometry" />
        </mxCell>
        <mxCell id="HRkGqnotARpjoitVVcCS-60" style="edgeStyle=orthogonalEdgeStyle;rounded=0;orthogonalLoop=1;jettySize=auto;html=1;entryX=0;entryY=0.5;entryDx=0;entryDy=0;" parent="1" source="HRkGqnotARpjoitVVcCS-57" target="HRkGqnotARpjoitVVcCS-61" edge="1">
          <mxGeometry relative="1" as="geometry">
            <mxPoint x="666.25" y="1324" as="targetPoint" />
          </mxGeometry>
        </mxCell>
        <mxCell id="HRkGqnotARpjoitVVcCS-57" value="&lt;font style=&quot;font-size: 14px;&quot;&gt;Переход на сайт&lt;/font&gt;" style="rounded=1;whiteSpace=wrap;html=1;" parent="1" vertex="1">
          <mxGeometry x="485" y="1294" width="120" height="60" as="geometry" />
        </mxCell>
        <mxCell id="HRkGqnotARpjoitVVcCS-58" value="&lt;font style=&quot;font-size: 14px;&quot;&gt;Пользователь&lt;/font&gt;" style="text;html=1;strokeColor=none;fillColor=none;align=center;verticalAlign=middle;whiteSpace=wrap;rounded=0;" parent="1" vertex="1">
          <mxGeometry x="484" y="1227" width="60" height="30" as="geometry" />
        </mxCell>
        <mxCell id="HRkGqnotARpjoitVVcCS-68" style="edgeStyle=orthogonalEdgeStyle;rounded=0;orthogonalLoop=1;jettySize=auto;html=1;entryX=0;entryY=0.5;entryDx=0;entryDy=0;" parent="1" source="HRkGqnotARpjoitVVcCS-61" target="HRkGqnotARpjoitVVcCS-67" edge="1">
          <mxGeometry relative="1" as="geometry" />
        </mxCell>
        <mxCell id="HRkGqnotARpjoitVVcCS-61" value="&lt;font style=&quot;font-size: 14px;&quot;&gt;Поиск товара&lt;/font&gt;" style="rounded=1;whiteSpace=wrap;html=1;" parent="1" vertex="1">
          <mxGeometry x="657" y="1294" width="120" height="60" as="geometry" />
        </mxCell>
        <mxCell id="HRkGqnotARpjoitVVcCS-63" style="edgeStyle=orthogonalEdgeStyle;rounded=0;orthogonalLoop=1;jettySize=auto;html=1;entryX=0.5;entryY=0;entryDx=0;entryDy=0;" parent="1" source="HRkGqnotARpjoitVVcCS-62" target="HRkGqnotARpjoitVVcCS-61" edge="1">
          <mxGeometry relative="1" as="geometry" />
        </mxCell>
        <mxCell id="HRkGqnotARpjoitVVcCS-62" value="&lt;font style=&quot;font-size: 14px;&quot;&gt;Пользователь&lt;/font&gt;" style="text;html=1;strokeColor=none;fillColor=none;align=center;verticalAlign=middle;whiteSpace=wrap;rounded=0;" parent="1" vertex="1">
          <mxGeometry x="675.5" y="1227" width="83" height="30" as="geometry" />
        </mxCell>
        <mxCell id="HRkGqnotARpjoitVVcCS-67" value="&lt;font style=&quot;font-size: 14px;&quot;&gt;Результаты поиска&lt;/font&gt;" style="rounded=1;whiteSpace=wrap;html=1;" parent="1" vertex="1">
          <mxGeometry x="816" y="1294" width="120" height="60" as="geometry" />
        </mxCell>
        <mxCell id="HRkGqnotARpjoitVVcCS-71" style="edgeStyle=orthogonalEdgeStyle;rounded=0;orthogonalLoop=1;jettySize=auto;html=1;" parent="1" target="HRkGqnotARpjoitVVcCS-67" edge="1">
          <mxGeometry relative="1" as="geometry">
            <mxPoint x="876" y="1396" as="sourcePoint" />
          </mxGeometry>
        </mxCell>
        <mxCell id="HRkGqnotARpjoitVVcCS-121" value="&lt;font style=&quot;font-size: 14px;&quot;&gt;Данные из БД&lt;/font&gt;" style="text;html=1;strokeColor=none;fillColor=none;align=center;verticalAlign=middle;whiteSpace=wrap;rounded=0;" parent="1" vertex="1">
          <mxGeometry x="-107" y="1713" width="97" height="30" as="geometry" />
        </mxCell>
        <mxCell id="HRkGqnotARpjoitVVcCS-123" value="&lt;font style=&quot;font-size: 14px;&quot;&gt;Новые данные&lt;/font&gt;" style="text;html=1;strokeColor=none;fillColor=none;align=center;verticalAlign=middle;whiteSpace=wrap;rounded=0;" parent="1" vertex="1">
          <mxGeometry x="-12" y="1761" width="115" height="30" as="geometry" />
        </mxCell>
        <mxCell id="HRkGqnotARpjoitVVcCS-176" style="edgeStyle=orthogonalEdgeStyle;rounded=0;orthogonalLoop=1;jettySize=auto;html=1;" parent="1" source="HRkGqnotARpjoitVVcCS-132" edge="1">
          <mxGeometry relative="1" as="geometry">
            <mxPoint x="907" y="1831.0000000000005" as="targetPoint" />
          </mxGeometry>
        </mxCell>
        <mxCell id="HRkGqnotARpjoitVVcCS-187" style="edgeStyle=orthogonalEdgeStyle;rounded=0;orthogonalLoop=1;jettySize=auto;html=1;exitX=0;exitY=0.75;exitDx=0;exitDy=0;entryX=0.5;entryY=0;entryDx=0;entryDy=0;" parent="1" source="HRkGqnotARpjoitVVcCS-132" target="HRkGqnotARpjoitVVcCS-186" edge="1">
          <mxGeometry relative="1" as="geometry" />
        </mxCell>
        <mxCell id="HRkGqnotARpjoitVVcCS-132" value="&lt;span style=&quot;font-size: 14px;&quot;&gt;Редактирование БД&lt;/span&gt;" style="rounded=1;whiteSpace=wrap;html=1;" parent="1" vertex="1">
          <mxGeometry x="712" y="1801" width="120" height="60" as="geometry" />
        </mxCell>
        <mxCell id="HRkGqnotARpjoitVVcCS-135" style="edgeStyle=orthogonalEdgeStyle;rounded=0;orthogonalLoop=1;jettySize=auto;html=1;" parent="1" source="HRkGqnotARpjoitVVcCS-134" target="HRkGqnotARpjoitVVcCS-132" edge="1">
          <mxGeometry relative="1" as="geometry" />
        </mxCell>
        <mxCell id="HRkGqnotARpjoitVVcCS-134" value="&lt;font style=&quot;font-size: 14px;&quot;&gt;Запрос&lt;/font&gt;" style="text;html=1;strokeColor=none;fillColor=none;align=center;verticalAlign=middle;whiteSpace=wrap;rounded=0;" parent="1" vertex="1">
          <mxGeometry x="730.5000000000001" y="1930" width="83" height="30" as="geometry" />
        </mxCell>
        <mxCell id="HRkGqnotARpjoitVVcCS-138" style="edgeStyle=orthogonalEdgeStyle;rounded=0;orthogonalLoop=1;jettySize=auto;html=1;entryX=0.75;entryY=0;entryDx=0;entryDy=0;" parent="1" source="HRkGqnotARpjoitVVcCS-136" target="HRkGqnotARpjoitVVcCS-67" edge="1">
          <mxGeometry relative="1" as="geometry" />
        </mxCell>
        <mxCell id="HRkGqnotARpjoitVVcCS-136" value="&lt;font style=&quot;font-size: 14px;&quot;&gt;ПО&lt;/font&gt;" style="text;html=1;strokeColor=none;fillColor=none;align=center;verticalAlign=middle;whiteSpace=wrap;rounded=0;" parent="1" vertex="1">
          <mxGeometry x="864" y="1232" width="83" height="30" as="geometry" />
        </mxCell>
        <mxCell id="HRkGqnotARpjoitVVcCS-139" style="edgeStyle=orthogonalEdgeStyle;rounded=0;orthogonalLoop=1;jettySize=auto;html=1;exitX=0.5;exitY=1;exitDx=0;exitDy=0;" parent="1" source="HRkGqnotARpjoitVVcCS-134" target="HRkGqnotARpjoitVVcCS-134" edge="1">
          <mxGeometry relative="1" as="geometry" />
        </mxCell>
        <mxCell id="HRkGqnotARpjoitVVcCS-143" style="edgeStyle=orthogonalEdgeStyle;rounded=0;orthogonalLoop=1;jettySize=auto;html=1;entryX=0.83;entryY=0.979;entryDx=0;entryDy=0;entryPerimeter=0;" parent="1" target="HRkGqnotARpjoitVVcCS-132" edge="1">
          <mxGeometry relative="1" as="geometry">
            <mxPoint x="811.3749999999995" y="1897" as="sourcePoint" />
          </mxGeometry>
        </mxCell>
        <mxCell id="HRkGqnotARpjoitVVcCS-179" style="edgeStyle=orthogonalEdgeStyle;rounded=0;orthogonalLoop=1;jettySize=auto;html=1;entryX=0.115;entryY=1.029;entryDx=0;entryDy=0;entryPerimeter=0;" parent="1" source="HRkGqnotARpjoitVVcCS-140" target="HRkGqnotARpjoitVVcCS-132" edge="1">
          <mxGeometry relative="1" as="geometry" />
        </mxCell>
        <mxCell id="HRkGqnotARpjoitVVcCS-140" value="&lt;font style=&quot;font-size: 14px;&quot;&gt;ПО&lt;/font&gt;" style="text;html=1;strokeColor=none;fillColor=none;align=center;verticalAlign=middle;whiteSpace=wrap;rounded=0;" parent="1" vertex="1">
          <mxGeometry x="684.25" y="1904" width="83" height="30" as="geometry" />
        </mxCell>
        <mxCell id="HRkGqnotARpjoitVVcCS-165" value="&lt;font style=&quot;font-size: 14px;&quot;&gt;База данных&lt;/font&gt;" style="text;html=1;strokeColor=none;fillColor=none;align=center;verticalAlign=middle;whiteSpace=wrap;rounded=0;" parent="1" vertex="1">
          <mxGeometry x="828" y="1399" width="100.5" height="30" as="geometry" />
        </mxCell>
        <mxCell id="HRkGqnotARpjoitVVcCS-177" value="&lt;font style=&quot;font-size: 14px;&quot;&gt;База данных&lt;/font&gt;" style="text;html=1;strokeColor=none;fillColor=none;align=center;verticalAlign=middle;whiteSpace=wrap;rounded=0;" parent="1" vertex="1">
          <mxGeometry x="777" y="1891" width="100.5" height="30" as="geometry" />
        </mxCell>
        <mxCell id="HRkGqnotARpjoitVVcCS-197" style="edgeStyle=orthogonalEdgeStyle;rounded=0;orthogonalLoop=1;jettySize=auto;html=1;entryX=0.5;entryY=0;entryDx=0;entryDy=0;" parent="1" source="HRkGqnotARpjoitVVcCS-180" target="HRkGqnotARpjoitVVcCS-198" edge="1">
          <mxGeometry relative="1" as="geometry">
            <mxPoint x="966" y="1954" as="targetPoint" />
          </mxGeometry>
        </mxCell>
        <mxCell id="HRkGqnotARpjoitVVcCS-180" value="&lt;span style=&quot;font-size: 14px;&quot;&gt;Обновление БД&lt;/span&gt;" style="rounded=1;whiteSpace=wrap;html=1;" parent="1" vertex="1">
          <mxGeometry x="906" y="1801" width="120" height="60" as="geometry" />
        </mxCell>
        <mxCell id="HRkGqnotARpjoitVVcCS-183" style="edgeStyle=orthogonalEdgeStyle;rounded=0;orthogonalLoop=1;jettySize=auto;html=1;entryX=0.75;entryY=0;entryDx=0;entryDy=0;" parent="1" source="HRkGqnotARpjoitVVcCS-181" target="HRkGqnotARpjoitVVcCS-180" edge="1">
          <mxGeometry relative="1" as="geometry">
            <mxPoint x="988" y="1798" as="targetPoint" />
          </mxGeometry>
        </mxCell>
        <mxCell id="HRkGqnotARpjoitVVcCS-181" value="&lt;font style=&quot;font-size: 14px;&quot;&gt;ПО&lt;/font&gt;" style="text;html=1;strokeColor=none;fillColor=none;align=center;verticalAlign=middle;whiteSpace=wrap;rounded=0;" parent="1" vertex="1">
          <mxGeometry x="954.0000000000001" y="1743" width="83" height="30" as="geometry" />
        </mxCell>
        <mxCell id="HRkGqnotARpjoitVVcCS-182" style="edgeStyle=orthogonalEdgeStyle;rounded=0;orthogonalLoop=1;jettySize=auto;html=1;exitX=0.5;exitY=1;exitDx=0;exitDy=0;" parent="1" source="HRkGqnotARpjoitVVcCS-181" target="HRkGqnotARpjoitVVcCS-181" edge="1">
          <mxGeometry relative="1" as="geometry" />
        </mxCell>
        <mxCell id="HRkGqnotARpjoitVVcCS-185" style="edgeStyle=orthogonalEdgeStyle;rounded=0;orthogonalLoop=1;jettySize=auto;html=1;" parent="1" source="HRkGqnotARpjoitVVcCS-184" target="HRkGqnotARpjoitVVcCS-180" edge="1">
          <mxGeometry relative="1" as="geometry" />
        </mxCell>
        <mxCell id="HRkGqnotARpjoitVVcCS-184" value="&lt;font style=&quot;font-size: 14px;&quot;&gt;Новые данные&lt;/font&gt;" style="text;html=1;strokeColor=none;fillColor=none;align=center;verticalAlign=middle;whiteSpace=wrap;rounded=0;" parent="1" vertex="1">
          <mxGeometry x="1069.42" y="1816" width="100.5" height="30" as="geometry" />
        </mxCell>
        <mxCell id="HRkGqnotARpjoitVVcCS-186" value="&lt;span style=&quot;font-size: 14px;&quot;&gt;Вывод ошибки&lt;/span&gt;" style="rounded=1;whiteSpace=wrap;html=1;" parent="1" vertex="1">
          <mxGeometry x="590" y="1967" width="120" height="60" as="geometry" />
        </mxCell>
        <mxCell id="HRkGqnotARpjoitVVcCS-192" style="edgeStyle=orthogonalEdgeStyle;rounded=0;orthogonalLoop=1;jettySize=auto;html=1;entryX=0.25;entryY=1;entryDx=0;entryDy=0;" parent="1" source="HRkGqnotARpjoitVVcCS-189" target="HRkGqnotARpjoitVVcCS-186" edge="1">
          <mxGeometry relative="1" as="geometry" />
        </mxCell>
        <mxCell id="HRkGqnotARpjoitVVcCS-189" value="&lt;font style=&quot;font-size: 14px;&quot;&gt;Сообщение об ошибке&lt;/font&gt;" style="text;html=1;strokeColor=none;fillColor=none;align=center;verticalAlign=middle;whiteSpace=wrap;rounded=0;" parent="1" vertex="1">
          <mxGeometry x="569" y="2074" width="102" height="30" as="geometry" />
        </mxCell>
        <mxCell id="HRkGqnotARpjoitVVcCS-195" style="edgeStyle=orthogonalEdgeStyle;rounded=0;orthogonalLoop=1;jettySize=auto;html=1;entryX=0.75;entryY=1;entryDx=0;entryDy=0;" parent="1" source="HRkGqnotARpjoitVVcCS-194" target="HRkGqnotARpjoitVVcCS-186" edge="1">
          <mxGeometry relative="1" as="geometry" />
        </mxCell>
        <mxCell id="HRkGqnotARpjoitVVcCS-194" value="&lt;font style=&quot;font-size: 14px;&quot;&gt;ПО&lt;/font&gt;" style="text;html=1;strokeColor=none;fillColor=none;align=center;verticalAlign=middle;whiteSpace=wrap;rounded=0;" parent="1" vertex="1">
          <mxGeometry x="671" y="2072" width="83" height="30" as="geometry" />
        </mxCell>
        <mxCell id="HRkGqnotARpjoitVVcCS-206" style="edgeStyle=orthogonalEdgeStyle;rounded=0;orthogonalLoop=1;jettySize=auto;html=1;entryX=1;entryY=0.5;entryDx=0;entryDy=0;" parent="1" source="HRkGqnotARpjoitVVcCS-198" target="HRkGqnotARpjoitVVcCS-186" edge="1">
          <mxGeometry relative="1" as="geometry" />
        </mxCell>
        <mxCell id="HRkGqnotARpjoitVVcCS-207" style="edgeStyle=orthogonalEdgeStyle;rounded=0;orthogonalLoop=1;jettySize=auto;html=1;entryX=1;entryY=0.5;entryDx=0;entryDy=0;" parent="1" source="HRkGqnotARpjoitVVcCS-198" target="HRkGqnotARpjoitVVcCS-208" edge="1">
          <mxGeometry relative="1" as="geometry">
            <mxPoint x="966" y="2077.75" as="targetPoint" />
          </mxGeometry>
        </mxCell>
        <mxCell id="HRkGqnotARpjoitVVcCS-198" value="&lt;font style=&quot;font-size: 14px;&quot;&gt;Подключение к серверу&lt;/font&gt;" style="rounded=1;whiteSpace=wrap;html=1;" parent="1" vertex="1">
          <mxGeometry x="906" y="1967" width="120" height="60" as="geometry" />
        </mxCell>
        <mxCell id="HRkGqnotARpjoitVVcCS-201" style="edgeStyle=orthogonalEdgeStyle;rounded=0;orthogonalLoop=1;jettySize=auto;html=1;entryX=1;entryY=0.75;entryDx=0;entryDy=0;" parent="1" source="HRkGqnotARpjoitVVcCS-200" target="HRkGqnotARpjoitVVcCS-198" edge="1">
          <mxGeometry relative="1" as="geometry" />
        </mxCell>
        <mxCell id="HRkGqnotARpjoitVVcCS-200" value="&lt;font style=&quot;font-size: 14px;&quot;&gt;База данных&lt;/font&gt;" style="text;html=1;strokeColor=none;fillColor=none;align=center;verticalAlign=middle;whiteSpace=wrap;rounded=0;" parent="1" vertex="1">
          <mxGeometry x="1089.67" y="1997" width="100.5" height="30" as="geometry" />
        </mxCell>
        <mxCell id="HRkGqnotARpjoitVVcCS-203" style="edgeStyle=orthogonalEdgeStyle;rounded=0;orthogonalLoop=1;jettySize=auto;html=1;" parent="1" source="HRkGqnotARpjoitVVcCS-202" target="HRkGqnotARpjoitVVcCS-198" edge="1">
          <mxGeometry relative="1" as="geometry" />
        </mxCell>
        <mxCell id="HRkGqnotARpjoitVVcCS-202" value="&lt;font style=&quot;font-size: 14px;&quot;&gt;Запрос&lt;/font&gt;" style="text;html=1;strokeColor=none;fillColor=none;align=center;verticalAlign=middle;whiteSpace=wrap;rounded=0;" parent="1" vertex="1">
          <mxGeometry x="1089.67" y="1960" width="83" height="30" as="geometry" />
        </mxCell>
        <mxCell id="HRkGqnotARpjoitVVcCS-205" style="edgeStyle=orthogonalEdgeStyle;rounded=0;orthogonalLoop=1;jettySize=auto;html=1;entryX=0.925;entryY=0.033;entryDx=0;entryDy=0;entryPerimeter=0;" parent="1" source="HRkGqnotARpjoitVVcCS-204" target="HRkGqnotARpjoitVVcCS-198" edge="1">
          <mxGeometry relative="1" as="geometry" />
        </mxCell>
        <mxCell id="HRkGqnotARpjoitVVcCS-204" value="&lt;font style=&quot;font-size: 14px;&quot;&gt;ПО&lt;/font&gt;" style="text;html=1;strokeColor=none;fillColor=none;align=center;verticalAlign=middle;whiteSpace=wrap;rounded=0;" parent="1" vertex="1">
          <mxGeometry x="976.0000000000001" y="1900" width="83" height="30" as="geometry" />
        </mxCell>
        <mxCell id="HRkGqnotARpjoitVVcCS-208" value="&lt;span style=&quot;font-size: 14px;&quot;&gt;Обновление данных на сайте&lt;/span&gt;" style="rounded=1;whiteSpace=wrap;html=1;" parent="1" vertex="1">
          <mxGeometry x="820" y="2125" width="120" height="60" as="geometry" />
        </mxCell>
        <mxCell id="HRkGqnotARpjoitVVcCS-211" style="edgeStyle=orthogonalEdgeStyle;rounded=0;orthogonalLoop=1;jettySize=auto;html=1;" parent="1" source="HRkGqnotARpjoitVVcCS-210" target="HRkGqnotARpjoitVVcCS-208" edge="1">
          <mxGeometry relative="1" as="geometry" />
        </mxCell>
        <mxCell id="HRkGqnotARpjoitVVcCS-210" value="&lt;font style=&quot;font-size: 14px;&quot;&gt;ПО&lt;/font&gt;" style="text;html=1;strokeColor=none;fillColor=none;align=center;verticalAlign=middle;whiteSpace=wrap;rounded=0;" parent="1" vertex="1">
          <mxGeometry x="838.5" y="2051" width="83" height="30" as="geometry" />
        </mxCell>
        <mxCell id="HRkGqnotARpjoitVVcCS-213" style="edgeStyle=orthogonalEdgeStyle;rounded=0;orthogonalLoop=1;jettySize=auto;html=1;entryX=0;entryY=0.25;entryDx=0;entryDy=0;" parent="1" source="HRkGqnotARpjoitVVcCS-212" target="HRkGqnotARpjoitVVcCS-208" edge="1">
          <mxGeometry relative="1" as="geometry" />
        </mxCell>
        <mxCell id="HRkGqnotARpjoitVVcCS-212" value="&lt;font style=&quot;font-size: 14px;&quot;&gt;База данных&lt;/font&gt;" style="text;html=1;strokeColor=none;fillColor=none;align=center;verticalAlign=middle;whiteSpace=wrap;rounded=0;" parent="1" vertex="1">
          <mxGeometry x="748" y="2058" width="100.5" height="30" as="geometry" />
        </mxCell>
        <mxCell id="HRkGqnotARpjoitVVcCS-219" value="&lt;font style=&quot;font-size: 20px;&quot;&gt;ERD&lt;/font&gt;" style="text;html=1;strokeColor=none;fillColor=none;align=center;verticalAlign=middle;whiteSpace=wrap;rounded=0;" parent="1" vertex="1">
          <mxGeometry x="-1553" y="1010" width="60" height="30" as="geometry" />
        </mxCell>
        <mxCell id="HRkGqnotARpjoitVVcCS-236" style="edgeStyle=orthogonalEdgeStyle;rounded=0;orthogonalLoop=1;jettySize=auto;html=1;" parent="1" source="HRkGqnotARpjoitVVcCS-221" edge="1">
          <mxGeometry relative="1" as="geometry">
            <mxPoint x="-1515" y="1572" as="targetPoint" />
          </mxGeometry>
        </mxCell>
        <mxCell id="HRkGqnotARpjoitVVcCS-221" value="&lt;span style=&quot;font-size: 14px;&quot;&gt;Поиск товаров&lt;/span&gt;" style="shape=rhombus;perimeter=rhombusPerimeter;whiteSpace=wrap;html=1;align=center;" parent="1" vertex="1">
          <mxGeometry x="-1373" y="1342" width="174" height="84" as="geometry" />
        </mxCell>
        <mxCell id="HRkGqnotARpjoitVVcCS-264" style="edgeStyle=orthogonalEdgeStyle;rounded=0;orthogonalLoop=1;jettySize=auto;html=1;entryX=0.5;entryY=0;entryDx=0;entryDy=0;" parent="1" source="HRkGqnotARpjoitVVcCS-222" target="HRkGqnotARpjoitVVcCS-266" edge="1">
          <mxGeometry relative="1" as="geometry">
            <mxPoint x="-1514.9999999999995" y="1325.9999999999995" as="targetPoint" />
          </mxGeometry>
        </mxCell>
        <mxCell id="HRkGqnotARpjoitVVcCS-222" value="&lt;font style=&quot;font-size: 14px;&quot;&gt;Переход на сайт&lt;/font&gt;" style="whiteSpace=wrap;html=1;align=center;" parent="1" vertex="1">
          <mxGeometry x="-1577" y="1175" width="124" height="60" as="geometry" />
        </mxCell>
        <mxCell id="HRkGqnotARpjoitVVcCS-243" style="edgeStyle=orthogonalEdgeStyle;rounded=0;orthogonalLoop=1;jettySize=auto;html=1;entryX=0.5;entryY=0;entryDx=0;entryDy=0;exitX=0.5;exitY=1;exitDx=0;exitDy=0;" parent="1" source="HRkGqnotARpjoitVVcCS-285" target="HRkGqnotARpjoitVVcCS-240" edge="1">
          <mxGeometry relative="1" as="geometry">
            <mxPoint x="-1135" y="1640" as="sourcePoint" />
          </mxGeometry>
        </mxCell>
        <mxCell id="HRkGqnotARpjoitVVcCS-242" style="edgeStyle=orthogonalEdgeStyle;rounded=0;orthogonalLoop=1;jettySize=auto;html=1;entryX=1;entryY=0.5;entryDx=0;entryDy=0;exitX=1;exitY=0.5;exitDx=0;exitDy=0;" parent="1" source="HRkGqnotARpjoitVVcCS-240" target="HRkGqnotARpjoitVVcCS-285" edge="1">
          <mxGeometry relative="1" as="geometry">
            <mxPoint x="-1073" y="1610" as="targetPoint" />
          </mxGeometry>
        </mxCell>
        <mxCell id="HRkGqnotARpjoitVVcCS-240" value="&lt;font style=&quot;font-size: 14px;&quot;&gt;Редактирование &lt;br&gt;данных&lt;/font&gt;" style="shape=rhombus;perimeter=rhombusPerimeter;whiteSpace=wrap;html=1;align=center;" parent="1" vertex="1">
          <mxGeometry x="-1373" y="1903" width="174" height="84" as="geometry" />
        </mxCell>
        <mxCell id="HRkGqnotARpjoitVVcCS-256" style="edgeStyle=orthogonalEdgeStyle;rounded=0;orthogonalLoop=1;jettySize=auto;html=1;entryX=0.5;entryY=0;entryDx=0;entryDy=0;" parent="1" source="HRkGqnotARpjoitVVcCS-252" target="HRkGqnotARpjoitVVcCS-257" edge="1">
          <mxGeometry relative="1" as="geometry">
            <mxPoint x="-1513" y="2299" as="targetPoint" />
          </mxGeometry>
        </mxCell>
        <mxCell id="HRkGqnotARpjoitVVcCS-252" value="Подключение к&amp;nbsp;&lt;br style=&quot;border-color: var(--border-color); font-size: 14px;&quot;&gt;&lt;span style=&quot;font-size: 14px;&quot;&gt;серверу&lt;/span&gt;" style="shape=rhombus;perimeter=rhombusPerimeter;whiteSpace=wrap;html=1;align=center;" parent="1" vertex="1">
          <mxGeometry x="-1600" y="2145" width="174" height="84" as="geometry" />
        </mxCell>
        <mxCell id="HRkGqnotARpjoitVVcCS-257" value="&lt;font style=&quot;font-size: 14px;&quot;&gt;Обновление данных на сайте&lt;/font&gt;" style="whiteSpace=wrap;html=1;align=center;" parent="1" vertex="1">
          <mxGeometry x="-1575" y="2279" width="124" height="60" as="geometry" />
        </mxCell>
        <mxCell id="HRkGqnotARpjoitVVcCS-259" value="&lt;span style=&quot;font-size: 14px;&quot;&gt;Переход по вкладкам&lt;/span&gt;" style="shape=rhombus;perimeter=rhombusPerimeter;whiteSpace=wrap;html=1;align=center;" parent="1" vertex="1">
          <mxGeometry x="-1602" y="1573" width="174" height="84" as="geometry" />
        </mxCell>
        <mxCell id="HRkGqnotARpjoitVVcCS-268" style="edgeStyle=orthogonalEdgeStyle;rounded=0;orthogonalLoop=1;jettySize=auto;html=1;" parent="1" source="HRkGqnotARpjoitVVcCS-266" target="HRkGqnotARpjoitVVcCS-221" edge="1">
          <mxGeometry relative="1" as="geometry" />
        </mxCell>
        <mxCell id="HRkGqnotARpjoitVVcCS-266" value="&lt;font style=&quot;font-size: 14px;&quot;&gt;Загрузка каталога&lt;br&gt;&lt;/font&gt;" style="whiteSpace=wrap;html=1;align=center;" parent="1" vertex="1">
          <mxGeometry x="-1577" y="1354" width="124" height="60" as="geometry" />
        </mxCell>
        <mxCell id="HRkGqnotARpjoitVVcCS-275" value="&lt;font style=&quot;font-size: 14px;&quot;&gt;Сообщение об ошибке&lt;/font&gt;" style="shape=rhombus;perimeter=rhombusPerimeter;whiteSpace=wrap;html=1;align=center;" parent="1" vertex="1">
          <mxGeometry x="-2024" y="1693" width="174" height="84" as="geometry" />
        </mxCell>
        <mxCell id="HRkGqnotARpjoitVVcCS-283" value="&lt;span style=&quot;font-size: 14px;&quot;&gt;Список товаров полученных из БД&lt;/span&gt;" style="whiteSpace=wrap;html=1;align=center;" parent="1" vertex="1">
          <mxGeometry x="-1348" y="1580" width="124" height="60" as="geometry" />
        </mxCell>
        <mxCell id="HRkGqnotARpjoitVVcCS-285" value="&lt;font style=&quot;font-size: 14px;&quot;&gt;Получение&lt;br&gt;&amp;nbsp;данных из БД&lt;/font&gt;" style="shape=rhombus;perimeter=rhombusPerimeter;whiteSpace=wrap;html=1;align=center;" parent="1" vertex="1">
          <mxGeometry x="-1373" y="1693" width="174" height="84" as="geometry" />
        </mxCell>
        <mxCell id="NZz8lFGvhAFFfCNbKwrk-1" value="" style="endArrow=classic;html=1;rounded=0;exitX=0.5;exitY=1;exitDx=0;exitDy=0;entryX=0.5;entryY=0;entryDx=0;entryDy=0;" parent="1" source="HRkGqnotARpjoitVVcCS-283" target="HRkGqnotARpjoitVVcCS-285" edge="1">
          <mxGeometry width="50" height="50" relative="1" as="geometry">
            <mxPoint x="-1191" y="1690" as="sourcePoint" />
            <mxPoint x="-1141" y="1640" as="targetPoint" />
          </mxGeometry>
        </mxCell>
        <mxCell id="NZz8lFGvhAFFfCNbKwrk-3" value="&lt;font style=&quot;font-size: 14px;&quot;&gt;Список товаров полученных из БД&lt;br&gt;&lt;/font&gt;" style="whiteSpace=wrap;html=1;align=center;" parent="1" vertex="1">
          <mxGeometry x="-1577" y="1705" width="124" height="60" as="geometry" />
        </mxCell>
        <mxCell id="NZz8lFGvhAFFfCNbKwrk-4" value="" style="endArrow=classic;html=1;rounded=0;exitX=0;exitY=0.5;exitDx=0;exitDy=0;entryX=1;entryY=0.5;entryDx=0;entryDy=0;" parent="1" source="HRkGqnotARpjoitVVcCS-285" target="NZz8lFGvhAFFfCNbKwrk-3" edge="1">
          <mxGeometry width="50" height="50" relative="1" as="geometry">
            <mxPoint x="-1385" y="1730" as="sourcePoint" />
            <mxPoint x="-1335" y="1680" as="targetPoint" />
          </mxGeometry>
        </mxCell>
        <mxCell id="NZz8lFGvhAFFfCNbKwrk-5" value="" style="endArrow=classic;html=1;rounded=0;exitX=0.5;exitY=1;exitDx=0;exitDy=0;entryX=0.5;entryY=0;entryDx=0;entryDy=0;" parent="1" source="HRkGqnotARpjoitVVcCS-259" target="NZz8lFGvhAFFfCNbKwrk-3" edge="1">
          <mxGeometry width="50" height="50" relative="1" as="geometry">
            <mxPoint x="-1623" y="1704" as="sourcePoint" />
            <mxPoint x="-1573" y="1654" as="targetPoint" />
          </mxGeometry>
        </mxCell>
        <mxCell id="NZz8lFGvhAFFfCNbKwrk-6" value="&lt;span style=&quot;font-size: 14px;&quot;&gt;Оформление заказа&lt;/span&gt;" style="shape=rhombus;perimeter=rhombusPerimeter;whiteSpace=wrap;html=1;align=center;" parent="1" vertex="1">
          <mxGeometry x="-1801" y="1903" width="174" height="84" as="geometry" />
        </mxCell>
        <mxCell id="NZz8lFGvhAFFfCNbKwrk-7" value="Выбор товара" style="rounded=0;whiteSpace=wrap;html=1;" parent="1" vertex="1">
          <mxGeometry x="-1774" y="1705" width="120" height="60" as="geometry" />
        </mxCell>
        <mxCell id="NZz8lFGvhAFFfCNbKwrk-8" value="" style="endArrow=classic;html=1;rounded=0;exitX=0;exitY=0.5;exitDx=0;exitDy=0;entryX=1;entryY=0.5;entryDx=0;entryDy=0;" parent="1" source="NZz8lFGvhAFFfCNbKwrk-3" target="NZz8lFGvhAFFfCNbKwrk-7" edge="1">
          <mxGeometry width="50" height="50" relative="1" as="geometry">
            <mxPoint x="-1636" y="1661" as="sourcePoint" />
            <mxPoint x="-1586" y="1611" as="targetPoint" />
          </mxGeometry>
        </mxCell>
        <mxCell id="NZz8lFGvhAFFfCNbKwrk-10" value="" style="endArrow=classic;html=1;rounded=0;exitX=0;exitY=0.5;exitDx=0;exitDy=0;entryX=1;entryY=0.5;entryDx=0;entryDy=0;" parent="1" source="NZz8lFGvhAFFfCNbKwrk-7" edge="1">
          <mxGeometry width="50" height="50" relative="1" as="geometry">
            <mxPoint x="-1832" y="1700" as="sourcePoint" />
            <mxPoint x="-1851" y="1735" as="targetPoint" />
          </mxGeometry>
        </mxCell>
        <mxCell id="NZz8lFGvhAFFfCNbKwrk-11" value="" style="endArrow=classic;html=1;rounded=0;exitX=0.5;exitY=1;exitDx=0;exitDy=0;entryX=0.5;entryY=0;entryDx=0;entryDy=0;" parent="1" source="NZz8lFGvhAFFfCNbKwrk-7" target="NZz8lFGvhAFFfCNbKwrk-6" edge="1">
          <mxGeometry width="50" height="50" relative="1" as="geometry">
            <mxPoint x="-1565" y="1883" as="sourcePoint" />
            <mxPoint x="-1515" y="1833" as="targetPoint" />
          </mxGeometry>
        </mxCell>
        <mxCell id="NZz8lFGvhAFFfCNbKwrk-12" value="&lt;span style=&quot;font-size: 14px;&quot;&gt;Запись данных в БД&lt;/span&gt;" style="shape=rhombus;perimeter=rhombusPerimeter;whiteSpace=wrap;html=1;align=center;" parent="1" vertex="1">
          <mxGeometry x="-1801" y="2145" width="174" height="84" as="geometry" />
        </mxCell>
        <mxCell id="NZz8lFGvhAFFfCNbKwrk-13" value="" style="endArrow=classic;html=1;rounded=0;exitX=0.5;exitY=1;exitDx=0;exitDy=0;entryX=0.5;entryY=0;entryDx=0;entryDy=0;" parent="1" source="NZz8lFGvhAFFfCNbKwrk-6" target="NZz8lFGvhAFFfCNbKwrk-12" edge="1">
          <mxGeometry width="50" height="50" relative="1" as="geometry">
            <mxPoint x="-1588" y="1923" as="sourcePoint" />
            <mxPoint x="-1538" y="1873" as="targetPoint" />
          </mxGeometry>
        </mxCell>
        <mxCell id="NZz8lFGvhAFFfCNbKwrk-14" value="" style="endArrow=classic;html=1;rounded=0;exitX=1;exitY=0.5;exitDx=0;exitDy=0;entryX=0;entryY=0.5;entryDx=0;entryDy=0;" parent="1" source="NZz8lFGvhAFFfCNbKwrk-12" target="HRkGqnotARpjoitVVcCS-252" edge="1">
          <mxGeometry width="50" height="50" relative="1" as="geometry">
            <mxPoint x="-1443" y="2141" as="sourcePoint" />
            <mxPoint x="-1393" y="2091" as="targetPoint" />
          </mxGeometry>
        </mxCell>
        <mxCell id="NZz8lFGvhAFFfCNbKwrk-16" value="&lt;span style=&quot;font-size: 14px;&quot;&gt;Авторизация администраторв&lt;/span&gt;" style="shape=rhombus;perimeter=rhombusPerimeter;whiteSpace=wrap;html=1;align=center;" parent="1" vertex="1">
          <mxGeometry x="-1146" y="1429" width="174" height="84" as="geometry" />
        </mxCell>
        <mxCell id="NZz8lFGvhAFFfCNbKwrk-17" value="" style="endArrow=classic;html=1;rounded=0;exitX=1;exitY=0.5;exitDx=0;exitDy=0;entryX=0.5;entryY=0;entryDx=0;entryDy=0;" parent="1" source="HRkGqnotARpjoitVVcCS-222" edge="1">
          <mxGeometry width="50" height="50" relative="1" as="geometry">
            <mxPoint x="-1285" y="1271" as="sourcePoint" />
            <mxPoint x="-1059.9999999999995" y="1429.0000000000005" as="targetPoint" />
            <Array as="points">
              <mxPoint x="-1060" y="1205" />
            </Array>
          </mxGeometry>
        </mxCell>
        <mxCell id="NZz8lFGvhAFFfCNbKwrk-18" value="" style="endArrow=classic;html=1;rounded=0;exitX=0;exitY=0.5;exitDx=0;exitDy=0;entryX=1;entryY=0.5;entryDx=0;entryDy=0;" parent="1" source="HRkGqnotARpjoitVVcCS-240" target="HRkGqnotARpjoitVVcCS-252" edge="1">
          <mxGeometry width="50" height="50" relative="1" as="geometry">
            <mxPoint x="-1255" y="2148" as="sourcePoint" />
            <mxPoint x="-1205" y="2098" as="targetPoint" />
            <Array as="points">
              <mxPoint x="-1373" y="2187" />
            </Array>
          </mxGeometry>
        </mxCell>
        <mxCell id="NZz8lFGvhAFFfCNbKwrk-19" value="" style="endArrow=classic;html=1;rounded=0;exitX=0.5;exitY=1;exitDx=0;exitDy=0;entryX=0.5;entryY=1;entryDx=0;entryDy=0;" parent="1" target="HRkGqnotARpjoitVVcCS-240" edge="1">
          <mxGeometry width="50" height="50" relative="1" as="geometry">
            <mxPoint x="-1059.9999999999995" y="1513.0000000000005" as="sourcePoint" />
            <mxPoint x="-1071" y="1951" as="targetPoint" />
            <Array as="points">
              <mxPoint x="-1064" y="1987" />
            </Array>
          </mxGeometry>
        </mxCell>
        <mxCell id="NZz8lFGvhAFFfCNbKwrk-20" value="&lt;font style=&quot;font-size: 14px;&quot;&gt;Авторизация администратора&lt;/font&gt;" style="rounded=1;whiteSpace=wrap;html=1;" parent="1" vertex="1">
          <mxGeometry x="-30" y="1355" width="120" height="60" as="geometry" />
        </mxCell>
        <mxCell id="NZz8lFGvhAFFfCNbKwrk-21" value="" style="endArrow=classic;html=1;rounded=0;exitX=1;exitY=0.5;exitDx=0;exitDy=0;entryX=0.5;entryY=0;entryDx=0;entryDy=0;" parent="1" source="HRkGqnotARpjoitVVcCS-6" target="NZz8lFGvhAFFfCNbKwrk-20" edge="1">
          <mxGeometry width="50" height="50" relative="1" as="geometry">
            <mxPoint x="-100" y="1321" as="sourcePoint" />
            <mxPoint x="-50" y="1271" as="targetPoint" />
            <Array as="points">
              <mxPoint x="30" y="1260" />
            </Array>
          </mxGeometry>
        </mxCell>
        <mxCell id="NZz8lFGvhAFFfCNbKwrk-22" value="" style="endArrow=classic;html=1;rounded=0;entryX=0.75;entryY=1;entryDx=0;entryDy=0;exitX=0.5;exitY=1;exitDx=0;exitDy=0;" parent="1" source="NZz8lFGvhAFFfCNbKwrk-20" target="HRkGqnotARpjoitVVcCS-28" edge="1">
          <mxGeometry width="50" height="50" relative="1" as="geometry">
            <mxPoint x="119" y="1914" as="sourcePoint" />
            <mxPoint x="169" y="1864" as="targetPoint" />
            <Array as="points">
              <mxPoint x="30" y="1602" />
              <mxPoint x="175" y="1602" />
              <mxPoint x="178" y="1848" />
              <mxPoint x="-42" y="1848" />
            </Array>
          </mxGeometry>
        </mxCell>
        <mxCell id="NZz8lFGvhAFFfCNbKwrk-23" value="" style="endArrow=classic;html=1;rounded=0;exitX=0;exitY=0.75;exitDx=0;exitDy=0;entryX=1;entryY=0.5;entryDx=0;entryDy=0;" parent="1" source="HRkGqnotARpjoitVVcCS-11" target="HRkGqnotARpjoitVVcCS-5" edge="1">
          <mxGeometry width="50" height="50" relative="1" as="geometry">
            <mxPoint x="-305" y="1750" as="sourcePoint" />
            <mxPoint x="-255" y="1700" as="targetPoint" />
            <Array as="points">
              <mxPoint x="-169" y="1703" />
              <mxPoint x="-343" y="1719" />
            </Array>
          </mxGeometry>
        </mxCell>
        <mxCell id="NZz8lFGvhAFFfCNbKwrk-24" value="&lt;font style=&quot;font-size: 14px;&quot;&gt;Переход по вкладкам&lt;/font&gt;" style="rounded=1;whiteSpace=wrap;html=1;" parent="1" vertex="1">
          <mxGeometry x="-753" y="1422" width="120" height="60" as="geometry" />
        </mxCell>
        <mxCell id="NZz8lFGvhAFFfCNbKwrk-25" value="&lt;font style=&quot;font-size: 14px;&quot;&gt;Выбор товара&lt;/font&gt;" style="rounded=1;whiteSpace=wrap;html=1;" parent="1" vertex="1">
          <mxGeometry x="-753" y="1550" width="120" height="60" as="geometry" />
        </mxCell>
        <mxCell id="NZz8lFGvhAFFfCNbKwrk-26" value="&lt;font style=&quot;font-size: 14px;&quot;&gt;Оформление заказа&lt;/font&gt;" style="rounded=1;whiteSpace=wrap;html=1;" parent="1" vertex="1">
          <mxGeometry x="-753" y="1684" width="120" height="60" as="geometry" />
        </mxCell>
        <mxCell id="NZz8lFGvhAFFfCNbKwrk-27" value="&lt;font style=&quot;font-size: 14px;&quot;&gt;Запись данных в БД&lt;/font&gt;" style="rounded=1;whiteSpace=wrap;html=1;" parent="1" vertex="1">
          <mxGeometry x="-753" y="1805" width="120" height="60" as="geometry" />
        </mxCell>
        <mxCell id="NZz8lFGvhAFFfCNbKwrk-28" value="" style="endArrow=classic;html=1;rounded=0;entryX=0;entryY=0.5;entryDx=0;entryDy=0;exitX=1;exitY=0.75;exitDx=0;exitDy=0;" parent="1" source="NZz8lFGvhAFFfCNbKwrk-27" target="HRkGqnotARpjoitVVcCS-44" edge="1">
          <mxGeometry width="50" height="50" relative="1" as="geometry">
            <mxPoint x="-601" y="2005" as="sourcePoint" />
            <mxPoint x="-551" y="1955" as="targetPoint" />
          </mxGeometry>
        </mxCell>
        <mxCell id="NZz8lFGvhAFFfCNbKwrk-29" value="" style="endArrow=classic;html=1;rounded=0;exitX=0;exitY=0.5;exitDx=0;exitDy=0;entryX=0;entryY=0.5;entryDx=0;entryDy=0;" parent="1" source="HRkGqnotARpjoitVVcCS-51" target="HRkGqnotARpjoitVVcCS-1" edge="1">
          <mxGeometry width="50" height="50" relative="1" as="geometry">
            <mxPoint x="-565" y="1990" as="sourcePoint" />
            <mxPoint x="-609" y="2049" as="targetPoint" />
            <Array as="points">
              <mxPoint x="-803" y="1985" />
              <mxPoint x="-803" y="1385" />
            </Array>
          </mxGeometry>
        </mxCell>
        <mxCell id="NZz8lFGvhAFFfCNbKwrk-30" value="" style="endArrow=classic;html=1;rounded=0;exitX=0;exitY=0.75;exitDx=0;exitDy=0;entryX=0.5;entryY=0;entryDx=0;entryDy=0;" parent="1" source="HRkGqnotARpjoitVVcCS-1" target="NZz8lFGvhAFFfCNbKwrk-24" edge="1">
          <mxGeometry width="50" height="50" relative="1" as="geometry">
            <mxPoint x="-395" y="1491" as="sourcePoint" />
            <mxPoint x="-345" y="1441" as="targetPoint" />
            <Array as="points">
              <mxPoint x="-693" y="1400" />
            </Array>
          </mxGeometry>
        </mxCell>
        <mxCell id="NZz8lFGvhAFFfCNbKwrk-31" value="" style="endArrow=classic;html=1;rounded=0;exitX=0.5;exitY=1;exitDx=0;exitDy=0;entryX=0.5;entryY=0;entryDx=0;entryDy=0;" parent="1" source="NZz8lFGvhAFFfCNbKwrk-24" target="NZz8lFGvhAFFfCNbKwrk-25" edge="1">
          <mxGeometry width="50" height="50" relative="1" as="geometry">
            <mxPoint x="-711" y="1563" as="sourcePoint" />
            <mxPoint x="-661" y="1513" as="targetPoint" />
          </mxGeometry>
        </mxCell>
        <mxCell id="NZz8lFGvhAFFfCNbKwrk-32" value="" style="endArrow=classic;html=1;rounded=0;exitX=0.5;exitY=1;exitDx=0;exitDy=0;entryX=0.5;entryY=0;entryDx=0;entryDy=0;" parent="1" source="NZz8lFGvhAFFfCNbKwrk-25" target="NZz8lFGvhAFFfCNbKwrk-26" edge="1">
          <mxGeometry width="50" height="50" relative="1" as="geometry">
            <mxPoint x="-695" y="1693" as="sourcePoint" />
            <mxPoint x="-645" y="1643" as="targetPoint" />
          </mxGeometry>
        </mxCell>
        <mxCell id="NZz8lFGvhAFFfCNbKwrk-33" value="" style="endArrow=classic;html=1;rounded=0;exitX=0.5;exitY=1;exitDx=0;exitDy=0;entryX=0.5;entryY=0;entryDx=0;entryDy=0;" parent="1" source="NZz8lFGvhAFFfCNbKwrk-26" target="NZz8lFGvhAFFfCNbKwrk-27" edge="1">
          <mxGeometry width="50" height="50" relative="1" as="geometry">
            <mxPoint x="-603" y="1694" as="sourcePoint" />
            <mxPoint x="-553" y="1644" as="targetPoint" />
          </mxGeometry>
        </mxCell>
        <mxCell id="NZz8lFGvhAFFfCNbKwrk-34" value="&lt;font style=&quot;font-size: 14px;&quot;&gt;Запрос на подключение к серверу&lt;/font&gt;" style="text;html=1;strokeColor=none;fillColor=none;align=center;verticalAlign=middle;whiteSpace=wrap;rounded=0;" parent="1" vertex="1">
          <mxGeometry x="-597" y="1805" width="113" height="30" as="geometry" />
        </mxCell>
        <mxCell id="NZz8lFGvhAFFfCNbKwrk-35" value="&lt;font style=&quot;font-size: 14px;&quot;&gt;Сообщение об успехе&lt;/font&gt;" style="text;html=1;strokeColor=none;fillColor=none;align=center;verticalAlign=middle;whiteSpace=wrap;rounded=0;" parent="1" vertex="1">
          <mxGeometry x="47" y="1564" width="97" height="30" as="geometry" />
        </mxCell>
        <mxCell id="NZz8lFGvhAFFfCNbKwrk-36" value="&lt;font style=&quot;font-size: 14px;&quot;&gt;Данные из БД&lt;/font&gt;" style="text;html=1;strokeColor=none;fillColor=none;align=center;verticalAlign=middle;whiteSpace=wrap;rounded=0;" parent="1" vertex="1">
          <mxGeometry x="-431" y="1683" width="97" height="30" as="geometry" />
        </mxCell>
        <mxCell id="NZz8lFGvhAFFfCNbKwrk-37" value="" style="endArrow=classic;html=1;rounded=0;exitX=0;exitY=0.5;exitDx=0;exitDy=0;" parent="1" source="HRkGqnotARpjoitVVcCS-5" edge="1">
          <mxGeometry width="50" height="50" relative="1" as="geometry">
            <mxPoint x="-610" y="1697" as="sourcePoint" />
            <mxPoint x="-636" y="1722" as="targetPoint" />
          </mxGeometry>
        </mxCell>
        <mxCell id="NZz8lFGvhAFFfCNbKwrk-39" value="&lt;font style=&quot;font-size: 14px;&quot;&gt;Сообщение об ошибке&lt;/font&gt;" style="rounded=1;whiteSpace=wrap;html=1;" parent="1" vertex="1">
          <mxGeometry x="-184" y="1355" width="120" height="60" as="geometry" />
        </mxCell>
        <mxCell id="NZz8lFGvhAFFfCNbKwrk-40" value="" style="endArrow=classic;html=1;rounded=0;exitX=0;exitY=0.75;exitDx=0;exitDy=0;entryX=1;entryY=0.75;entryDx=0;entryDy=0;" parent="1" source="NZz8lFGvhAFFfCNbKwrk-20" target="NZz8lFGvhAFFfCNbKwrk-39" edge="1">
          <mxGeometry width="50" height="50" relative="1" as="geometry">
            <mxPoint x="-54" y="1498" as="sourcePoint" />
            <mxPoint x="-4" y="1448" as="targetPoint" />
          </mxGeometry>
        </mxCell>
        <mxCell id="NZz8lFGvhAFFfCNbKwrk-42" value="" style="endArrow=classic;html=1;rounded=0;exitX=1;exitY=0.25;exitDx=0;exitDy=0;entryX=0;entryY=0.25;entryDx=0;entryDy=0;" parent="1" source="NZz8lFGvhAFFfCNbKwrk-39" target="NZz8lFGvhAFFfCNbKwrk-20" edge="1">
          <mxGeometry width="50" height="50" relative="1" as="geometry">
            <mxPoint x="-57" y="1364" as="sourcePoint" />
            <mxPoint x="-7" y="1314" as="targetPoint" />
          </mxGeometry>
        </mxCell>
        <mxCell id="NZz8lFGvhAFFfCNbKwrk-43" value="&lt;font style=&quot;font-size: 14px;&quot;&gt;Переход по вкладкам&lt;/font&gt;" style="rounded=1;whiteSpace=wrap;html=1;" parent="1" vertex="1">
          <mxGeometry x="657" y="1531" width="120" height="60" as="geometry" />
        </mxCell>
        <mxCell id="NZz8lFGvhAFFfCNbKwrk-44" value="" style="endArrow=classic;html=1;rounded=0;exitX=0.75;exitY=1;exitDx=0;exitDy=0;entryX=0;entryY=0.5;entryDx=0;entryDy=0;" parent="1" source="HRkGqnotARpjoitVVcCS-57" target="NZz8lFGvhAFFfCNbKwrk-43" edge="1">
          <mxGeometry width="50" height="50" relative="1" as="geometry">
            <mxPoint x="605" y="1481" as="sourcePoint" />
            <mxPoint x="655" y="1431" as="targetPoint" />
            <Array as="points">
              <mxPoint x="578" y="1561" />
            </Array>
          </mxGeometry>
        </mxCell>
        <mxCell id="NZz8lFGvhAFFfCNbKwrk-45" style="edgeStyle=orthogonalEdgeStyle;rounded=0;orthogonalLoop=1;jettySize=auto;html=1;entryX=0.5;entryY=0;entryDx=0;entryDy=0;" parent="1" source="NZz8lFGvhAFFfCNbKwrk-46" edge="1">
          <mxGeometry relative="1" as="geometry">
            <mxPoint x="717" y="1530" as="targetPoint" />
          </mxGeometry>
        </mxCell>
        <mxCell id="NZz8lFGvhAFFfCNbKwrk-46" value="&lt;font style=&quot;font-size: 14px;&quot;&gt;Пользователь&lt;/font&gt;" style="text;html=1;strokeColor=none;fillColor=none;align=center;verticalAlign=middle;whiteSpace=wrap;rounded=0;" parent="1" vertex="1">
          <mxGeometry x="675.5" y="1464" width="83" height="30" as="geometry" />
        </mxCell>
        <mxCell id="NZz8lFGvhAFFfCNbKwrk-47" value="&lt;font style=&quot;font-size: 14px;&quot;&gt;Выбор товара&lt;/font&gt;" style="rounded=1;whiteSpace=wrap;html=1;" parent="1" vertex="1">
          <mxGeometry x="813.5" y="1531" width="120" height="60" as="geometry" />
        </mxCell>
        <mxCell id="NZz8lFGvhAFFfCNbKwrk-48" value="&lt;font style=&quot;font-size: 14px;&quot;&gt;Выбор товара&lt;/font&gt;" style="rounded=1;whiteSpace=wrap;html=1;" parent="1" vertex="1">
          <mxGeometry x="-566" y="1573" width="120" height="60" as="geometry" />
        </mxCell>
        <mxCell id="NZz8lFGvhAFFfCNbKwrk-49" value="" style="endArrow=classic;html=1;rounded=0;exitX=0.5;exitY=1;exitDx=0;exitDy=0;entryX=0.5;entryY=0;entryDx=0;entryDy=0;" parent="1" source="NZz8lFGvhAFFfCNbKwrk-48" target="HRkGqnotARpjoitVVcCS-5" edge="1">
          <mxGeometry width="50" height="50" relative="1" as="geometry">
            <mxPoint x="-468" y="1684" as="sourcePoint" />
            <mxPoint x="-418" y="1634" as="targetPoint" />
          </mxGeometry>
        </mxCell>
        <mxCell id="NZz8lFGvhAFFfCNbKwrk-50" value="&lt;span style=&quot;font-size: 14px;&quot;&gt;Выбор товара&lt;/span&gt;" style="shape=rhombus;perimeter=rhombusPerimeter;whiteSpace=wrap;html=1;align=center;" parent="1" vertex="1">
          <mxGeometry x="-1373" y="1466" width="174" height="84" as="geometry" />
        </mxCell>
        <mxCell id="NZz8lFGvhAFFfCNbKwrk-52" value="" style="endArrow=classic;html=1;rounded=0;exitX=0.5;exitY=0;exitDx=0;exitDy=0;entryX=0.5;entryY=1;entryDx=0;entryDy=0;" parent="1" source="NZz8lFGvhAFFfCNbKwrk-50" target="HRkGqnotARpjoitVVcCS-221" edge="1">
          <mxGeometry width="50" height="50" relative="1" as="geometry">
            <mxPoint x="-1410" y="1504" as="sourcePoint" />
            <mxPoint x="-1360" y="1454" as="targetPoint" />
          </mxGeometry>
        </mxCell>
        <mxCell id="NZz8lFGvhAFFfCNbKwrk-53" value="" style="endArrow=classic;html=1;rounded=0;exitX=0.5;exitY=0;exitDx=0;exitDy=0;entryX=0.5;entryY=1;entryDx=0;entryDy=0;" parent="1" source="HRkGqnotARpjoitVVcCS-283" target="NZz8lFGvhAFFfCNbKwrk-50" edge="1">
          <mxGeometry width="50" height="50" relative="1" as="geometry">
            <mxPoint x="-1170" y="1590" as="sourcePoint" />
            <mxPoint x="-1120" y="1540" as="targetPoint" />
          </mxGeometry>
        </mxCell>
        <mxCell id="NZz8lFGvhAFFfCNbKwrk-54" value="" style="endArrow=classic;html=1;rounded=0;exitX=0;exitY=0.5;exitDx=0;exitDy=0;entryX=0;entryY=0.5;entryDx=0;entryDy=0;" parent="1" source="NZz8lFGvhAFFfCNbKwrk-50" target="NZz8lFGvhAFFfCNbKwrk-6" edge="1">
          <mxGeometry width="50" height="50" relative="1" as="geometry">
            <mxPoint x="-1620" y="1527" as="sourcePoint" />
            <mxPoint x="-1832" y="1508" as="targetPoint" />
            <Array as="points">
              <mxPoint x="-2055" y="1508" />
              <mxPoint x="-2060" y="1950" />
            </Array>
          </mxGeometry>
        </mxCell>
        <mxCell id="NZz8lFGvhAFFfCNbKwrk-55" value="" style="endArrow=classic;html=1;rounded=0;exitX=1;exitY=0.5;exitDx=0;exitDy=0;entryX=0;entryY=0.5;entryDx=0;entryDy=0;" parent="1" source="NZz8lFGvhAFFfCNbKwrk-43" target="NZz8lFGvhAFFfCNbKwrk-47" edge="1">
          <mxGeometry width="50" height="50" relative="1" as="geometry">
            <mxPoint x="856" y="1655" as="sourcePoint" />
            <mxPoint x="906" y="1605" as="targetPoint" />
          </mxGeometry>
        </mxCell>
        <mxCell id="NZz8lFGvhAFFfCNbKwrk-58" style="edgeStyle=orthogonalEdgeStyle;rounded=0;orthogonalLoop=1;jettySize=auto;html=1;entryX=0.5;entryY=0;entryDx=0;entryDy=0;" parent="1" source="NZz8lFGvhAFFfCNbKwrk-59" edge="1">
          <mxGeometry relative="1" as="geometry">
            <mxPoint x="873.5" y="1532" as="targetPoint" />
          </mxGeometry>
        </mxCell>
        <mxCell id="NZz8lFGvhAFFfCNbKwrk-59" value="&lt;font style=&quot;font-size: 14px;&quot;&gt;Пользователь&lt;/font&gt;" style="text;html=1;strokeColor=none;fillColor=none;align=center;verticalAlign=middle;whiteSpace=wrap;rounded=0;" parent="1" vertex="1">
          <mxGeometry x="832" y="1466" width="83" height="30" as="geometry" />
        </mxCell>
        <mxCell id="NZz8lFGvhAFFfCNbKwrk-60" value="" style="endArrow=classic;html=1;rounded=0;exitX=1;exitY=0.5;exitDx=0;exitDy=0;entryX=0.75;entryY=0;entryDx=0;entryDy=0;" parent="1" source="HRkGqnotARpjoitVVcCS-67" target="NZz8lFGvhAFFfCNbKwrk-47" edge="1">
          <mxGeometry width="50" height="50" relative="1" as="geometry">
            <mxPoint x="947" y="1357" as="sourcePoint" />
            <mxPoint x="997" y="1307" as="targetPoint" />
            <Array as="points">
              <mxPoint x="968" y="1324" />
              <mxPoint x="968" y="1517" />
              <mxPoint x="904" y="1517" />
            </Array>
          </mxGeometry>
        </mxCell>
        <mxCell id="NZz8lFGvhAFFfCNbKwrk-61" value="&lt;font style=&quot;font-size: 14px;&quot;&gt;Оформление заказа&lt;/font&gt;" style="rounded=1;whiteSpace=wrap;html=1;" parent="1" vertex="1">
          <mxGeometry x="999.92" y="1531" width="120" height="60" as="geometry" />
        </mxCell>
        <mxCell id="NZz8lFGvhAFFfCNbKwrk-62" value="&lt;font style=&quot;font-size: 14px;&quot;&gt;Запись данных в БД&lt;/font&gt;" style="rounded=1;whiteSpace=wrap;html=1;" parent="1" vertex="1">
          <mxGeometry x="1156.92" y="1531" width="120" height="60" as="geometry" />
        </mxCell>
        <mxCell id="NZz8lFGvhAFFfCNbKwrk-63" value="" style="endArrow=classic;html=1;rounded=0;exitX=1;exitY=0.5;exitDx=0;exitDy=0;entryX=0;entryY=0.5;entryDx=0;entryDy=0;" parent="1" source="NZz8lFGvhAFFfCNbKwrk-47" target="NZz8lFGvhAFFfCNbKwrk-61" edge="1">
          <mxGeometry width="50" height="50" relative="1" as="geometry">
            <mxPoint x="970" y="1638" as="sourcePoint" />
            <mxPoint x="1020" y="1588" as="targetPoint" />
          </mxGeometry>
        </mxCell>
        <mxCell id="NZz8lFGvhAFFfCNbKwrk-64" style="edgeStyle=orthogonalEdgeStyle;rounded=0;orthogonalLoop=1;jettySize=auto;html=1;entryX=0.5;entryY=0;entryDx=0;entryDy=0;" parent="1" source="NZz8lFGvhAFFfCNbKwrk-65" edge="1">
          <mxGeometry relative="1" as="geometry">
            <mxPoint x="1107.5" y="1532" as="targetPoint" />
          </mxGeometry>
        </mxCell>
        <mxCell id="NZz8lFGvhAFFfCNbKwrk-65" value="&lt;font style=&quot;font-size: 14px;&quot;&gt;Пользователь&lt;/font&gt;" style="text;html=1;strokeColor=none;fillColor=none;align=center;verticalAlign=middle;whiteSpace=wrap;rounded=0;" parent="1" vertex="1">
          <mxGeometry x="1066" y="1466" width="83" height="30" as="geometry" />
        </mxCell>
        <mxCell id="NZz8lFGvhAFFfCNbKwrk-66" style="edgeStyle=orthogonalEdgeStyle;rounded=0;orthogonalLoop=1;jettySize=auto;html=1;" parent="1" source="NZz8lFGvhAFFfCNbKwrk-67" edge="1">
          <mxGeometry relative="1" as="geometry">
            <mxPoint x="1276.92" y="1561" as="targetPoint" />
          </mxGeometry>
        </mxCell>
        <mxCell id="NZz8lFGvhAFFfCNbKwrk-67" value="&lt;font style=&quot;font-size: 14px;&quot;&gt;Новые данные&lt;/font&gt;" style="text;html=1;strokeColor=none;fillColor=none;align=center;verticalAlign=middle;whiteSpace=wrap;rounded=0;" parent="1" vertex="1">
          <mxGeometry x="1320.3400000000001" y="1546" width="100.5" height="30" as="geometry" />
        </mxCell>
        <mxCell id="NZz8lFGvhAFFfCNbKwrk-68" style="edgeStyle=orthogonalEdgeStyle;rounded=0;orthogonalLoop=1;jettySize=auto;html=1;entryX=0.75;entryY=0;entryDx=0;entryDy=0;" parent="1" source="NZz8lFGvhAFFfCNbKwrk-69" edge="1">
          <mxGeometry relative="1" as="geometry">
            <mxPoint x="1268" y="1531" as="targetPoint" />
          </mxGeometry>
        </mxCell>
        <mxCell id="NZz8lFGvhAFFfCNbKwrk-69" value="&lt;font style=&quot;font-size: 14px;&quot;&gt;ПО&lt;/font&gt;" style="text;html=1;strokeColor=none;fillColor=none;align=center;verticalAlign=middle;whiteSpace=wrap;rounded=0;" parent="1" vertex="1">
          <mxGeometry x="1226" y="1473" width="83" height="30" as="geometry" />
        </mxCell>
        <mxCell id="NZz8lFGvhAFFfCNbKwrk-70" style="edgeStyle=orthogonalEdgeStyle;rounded=0;orthogonalLoop=1;jettySize=auto;html=1;exitX=0.5;exitY=1;exitDx=0;exitDy=0;" parent="1" source="NZz8lFGvhAFFfCNbKwrk-69" target="NZz8lFGvhAFFfCNbKwrk-69" edge="1">
          <mxGeometry relative="1" as="geometry" />
        </mxCell>
        <mxCell id="NZz8lFGvhAFFfCNbKwrk-71" value="" style="endArrow=classic;html=1;rounded=0;exitX=1;exitY=0.5;exitDx=0;exitDy=0;entryX=0;entryY=0.5;entryDx=0;entryDy=0;" parent="1" source="NZz8lFGvhAFFfCNbKwrk-61" target="NZz8lFGvhAFFfCNbKwrk-62" edge="1">
          <mxGeometry width="50" height="50" relative="1" as="geometry">
            <mxPoint x="1197" y="1679" as="sourcePoint" />
            <mxPoint x="1247" y="1629" as="targetPoint" />
          </mxGeometry>
        </mxCell>
        <mxCell id="NZz8lFGvhAFFfCNbKwrk-72" value="" style="endArrow=classic;html=1;rounded=0;exitX=0.5;exitY=1;exitDx=0;exitDy=0;entryX=0.696;entryY=0.024;entryDx=0;entryDy=0;entryPerimeter=0;" parent="1" source="NZz8lFGvhAFFfCNbKwrk-62" target="HRkGqnotARpjoitVVcCS-198" edge="1">
          <mxGeometry width="50" height="50" relative="1" as="geometry">
            <mxPoint x="1264" y="1753" as="sourcePoint" />
            <mxPoint x="1314" y="1703" as="targetPoint" />
            <Array as="points">
              <mxPoint x="1220" y="1890" />
              <mxPoint x="990" y="1890" />
            </Array>
          </mxGeometry>
        </mxCell>
        <mxCell id="NZz8lFGvhAFFfCNbKwrk-73" value="&lt;span style=&quot;font-size: 14px;&quot;&gt;Вывод ошибки&lt;/span&gt;" style="rounded=1;whiteSpace=wrap;html=1;" parent="1" vertex="1">
          <mxGeometry x="813.5" y="1671" width="120" height="60" as="geometry" />
        </mxCell>
        <mxCell id="NZz8lFGvhAFFfCNbKwrk-76" value="" style="endArrow=classic;html=1;rounded=0;exitX=0.5;exitY=1;exitDx=0;exitDy=0;entryX=0.5;entryY=0;entryDx=0;entryDy=0;" parent="1" source="NZz8lFGvhAFFfCNbKwrk-47" target="NZz8lFGvhAFFfCNbKwrk-73" edge="1">
          <mxGeometry width="50" height="50" relative="1" as="geometry">
            <mxPoint x="1055" y="1741" as="sourcePoint" />
            <mxPoint x="1105" y="1691" as="targetPoint" />
          </mxGeometry>
        </mxCell>
        <mxCell id="NZz8lFGvhAFFfCNbKwrk-77" value="&lt;font style=&quot;font-size: 14px;&quot;&gt;Авторизация администратора&lt;/font&gt;" style="rounded=1;whiteSpace=wrap;html=1;" parent="1" vertex="1">
          <mxGeometry x="486" y="1611" width="120" height="60" as="geometry" />
        </mxCell>
        <mxCell id="NZz8lFGvhAFFfCNbKwrk-78" value="&lt;span style=&quot;font-size: 14px;&quot;&gt;Вывод ошибки&lt;/span&gt;" style="rounded=1;whiteSpace=wrap;html=1;" parent="1" vertex="1">
          <mxGeometry x="335" y="1611" width="120" height="60" as="geometry" />
        </mxCell>
        <mxCell id="NZz8lFGvhAFFfCNbKwrk-79" value="" style="endArrow=classic;html=1;rounded=0;exitX=0;exitY=0.75;exitDx=0;exitDy=0;entryX=1;entryY=0.75;entryDx=0;entryDy=0;" parent="1" source="NZz8lFGvhAFFfCNbKwrk-77" target="NZz8lFGvhAFFfCNbKwrk-78" edge="1">
          <mxGeometry width="50" height="50" relative="1" as="geometry">
            <mxPoint x="450" y="1733" as="sourcePoint" />
            <mxPoint x="500" y="1683" as="targetPoint" />
          </mxGeometry>
        </mxCell>
        <mxCell id="NZz8lFGvhAFFfCNbKwrk-80" value="" style="endArrow=classic;html=1;rounded=0;exitX=1;exitY=0.25;exitDx=0;exitDy=0;entryX=0;entryY=0.25;entryDx=0;entryDy=0;" parent="1" source="NZz8lFGvhAFFfCNbKwrk-78" target="NZz8lFGvhAFFfCNbKwrk-77" edge="1">
          <mxGeometry width="50" height="50" relative="1" as="geometry">
            <mxPoint x="460" y="1632" as="sourcePoint" />
            <mxPoint x="510" y="1582" as="targetPoint" />
          </mxGeometry>
        </mxCell>
        <mxCell id="NZz8lFGvhAFFfCNbKwrk-81" value="" style="endArrow=classic;html=1;rounded=0;exitX=0.5;exitY=1;exitDx=0;exitDy=0;entryX=0.5;entryY=0;entryDx=0;entryDy=0;" parent="1" source="HRkGqnotARpjoitVVcCS-57" target="NZz8lFGvhAFFfCNbKwrk-77" edge="1">
          <mxGeometry width="50" height="50" relative="1" as="geometry">
            <mxPoint x="523" y="1443" as="sourcePoint" />
            <mxPoint x="573" y="1393" as="targetPoint" />
          </mxGeometry>
        </mxCell>
        <mxCell id="NZz8lFGvhAFFfCNbKwrk-82" value="" style="endArrow=classic;html=1;rounded=0;exitX=1;exitY=0.5;exitDx=0;exitDy=0;entryX=0.5;entryY=0;entryDx=0;entryDy=0;" parent="1" source="NZz8lFGvhAFFfCNbKwrk-77" target="HRkGqnotARpjoitVVcCS-132" edge="1">
          <mxGeometry width="50" height="50" relative="1" as="geometry">
            <mxPoint x="702" y="1730" as="sourcePoint" />
            <mxPoint x="752" y="1680" as="targetPoint" />
            <Array as="points">
              <mxPoint x="772" y="1641" />
            </Array>
          </mxGeometry>
        </mxCell>
        <mxCell id="NZz8lFGvhAFFfCNbKwrk-83" value="" style="endArrow=classic;html=1;rounded=0;exitX=0.5;exitY=1;exitDx=0;exitDy=0;entryX=0.25;entryY=0;entryDx=0;entryDy=0;" parent="1" source="HRkGqnotARpjoitVVcCS-58" target="HRkGqnotARpjoitVVcCS-57" edge="1">
          <mxGeometry width="50" height="50" relative="1" as="geometry">
            <mxPoint x="529" y="1309" as="sourcePoint" />
            <mxPoint x="579" y="1259" as="targetPoint" />
          </mxGeometry>
        </mxCell>
        <mxCell id="NZz8lFGvhAFFfCNbKwrk-84" value="&lt;span style=&quot;font-size: 14px;&quot;&gt;Администратор&lt;/span&gt;" style="text;html=1;strokeColor=none;fillColor=none;align=center;verticalAlign=middle;whiteSpace=wrap;rounded=0;" parent="1" vertex="1">
          <mxGeometry x="455" y="1546" width="60" height="30" as="geometry" />
        </mxCell>
        <mxCell id="NZz8lFGvhAFFfCNbKwrk-85" value="" style="endArrow=classic;html=1;rounded=0;exitX=0.5;exitY=1;exitDx=0;exitDy=0;entryX=0.25;entryY=0;entryDx=0;entryDy=0;" parent="1" source="NZz8lFGvhAFFfCNbKwrk-84" edge="1">
          <mxGeometry width="50" height="50" relative="1" as="geometry">
            <mxPoint x="520" y="1627.5" as="sourcePoint" />
            <mxPoint x="506" y="1612.5" as="targetPoint" />
          </mxGeometry>
        </mxCell>
        <mxCell id="NZz8lFGvhAFFfCNbKwrk-86" style="edgeStyle=orthogonalEdgeStyle;rounded=0;orthogonalLoop=1;jettySize=auto;html=1;entryX=0.5;entryY=0;entryDx=0;entryDy=0;" parent="1" source="NZz8lFGvhAFFfCNbKwrk-87" edge="1">
          <mxGeometry relative="1" as="geometry">
            <mxPoint x="1024.5" y="1530" as="targetPoint" />
          </mxGeometry>
        </mxCell>
        <mxCell id="NZz8lFGvhAFFfCNbKwrk-87" value="&lt;font style=&quot;font-size: 14px;&quot;&gt;Список товаров&lt;/font&gt;" style="text;html=1;strokeColor=none;fillColor=none;align=center;verticalAlign=middle;whiteSpace=wrap;rounded=0;" parent="1" vertex="1">
          <mxGeometry x="983" y="1464" width="83" height="30" as="geometry" />
        </mxCell>
        <mxCell id="NZz8lFGvhAFFfCNbKwrk-88" style="edgeStyle=orthogonalEdgeStyle;rounded=0;orthogonalLoop=1;jettySize=auto;html=1;entryX=0.5;entryY=0;entryDx=0;entryDy=0;" parent="1" source="NZz8lFGvhAFFfCNbKwrk-89" edge="1">
          <mxGeometry relative="1" as="geometry">
            <mxPoint x="1198.42" y="1532" as="targetPoint" />
          </mxGeometry>
        </mxCell>
        <mxCell id="NZz8lFGvhAFFfCNbKwrk-89" value="&lt;span style=&quot;font-size: 14px;&quot;&gt;Готовый заказ&lt;/span&gt;" style="text;html=1;strokeColor=none;fillColor=none;align=center;verticalAlign=middle;whiteSpace=wrap;rounded=0;" parent="1" vertex="1">
          <mxGeometry x="1156.92" y="1466" width="83" height="30" as="geometry" />
        </mxCell>
        <mxCell id="NZz8lFGvhAFFfCNbKwrk-92" value="Клиент" style="shape=umlActor;verticalLabelPosition=bottom;verticalAlign=top;html=1;outlineConnect=0;" parent="1" vertex="1">
          <mxGeometry x="-3538" y="1614" width="30" height="60" as="geometry" />
        </mxCell>
        <mxCell id="NZz8lFGvhAFFfCNbKwrk-93" value="Интернет магазин" style="shape=umlActor;verticalLabelPosition=bottom;verticalAlign=top;html=1;outlineConnect=0;" parent="1" vertex="1">
          <mxGeometry x="-3056" y="1627" width="30" height="60" as="geometry" />
        </mxCell>
        <mxCell id="NZz8lFGvhAFFfCNbKwrk-96" value="Курьер" style="shape=umlActor;verticalLabelPosition=bottom;verticalAlign=top;html=1;outlineConnect=0;" parent="1" vertex="1">
          <mxGeometry x="-3313.5" y="1761" width="30" height="60" as="geometry" />
        </mxCell>
        <mxCell id="NZz8lFGvhAFFfCNbKwrk-97" value="Выбор товара" style="ellipse;whiteSpace=wrap;html=1;" parent="1" vertex="1">
          <mxGeometry x="-3343" y="1523" width="89" height="57" as="geometry" />
        </mxCell>
        <mxCell id="NZz8lFGvhAFFfCNbKwrk-98" value="Заказ товара" style="ellipse;whiteSpace=wrap;html=1;" parent="1" vertex="1">
          <mxGeometry x="-3343" y="1597" width="89" height="57" as="geometry" />
        </mxCell>
        <mxCell id="NZz8lFGvhAFFfCNbKwrk-100" value="Оплата товара" style="ellipse;whiteSpace=wrap;html=1;" parent="1" vertex="1">
          <mxGeometry x="-3343" y="1672.5" width="89" height="57" as="geometry" />
        </mxCell>
        <mxCell id="NZz8lFGvhAFFfCNbKwrk-102" value="Заполнение БД" style="ellipse;whiteSpace=wrap;html=1;" parent="1" vertex="1">
          <mxGeometry x="-2948" y="1459" width="89" height="57" as="geometry" />
        </mxCell>
        <mxCell id="NZz8lFGvhAFFfCNbKwrk-103" value="Каталог товаров" style="ellipse;whiteSpace=wrap;html=1;" parent="1" vertex="1">
          <mxGeometry x="-2948" y="1547" width="89" height="57" as="geometry" />
        </mxCell>
        <mxCell id="NZz8lFGvhAFFfCNbKwrk-104" value="Обработка информации" style="ellipse;whiteSpace=wrap;html=1;" parent="1" vertex="1">
          <mxGeometry x="-3097" y="1509" width="89" height="57" as="geometry" />
        </mxCell>
        <mxCell id="NZz8lFGvhAFFfCNbKwrk-105" value="Обработка заказа" style="ellipse;whiteSpace=wrap;html=1;" parent="1" vertex="1">
          <mxGeometry x="-2948" y="1626" width="89" height="57" as="geometry" />
        </mxCell>
        <mxCell id="NZz8lFGvhAFFfCNbKwrk-106" value="Выдача товара" style="ellipse;whiteSpace=wrap;html=1;" parent="1" vertex="1">
          <mxGeometry x="-3006" y="1762.5" width="89" height="57" as="geometry" />
        </mxCell>
        <mxCell id="NZz8lFGvhAFFfCNbKwrk-107" value="Доставка товара" style="ellipse;whiteSpace=wrap;html=1;" parent="1" vertex="1">
          <mxGeometry x="-3559" y="1764" width="89" height="57" as="geometry" />
        </mxCell>
        <mxCell id="NZz8lFGvhAFFfCNbKwrk-110" value="" style="endArrow=classic;html=1;rounded=0;exitX=0.5;exitY=0.5;exitDx=0;exitDy=0;exitPerimeter=0;entryX=0;entryY=0.5;entryDx=0;entryDy=0;" parent="1" source="NZz8lFGvhAFFfCNbKwrk-92" target="NZz8lFGvhAFFfCNbKwrk-97" edge="1">
          <mxGeometry width="50" height="50" relative="1" as="geometry">
            <mxPoint x="-3454" y="1679" as="sourcePoint" />
            <mxPoint x="-3404" y="1629" as="targetPoint" />
          </mxGeometry>
        </mxCell>
        <mxCell id="NZz8lFGvhAFFfCNbKwrk-111" value="" style="endArrow=classic;html=1;rounded=0;exitX=0.5;exitY=0.5;exitDx=0;exitDy=0;exitPerimeter=0;entryX=0;entryY=0.5;entryDx=0;entryDy=0;" parent="1" source="NZz8lFGvhAFFfCNbKwrk-92" target="NZz8lFGvhAFFfCNbKwrk-98" edge="1">
          <mxGeometry width="50" height="50" relative="1" as="geometry">
            <mxPoint x="-3408" y="1696" as="sourcePoint" />
            <mxPoint x="-3358" y="1646" as="targetPoint" />
          </mxGeometry>
        </mxCell>
        <mxCell id="NZz8lFGvhAFFfCNbKwrk-112" value="" style="endArrow=classic;html=1;rounded=0;exitX=0.5;exitY=0.5;exitDx=0;exitDy=0;exitPerimeter=0;entryX=0;entryY=0.5;entryDx=0;entryDy=0;" parent="1" source="NZz8lFGvhAFFfCNbKwrk-92" target="NZz8lFGvhAFFfCNbKwrk-100" edge="1">
          <mxGeometry width="50" height="50" relative="1" as="geometry">
            <mxPoint x="-3380" y="1748" as="sourcePoint" />
            <mxPoint x="-3330" y="1698" as="targetPoint" />
          </mxGeometry>
        </mxCell>
        <mxCell id="NZz8lFGvhAFFfCNbKwrk-113" value="" style="endArrow=classic;html=1;rounded=0;exitX=1;exitY=0.5;exitDx=0;exitDy=0;entryX=0.5;entryY=0.5;entryDx=0;entryDy=0;entryPerimeter=0;" parent="1" source="NZz8lFGvhAFFfCNbKwrk-97" target="NZz8lFGvhAFFfCNbKwrk-93" edge="1">
          <mxGeometry width="50" height="50" relative="1" as="geometry">
            <mxPoint x="-3156" y="1625" as="sourcePoint" />
            <mxPoint x="-3106" y="1575" as="targetPoint" />
          </mxGeometry>
        </mxCell>
        <mxCell id="NZz8lFGvhAFFfCNbKwrk-114" value="" style="endArrow=classic;html=1;rounded=0;exitX=1;exitY=0.5;exitDx=0;exitDy=0;entryX=0.5;entryY=0.5;entryDx=0;entryDy=0;entryPerimeter=0;" parent="1" source="NZz8lFGvhAFFfCNbKwrk-98" target="NZz8lFGvhAFFfCNbKwrk-93" edge="1">
          <mxGeometry width="50" height="50" relative="1" as="geometry">
            <mxPoint x="-3222" y="1714" as="sourcePoint" />
            <mxPoint x="-3172" y="1664" as="targetPoint" />
          </mxGeometry>
        </mxCell>
        <mxCell id="NZz8lFGvhAFFfCNbKwrk-115" value="" style="endArrow=classic;html=1;rounded=0;exitX=1;exitY=0.5;exitDx=0;exitDy=0;entryX=0.5;entryY=0.5;entryDx=0;entryDy=0;entryPerimeter=0;" parent="1" source="NZz8lFGvhAFFfCNbKwrk-100" target="NZz8lFGvhAFFfCNbKwrk-93" edge="1">
          <mxGeometry width="50" height="50" relative="1" as="geometry">
            <mxPoint x="-3216" y="1703" as="sourcePoint" />
            <mxPoint x="-3166" y="1653" as="targetPoint" />
          </mxGeometry>
        </mxCell>
        <mxCell id="NZz8lFGvhAFFfCNbKwrk-116" value="" style="endArrow=classic;html=1;rounded=0;exitX=0.5;exitY=0.5;exitDx=0;exitDy=0;exitPerimeter=0;entryX=0;entryY=0.5;entryDx=0;entryDy=0;" parent="1" source="NZz8lFGvhAFFfCNbKwrk-93" target="NZz8lFGvhAFFfCNbKwrk-102" edge="1">
          <mxGeometry width="50" height="50" relative="1" as="geometry">
            <mxPoint x="-3051" y="1599" as="sourcePoint" />
            <mxPoint x="-3001" y="1549" as="targetPoint" />
          </mxGeometry>
        </mxCell>
        <mxCell id="NZz8lFGvhAFFfCNbKwrk-117" value="" style="endArrow=classic;html=1;rounded=0;exitX=0.5;exitY=0.5;exitDx=0;exitDy=0;exitPerimeter=0;entryX=0;entryY=0.5;entryDx=0;entryDy=0;" parent="1" source="NZz8lFGvhAFFfCNbKwrk-93" target="NZz8lFGvhAFFfCNbKwrk-103" edge="1">
          <mxGeometry width="50" height="50" relative="1" as="geometry">
            <mxPoint x="-2993" y="1692" as="sourcePoint" />
            <mxPoint x="-2943" y="1642" as="targetPoint" />
          </mxGeometry>
        </mxCell>
        <mxCell id="NZz8lFGvhAFFfCNbKwrk-118" value="" style="endArrow=classic;html=1;rounded=0;entryX=0;entryY=0.5;entryDx=0;entryDy=0;" parent="1" target="NZz8lFGvhAFFfCNbKwrk-105" edge="1">
          <mxGeometry width="50" height="50" relative="1" as="geometry">
            <mxPoint x="-3042" y="1657" as="sourcePoint" />
            <mxPoint x="-2956" y="1703" as="targetPoint" />
          </mxGeometry>
        </mxCell>
        <mxCell id="NZz8lFGvhAFFfCNbKwrk-119" value="" style="endArrow=classic;html=1;rounded=0;exitX=0.5;exitY=0;exitDx=0;exitDy=0;exitPerimeter=0;" parent="1" source="NZz8lFGvhAFFfCNbKwrk-93" edge="1">
          <mxGeometry width="50" height="50" relative="1" as="geometry">
            <mxPoint x="-3046" y="1646" as="sourcePoint" />
            <mxPoint x="-3048" y="1568" as="targetPoint" />
          </mxGeometry>
        </mxCell>
        <mxCell id="NZz8lFGvhAFFfCNbKwrk-120" value="" style="endArrow=classic;html=1;rounded=0;exitX=0.5;exitY=0.5;exitDx=0;exitDy=0;exitPerimeter=0;entryX=0.5;entryY=0;entryDx=0;entryDy=0;" parent="1" source="NZz8lFGvhAFFfCNbKwrk-93" target="NZz8lFGvhAFFfCNbKwrk-106" edge="1">
          <mxGeometry width="50" height="50" relative="1" as="geometry">
            <mxPoint x="-3041" y="1708" as="sourcePoint" />
            <mxPoint x="-2909" y="1741" as="targetPoint" />
            <Array as="points">
              <mxPoint x="-2962" y="1698" />
            </Array>
          </mxGeometry>
        </mxCell>
        <mxCell id="NZz8lFGvhAFFfCNbKwrk-121" value="" style="endArrow=classic;html=1;rounded=0;entryX=0.5;entryY=0.5;entryDx=0;entryDy=0;entryPerimeter=0;exitX=0;exitY=0.5;exitDx=0;exitDy=0;" parent="1" source="NZz8lFGvhAFFfCNbKwrk-107" target="NZz8lFGvhAFFfCNbKwrk-92" edge="1">
          <mxGeometry width="50" height="50" relative="1" as="geometry">
            <mxPoint x="-3503" y="1760" as="sourcePoint" />
            <mxPoint x="-3453" y="1710" as="targetPoint" />
            <Array as="points">
              <mxPoint x="-3610" y="1793" />
              <mxPoint x="-3613" y="1644" />
            </Array>
          </mxGeometry>
        </mxCell>
        <mxCell id="NZz8lFGvhAFFfCNbKwrk-122" value="" style="endArrow=classic;html=1;rounded=0;exitX=0.5;exitY=0.5;exitDx=0;exitDy=0;exitPerimeter=0;entryX=1;entryY=0.5;entryDx=0;entryDy=0;" parent="1" source="NZz8lFGvhAFFfCNbKwrk-96" target="NZz8lFGvhAFFfCNbKwrk-107" edge="1">
          <mxGeometry width="50" height="50" relative="1" as="geometry">
            <mxPoint x="-3420" y="1832" as="sourcePoint" />
            <mxPoint x="-3370" y="1782" as="targetPoint" />
          </mxGeometry>
        </mxCell>
        <mxCell id="NZz8lFGvhAFFfCNbKwrk-123" value="" style="endArrow=classic;html=1;rounded=0;exitX=0;exitY=0.5;exitDx=0;exitDy=0;entryX=0.5;entryY=0.5;entryDx=0;entryDy=0;entryPerimeter=0;" parent="1" source="NZz8lFGvhAFFfCNbKwrk-106" target="NZz8lFGvhAFFfCNbKwrk-96" edge="1">
          <mxGeometry width="50" height="50" relative="1" as="geometry">
            <mxPoint x="-3191" y="1803" as="sourcePoint" />
            <mxPoint x="-3141" y="1753" as="targetPoint" />
          </mxGeometry>
        </mxCell>
        <mxCell id="NZz8lFGvhAFFfCNbKwrk-125" style="edgeStyle=orthogonalEdgeStyle;rounded=0;orthogonalLoop=1;jettySize=auto;html=1;entryX=0.5;entryY=0;entryDx=0;entryDy=0;" parent="1" source="NZz8lFGvhAFFfCNbKwrk-136" target="NZz8lFGvhAFFfCNbKwrk-171" edge="1">
          <mxGeometry relative="1" as="geometry">
            <mxPoint x="1837" y="1648" as="targetPoint" />
          </mxGeometry>
        </mxCell>
        <mxCell id="NZz8lFGvhAFFfCNbKwrk-126" style="edgeStyle=orthogonalEdgeStyle;rounded=0;orthogonalLoop=1;jettySize=auto;html=1;exitX=0.5;exitY=1;exitDx=0;exitDy=0;" parent="1" source="NZz8lFGvhAFFfCNbKwrk-127" target="NZz8lFGvhAFFfCNbKwrk-136" edge="1">
          <mxGeometry relative="1" as="geometry" />
        </mxCell>
        <mxCell id="NZz8lFGvhAFFfCNbKwrk-127" value="&lt;font style=&quot;font-size: 14px;&quot;&gt;Загрузка каталога&lt;/font&gt;" style="ellipse;whiteSpace=wrap;html=1;rounded=1;" parent="1" vertex="1">
          <mxGeometry x="1969" y="1447" width="90" height="90" as="geometry" />
        </mxCell>
        <mxCell id="NZz8lFGvhAFFfCNbKwrk-128" value="&lt;font style=&quot;font-size: 14px;&quot;&gt;Товары из БД&lt;/font&gt;" style="ellipse;whiteSpace=wrap;html=1;rounded=1;" parent="1" vertex="1">
          <mxGeometry x="1777" y="1781" width="90" height="90" as="geometry" />
        </mxCell>
        <mxCell id="NZz8lFGvhAFFfCNbKwrk-129" style="edgeStyle=orthogonalEdgeStyle;rounded=0;orthogonalLoop=1;jettySize=auto;html=1;entryX=0.5;entryY=0;entryDx=0;entryDy=0;" parent="1" source="NZz8lFGvhAFFfCNbKwrk-130" target="NZz8lFGvhAFFfCNbKwrk-127" edge="1">
          <mxGeometry relative="1" as="geometry" />
        </mxCell>
        <mxCell id="NZz8lFGvhAFFfCNbKwrk-130" value="&lt;font style=&quot;font-size: 14px;&quot;&gt;Переход на сайт&lt;/font&gt;" style="ellipse;whiteSpace=wrap;html=1;rounded=1;" parent="1" vertex="1">
          <mxGeometry x="1968" y="1322" width="90" height="90" as="geometry" />
        </mxCell>
        <mxCell id="NZz8lFGvhAFFfCNbKwrk-131" style="edgeStyle=orthogonalEdgeStyle;rounded=0;orthogonalLoop=1;jettySize=auto;html=1;exitX=0;exitY=0.5;exitDx=0;exitDy=0;entryX=0.583;entryY=0.992;entryDx=0;entryDy=0;entryPerimeter=0;" parent="1" source="NZz8lFGvhAFFfCNbKwrk-133" target="NZz8lFGvhAFFfCNbKwrk-136" edge="1">
          <mxGeometry relative="1" as="geometry">
            <Array as="points">
              <mxPoint x="2274" y="1763" />
              <mxPoint x="2174" y="1763" />
              <mxPoint x="2174" y="1719" />
              <mxPoint x="2039" y="1719" />
            </Array>
          </mxGeometry>
        </mxCell>
        <mxCell id="NZz8lFGvhAFFfCNbKwrk-132" style="edgeStyle=orthogonalEdgeStyle;rounded=0;orthogonalLoop=1;jettySize=auto;html=1;entryX=0.5;entryY=0;entryDx=0;entryDy=0;" parent="1" source="NZz8lFGvhAFFfCNbKwrk-133" target="NZz8lFGvhAFFfCNbKwrk-140" edge="1">
          <mxGeometry relative="1" as="geometry">
            <Array as="points">
              <mxPoint x="2319" y="1869" />
              <mxPoint x="2256" y="1869" />
            </Array>
          </mxGeometry>
        </mxCell>
        <mxCell id="NZz8lFGvhAFFfCNbKwrk-133" value="&lt;font style=&quot;font-size: 14px;&quot;&gt;Получение данных из БД&lt;/font&gt;" style="ellipse;whiteSpace=wrap;html=1;rounded=1;" parent="1" vertex="1">
          <mxGeometry x="2274" y="1747" width="90" height="90" as="geometry" />
        </mxCell>
        <mxCell id="NZz8lFGvhAFFfCNbKwrk-134" value="&lt;font style=&quot;font-size: 14px;&quot;&gt;Запрос на выборку данных&lt;/font&gt;" style="text;html=1;strokeColor=none;fillColor=none;align=center;verticalAlign=middle;whiteSpace=wrap;rounded=0;" parent="1" vertex="1">
          <mxGeometry x="2137" y="1648" width="115" height="30" as="geometry" />
        </mxCell>
        <mxCell id="NZz8lFGvhAFFfCNbKwrk-135" style="edgeStyle=orthogonalEdgeStyle;rounded=0;orthogonalLoop=1;jettySize=auto;html=1;exitX=1;exitY=0.75;exitDx=0;exitDy=0;" parent="1" source="NZz8lFGvhAFFfCNbKwrk-136" target="NZz8lFGvhAFFfCNbKwrk-133" edge="1">
          <mxGeometry relative="1" as="geometry">
            <Array as="points">
              <mxPoint x="2117" y="1643" />
              <mxPoint x="2117" y="1684" />
              <mxPoint x="2334" y="1684" />
            </Array>
          </mxGeometry>
        </mxCell>
        <mxCell id="NZz8lFGvhAFFfCNbKwrk-136" value="&lt;font style=&quot;font-size: 14px;&quot;&gt;Поиск товаров&lt;/font&gt;" style="ellipse;whiteSpace=wrap;html=1;rounded=1;" parent="1" vertex="1">
          <mxGeometry x="1969" y="1598" width="90" height="90" as="geometry" />
        </mxCell>
        <mxCell id="NZz8lFGvhAFFfCNbKwrk-137" value="&lt;font style=&quot;font-size: 14px;&quot;&gt;Данные из БД&lt;/font&gt;" style="text;html=1;strokeColor=none;fillColor=none;align=center;verticalAlign=middle;whiteSpace=wrap;rounded=0;" parent="1" vertex="1">
          <mxGeometry x="2059" y="1689" width="97" height="30" as="geometry" />
        </mxCell>
        <mxCell id="NZz8lFGvhAFFfCNbKwrk-138" style="edgeStyle=orthogonalEdgeStyle;rounded=0;orthogonalLoop=1;jettySize=auto;html=1;exitX=0;exitY=0.5;exitDx=0;exitDy=0;entryX=1;entryY=0.5;entryDx=0;entryDy=0;" parent="1" source="NZz8lFGvhAFFfCNbKwrk-140" target="NZz8lFGvhAFFfCNbKwrk-143" edge="1">
          <mxGeometry relative="1" as="geometry" />
        </mxCell>
        <mxCell id="NZz8lFGvhAFFfCNbKwrk-139" style="edgeStyle=orthogonalEdgeStyle;rounded=0;orthogonalLoop=1;jettySize=auto;html=1;entryX=1;entryY=0.5;entryDx=0;entryDy=0;exitX=1;exitY=0;exitDx=0;exitDy=0;" parent="1" source="NZz8lFGvhAFFfCNbKwrk-140" target="NZz8lFGvhAFFfCNbKwrk-133" edge="1">
          <mxGeometry relative="1" as="geometry">
            <mxPoint x="2398" y="1900" as="sourcePoint" />
            <Array as="points">
              <mxPoint x="2288" y="1883" />
              <mxPoint x="2442" y="1883" />
              <mxPoint x="2442" y="1792" />
            </Array>
          </mxGeometry>
        </mxCell>
        <mxCell id="NZz8lFGvhAFFfCNbKwrk-140" value="&lt;font style=&quot;font-size: 11px;&quot;&gt;Редактирование БД&lt;/font&gt;" style="ellipse;whiteSpace=wrap;html=1;rounded=1;fontSize=11;" parent="1" vertex="1">
          <mxGeometry x="2211" y="1944" width="90" height="90" as="geometry" />
        </mxCell>
        <mxCell id="NZz8lFGvhAFFfCNbKwrk-141" value="&lt;font style=&quot;font-size: 14px;&quot;&gt;Сообщение об успехе&lt;/font&gt;" style="text;html=1;strokeColor=none;fillColor=none;align=center;verticalAlign=middle;whiteSpace=wrap;rounded=0;" parent="1" vertex="1">
          <mxGeometry x="1810" y="2088" width="97" height="30" as="geometry" />
        </mxCell>
        <mxCell id="NZz8lFGvhAFFfCNbKwrk-142" style="edgeStyle=orthogonalEdgeStyle;rounded=0;orthogonalLoop=1;jettySize=auto;html=1;entryX=0.5;entryY=0;entryDx=0;entryDy=0;" parent="1" source="NZz8lFGvhAFFfCNbKwrk-143" target="NZz8lFGvhAFFfCNbKwrk-145" edge="1">
          <mxGeometry relative="1" as="geometry">
            <mxPoint x="1976" y="2056" as="targetPoint" />
          </mxGeometry>
        </mxCell>
        <mxCell id="NZz8lFGvhAFFfCNbKwrk-143" value="&lt;font style=&quot;font-size: 14px;&quot;&gt;Подключение к серверу&lt;/font&gt;" style="ellipse;whiteSpace=wrap;html=1;rounded=1;" parent="1" vertex="1">
          <mxGeometry x="1916" y="1945" width="90" height="90" as="geometry" />
        </mxCell>
        <mxCell id="NZz8lFGvhAFFfCNbKwrk-144" value="&lt;font style=&quot;font-size: 14px;&quot;&gt;Запрос на подключение к серверу&lt;/font&gt;" style="text;html=1;strokeColor=none;fillColor=none;align=center;verticalAlign=middle;whiteSpace=wrap;rounded=0;" parent="1" vertex="1">
          <mxGeometry x="2063" y="1901" width="113" height="30" as="geometry" />
        </mxCell>
        <mxCell id="NZz8lFGvhAFFfCNbKwrk-145" value="&lt;font style=&quot;font-size: 14px;&quot;&gt;Обновление данных на сайте&lt;br&gt;&lt;/font&gt;" style="ellipse;whiteSpace=wrap;html=1;rounded=1;" parent="1" vertex="1">
          <mxGeometry x="1916" y="2082" width="90" height="90" as="geometry" />
        </mxCell>
        <mxCell id="NZz8lFGvhAFFfCNbKwrk-146" value="&lt;font style=&quot;font-size: 14px;&quot;&gt;Измененные данные&lt;/font&gt;" style="text;html=1;strokeColor=none;fillColor=none;align=center;verticalAlign=middle;whiteSpace=wrap;rounded=0;" parent="1" vertex="1">
          <mxGeometry x="2009" y="1995" width="113" height="30" as="geometry" />
        </mxCell>
        <mxCell id="NZz8lFGvhAFFfCNbKwrk-147" value="&lt;font style=&quot;font-size: 30px;&quot;&gt;PERT&lt;/font&gt;" style="text;html=1;strokeColor=none;fillColor=none;align=center;verticalAlign=middle;whiteSpace=wrap;rounded=0;" parent="1" vertex="1">
          <mxGeometry x="1969" y="1235" width="128" height="78" as="geometry" />
        </mxCell>
        <mxCell id="NZz8lFGvhAFFfCNbKwrk-149" value="&lt;font style=&quot;font-size: 14px;&quot;&gt;Новые данные&lt;/font&gt;" style="text;html=1;strokeColor=none;fillColor=none;align=center;verticalAlign=middle;whiteSpace=wrap;rounded=0;" parent="1" vertex="1">
          <mxGeometry x="2331" y="1853" width="115" height="30" as="geometry" />
        </mxCell>
        <mxCell id="NZz8lFGvhAFFfCNbKwrk-150" value="&lt;font style=&quot;font-size: 14px;&quot;&gt;Авторизация администратора&lt;/font&gt;" style="ellipse;whiteSpace=wrap;html=1;rounded=1;" parent="1" vertex="1">
          <mxGeometry x="2313" y="1447" width="90" height="90" as="geometry" />
        </mxCell>
        <mxCell id="NZz8lFGvhAFFfCNbKwrk-151" value="" style="endArrow=classic;html=1;rounded=0;exitX=1;exitY=0.5;exitDx=0;exitDy=0;entryX=0.5;entryY=0;entryDx=0;entryDy=0;" parent="1" source="NZz8lFGvhAFFfCNbKwrk-130" target="NZz8lFGvhAFFfCNbKwrk-150" edge="1">
          <mxGeometry width="50" height="50" relative="1" as="geometry">
            <mxPoint x="2243" y="1413" as="sourcePoint" />
            <mxPoint x="2293" y="1363" as="targetPoint" />
            <Array as="points">
              <mxPoint x="2358" y="1367" />
            </Array>
          </mxGeometry>
        </mxCell>
        <mxCell id="NZz8lFGvhAFFfCNbKwrk-152" value="" style="endArrow=classic;html=1;rounded=0;entryX=1;entryY=0.5;entryDx=0;entryDy=0;exitX=0.5;exitY=1;exitDx=0;exitDy=0;" parent="1" source="NZz8lFGvhAFFfCNbKwrk-150" target="NZz8lFGvhAFFfCNbKwrk-140" edge="1">
          <mxGeometry width="50" height="50" relative="1" as="geometry">
            <mxPoint x="2462" y="2006" as="sourcePoint" />
            <mxPoint x="2512" y="1956" as="targetPoint" />
            <Array as="points">
              <mxPoint x="2358" y="1694" />
              <mxPoint x="2519" y="1694" />
              <mxPoint x="2519" y="1986" />
            </Array>
          </mxGeometry>
        </mxCell>
        <mxCell id="NZz8lFGvhAFFfCNbKwrk-153" value="" style="endArrow=classic;html=1;rounded=0;exitX=0;exitY=0.5;exitDx=0;exitDy=0;entryX=1;entryY=0.5;entryDx=0;entryDy=0;" parent="1" source="NZz8lFGvhAFFfCNbKwrk-133" target="NZz8lFGvhAFFfCNbKwrk-128" edge="1">
          <mxGeometry width="50" height="50" relative="1" as="geometry">
            <mxPoint x="2038" y="1842" as="sourcePoint" />
            <mxPoint x="2088" y="1792" as="targetPoint" />
            <Array as="points">
              <mxPoint x="2067" y="1792" />
              <mxPoint x="2067" y="1826" />
            </Array>
          </mxGeometry>
        </mxCell>
        <mxCell id="NZz8lFGvhAFFfCNbKwrk-154" value="&lt;font style=&quot;font-size: 14px;&quot;&gt;Переход по вкладкам&lt;/font&gt;" style="ellipse;whiteSpace=wrap;html=1;rounded=1;" parent="1" vertex="1">
          <mxGeometry x="1590" y="1542" width="90" height="90" as="geometry" />
        </mxCell>
        <mxCell id="NZz8lFGvhAFFfCNbKwrk-155" value="&lt;font style=&quot;font-size: 14px;&quot;&gt;Выбор товара&lt;/font&gt;" style="ellipse;whiteSpace=wrap;html=1;rounded=1;" parent="1" vertex="1">
          <mxGeometry x="1590" y="1670" width="90" height="90" as="geometry" />
        </mxCell>
        <mxCell id="NZz8lFGvhAFFfCNbKwrk-156" value="&lt;font style=&quot;font-size: 14px;&quot;&gt;Оформление заказа&lt;/font&gt;" style="ellipse;whiteSpace=wrap;html=1;rounded=1;" parent="1" vertex="1">
          <mxGeometry x="1590" y="1804" width="90" height="90" as="geometry" />
        </mxCell>
        <mxCell id="NZz8lFGvhAFFfCNbKwrk-157" value="&lt;font style=&quot;font-size: 14px;&quot;&gt;Запись данных в БД&lt;/font&gt;" style="ellipse;whiteSpace=wrap;html=1;rounded=1;" parent="1" vertex="1">
          <mxGeometry x="1590" y="1925" width="90" height="90" as="geometry" />
        </mxCell>
        <mxCell id="NZz8lFGvhAFFfCNbKwrk-158" value="" style="endArrow=classic;html=1;rounded=0;entryX=0;entryY=0.5;entryDx=0;entryDy=0;exitX=1;exitY=0.75;exitDx=0;exitDy=0;" parent="1" source="NZz8lFGvhAFFfCNbKwrk-157" target="NZz8lFGvhAFFfCNbKwrk-143" edge="1">
          <mxGeometry width="50" height="50" relative="1" as="geometry">
            <mxPoint x="1742" y="2097" as="sourcePoint" />
            <mxPoint x="1792" y="2047" as="targetPoint" />
          </mxGeometry>
        </mxCell>
        <mxCell id="NZz8lFGvhAFFfCNbKwrk-159" value="" style="endArrow=classic;html=1;rounded=0;exitX=0;exitY=0.5;exitDx=0;exitDy=0;entryX=0;entryY=0.5;entryDx=0;entryDy=0;" parent="1" source="NZz8lFGvhAFFfCNbKwrk-145" target="NZz8lFGvhAFFfCNbKwrk-127" edge="1">
          <mxGeometry width="50" height="50" relative="1" as="geometry">
            <mxPoint x="1778" y="2082" as="sourcePoint" />
            <mxPoint x="1734" y="2141" as="targetPoint" />
            <Array as="points">
              <mxPoint x="1540" y="2130" />
              <mxPoint x="1540" y="1492" />
            </Array>
          </mxGeometry>
        </mxCell>
        <mxCell id="NZz8lFGvhAFFfCNbKwrk-160" value="" style="endArrow=classic;html=1;rounded=0;exitX=0;exitY=0.75;exitDx=0;exitDy=0;entryX=0.5;entryY=0;entryDx=0;entryDy=0;" parent="1" source="NZz8lFGvhAFFfCNbKwrk-127" target="NZz8lFGvhAFFfCNbKwrk-154" edge="1">
          <mxGeometry width="50" height="50" relative="1" as="geometry">
            <mxPoint x="1948" y="1583" as="sourcePoint" />
            <mxPoint x="1998" y="1533" as="targetPoint" />
            <Array as="points">
              <mxPoint x="1635" y="1512" />
            </Array>
          </mxGeometry>
        </mxCell>
        <mxCell id="NZz8lFGvhAFFfCNbKwrk-161" value="" style="endArrow=classic;html=1;rounded=0;exitX=0.5;exitY=1;exitDx=0;exitDy=0;entryX=0.5;entryY=0;entryDx=0;entryDy=0;" parent="1" source="NZz8lFGvhAFFfCNbKwrk-154" target="NZz8lFGvhAFFfCNbKwrk-155" edge="1">
          <mxGeometry width="50" height="50" relative="1" as="geometry">
            <mxPoint x="1632" y="1683" as="sourcePoint" />
            <mxPoint x="1682" y="1633" as="targetPoint" />
          </mxGeometry>
        </mxCell>
        <mxCell id="NZz8lFGvhAFFfCNbKwrk-162" value="" style="endArrow=classic;html=1;rounded=0;exitX=0.5;exitY=1;exitDx=0;exitDy=0;entryX=0.5;entryY=0;entryDx=0;entryDy=0;" parent="1" source="NZz8lFGvhAFFfCNbKwrk-155" target="NZz8lFGvhAFFfCNbKwrk-156" edge="1">
          <mxGeometry width="50" height="50" relative="1" as="geometry">
            <mxPoint x="1648" y="1813" as="sourcePoint" />
            <mxPoint x="1698" y="1763" as="targetPoint" />
          </mxGeometry>
        </mxCell>
        <mxCell id="NZz8lFGvhAFFfCNbKwrk-163" value="" style="endArrow=classic;html=1;rounded=0;exitX=0.5;exitY=1;exitDx=0;exitDy=0;entryX=0.5;entryY=0;entryDx=0;entryDy=0;" parent="1" source="NZz8lFGvhAFFfCNbKwrk-156" target="NZz8lFGvhAFFfCNbKwrk-157" edge="1">
          <mxGeometry width="50" height="50" relative="1" as="geometry">
            <mxPoint x="1740" y="1814" as="sourcePoint" />
            <mxPoint x="1790" y="1764" as="targetPoint" />
          </mxGeometry>
        </mxCell>
        <mxCell id="NZz8lFGvhAFFfCNbKwrk-164" value="&lt;font style=&quot;font-size: 14px;&quot;&gt;Запрос на подключение к серверу&lt;/font&gt;" style="text;html=1;strokeColor=none;fillColor=none;align=center;verticalAlign=middle;whiteSpace=wrap;rounded=0;" parent="1" vertex="1">
          <mxGeometry x="1697" y="1927" width="113" height="30" as="geometry" />
        </mxCell>
        <mxCell id="NZz8lFGvhAFFfCNbKwrk-165" value="&lt;font style=&quot;font-size: 14px;&quot;&gt;Сообщение об успехе&lt;/font&gt;" style="text;html=1;strokeColor=none;fillColor=none;align=center;verticalAlign=middle;whiteSpace=wrap;rounded=0;" parent="1" vertex="1">
          <mxGeometry x="2390" y="1656" width="97" height="30" as="geometry" />
        </mxCell>
        <mxCell id="NZz8lFGvhAFFfCNbKwrk-166" value="&lt;font style=&quot;font-size: 14px;&quot;&gt;Данные из БД&lt;/font&gt;" style="text;html=1;strokeColor=none;fillColor=none;align=center;verticalAlign=middle;whiteSpace=wrap;rounded=0;" parent="1" vertex="1">
          <mxGeometry x="1920" y="1789.5" width="97" height="30" as="geometry" />
        </mxCell>
        <mxCell id="NZz8lFGvhAFFfCNbKwrk-167" value="" style="endArrow=classic;html=1;rounded=0;exitX=0;exitY=0.5;exitDx=0;exitDy=0;entryX=1;entryY=0.5;entryDx=0;entryDy=0;" parent="1" source="NZz8lFGvhAFFfCNbKwrk-128" target="NZz8lFGvhAFFfCNbKwrk-156" edge="1">
          <mxGeometry width="50" height="50" relative="1" as="geometry">
            <mxPoint x="1733" y="1789" as="sourcePoint" />
            <mxPoint x="1707" y="1814" as="targetPoint" />
            <Array as="points">
              <mxPoint x="1730" y="1826" />
              <mxPoint x="1730" y="1849" />
            </Array>
          </mxGeometry>
        </mxCell>
        <mxCell id="NZz8lFGvhAFFfCNbKwrk-168" value="&lt;font style=&quot;font-size: 14px;&quot;&gt;Сообщение об ошибке&lt;/font&gt;" style="ellipse;whiteSpace=wrap;html=1;rounded=1;" parent="1" vertex="1">
          <mxGeometry x="2159" y="1447" width="90" height="90" as="geometry" />
        </mxCell>
        <mxCell id="NZz8lFGvhAFFfCNbKwrk-169" value="" style="endArrow=classic;html=1;rounded=0;exitX=0;exitY=0.75;exitDx=0;exitDy=0;entryX=1;entryY=0.75;entryDx=0;entryDy=0;" parent="1" source="NZz8lFGvhAFFfCNbKwrk-150" target="NZz8lFGvhAFFfCNbKwrk-168" edge="1">
          <mxGeometry width="50" height="50" relative="1" as="geometry">
            <mxPoint x="2289" y="1590" as="sourcePoint" />
            <mxPoint x="2339" y="1540" as="targetPoint" />
          </mxGeometry>
        </mxCell>
        <mxCell id="NZz8lFGvhAFFfCNbKwrk-170" value="" style="endArrow=classic;html=1;rounded=0;exitX=1;exitY=0.25;exitDx=0;exitDy=0;entryX=0;entryY=0.25;entryDx=0;entryDy=0;" parent="1" source="NZz8lFGvhAFFfCNbKwrk-168" target="NZz8lFGvhAFFfCNbKwrk-150" edge="1">
          <mxGeometry width="50" height="50" relative="1" as="geometry">
            <mxPoint x="2286" y="1456" as="sourcePoint" />
            <mxPoint x="2336" y="1406" as="targetPoint" />
          </mxGeometry>
        </mxCell>
        <mxCell id="NZz8lFGvhAFFfCNbKwrk-171" value="&lt;font style=&quot;font-size: 14px;&quot;&gt;Выбор товара&lt;/font&gt;" style="ellipse;whiteSpace=wrap;html=1;rounded=1;" parent="1" vertex="1">
          <mxGeometry x="1777" y="1665" width="90" height="90" as="geometry" />
        </mxCell>
        <mxCell id="NZz8lFGvhAFFfCNbKwrk-172" value="" style="endArrow=classic;html=1;rounded=0;exitX=0.5;exitY=1;exitDx=0;exitDy=0;entryX=0.5;entryY=0;entryDx=0;entryDy=0;" parent="1" source="NZz8lFGvhAFFfCNbKwrk-171" target="NZz8lFGvhAFFfCNbKwrk-128" edge="1">
          <mxGeometry width="50" height="50" relative="1" as="geometry">
            <mxPoint x="1875" y="1776" as="sourcePoint" />
            <mxPoint x="1925" y="1726" as="targetPoint" />
          </mxGeometry>
        </mxCell>
        <mxCell id="NZz8lFGvhAFFfCNbKwrk-148" value="&lt;font style=&quot;font-size: 14px;&quot;&gt;Данные из БД&lt;/font&gt;" style="text;html=1;strokeColor=none;fillColor=none;align=center;verticalAlign=middle;whiteSpace=wrap;rounded=0;" parent="1" vertex="1">
          <mxGeometry x="2211" y="1839" width="97" height="30" as="geometry" />
        </mxCell>
        <mxCell id="NZz8lFGvhAFFfCNbKwrk-182" value="&lt;font style=&quot;font-size: 14px;&quot;&gt;Загрузка каталога&lt;/font&gt;" style="ellipse;whiteSpace=wrap;html=1;rounded=1;" parent="1" vertex="1">
          <mxGeometry x="3939" y="1521" width="90" height="90" as="geometry" />
        </mxCell>
        <mxCell id="NZz8lFGvhAFFfCNbKwrk-183" value="&lt;font style=&quot;font-size: 14px;&quot;&gt;Товары из БД&lt;/font&gt;" style="ellipse;whiteSpace=wrap;html=1;rounded=1;" parent="1" vertex="1">
          <mxGeometry x="4455" y="1380" width="90" height="90" as="geometry" />
        </mxCell>
        <mxCell id="NZz8lFGvhAFFfCNbKwrk-185" value="&lt;font style=&quot;font-size: 14px;&quot;&gt;Переход на сайт&lt;/font&gt;" style="ellipse;whiteSpace=wrap;html=1;rounded=1;" parent="1" vertex="1">
          <mxGeometry x="3756" y="1523" width="90" height="90" as="geometry" />
        </mxCell>
        <mxCell id="NZz8lFGvhAFFfCNbKwrk-188" value="&lt;font style=&quot;font-size: 14px;&quot;&gt;Получение данных из БД&lt;/font&gt;" style="ellipse;whiteSpace=wrap;html=1;rounded=1;" parent="1" vertex="1">
          <mxGeometry x="4294" y="1520" width="90" height="90" as="geometry" />
        </mxCell>
        <mxCell id="NZz8lFGvhAFFfCNbKwrk-191" value="&lt;font style=&quot;font-size: 14px;&quot;&gt;Поиск товаров&lt;/font&gt;" style="ellipse;whiteSpace=wrap;html=1;rounded=1;" parent="1" vertex="1">
          <mxGeometry x="4122" y="1521" width="90" height="90" as="geometry" />
        </mxCell>
        <mxCell id="NZz8lFGvhAFFfCNbKwrk-195" value="&lt;font style=&quot;font-size: 11px;&quot;&gt;Редактирование БД&lt;/font&gt;" style="ellipse;whiteSpace=wrap;html=1;rounded=1;fontSize=11;" parent="1" vertex="1">
          <mxGeometry x="4473" y="1654" width="90" height="90" as="geometry" />
        </mxCell>
        <mxCell id="NZz8lFGvhAFFfCNbKwrk-198" value="&lt;font style=&quot;font-size: 14px;&quot;&gt;Подключение к серверу&lt;/font&gt;" style="ellipse;whiteSpace=wrap;html=1;rounded=1;" parent="1" vertex="1">
          <mxGeometry x="4658" y="1653" width="90" height="90" as="geometry" />
        </mxCell>
        <mxCell id="NZz8lFGvhAFFfCNbKwrk-200" value="&lt;font style=&quot;font-size: 14px;&quot;&gt;Обновление данных на сайте&lt;br&gt;&lt;/font&gt;" style="ellipse;whiteSpace=wrap;html=1;rounded=1;" parent="1" vertex="1">
          <mxGeometry x="4843" y="1647" width="90" height="90" as="geometry" />
        </mxCell>
        <mxCell id="NZz8lFGvhAFFfCNbKwrk-202" value="&lt;font style=&quot;font-size: 30px;&quot;&gt;Сети петри&lt;br&gt;&lt;/font&gt;" style="text;html=1;strokeColor=none;fillColor=none;align=center;verticalAlign=middle;whiteSpace=wrap;rounded=0;" parent="1" vertex="1">
          <mxGeometry x="4365" y="916" width="128" height="78" as="geometry" />
        </mxCell>
        <mxCell id="NZz8lFGvhAFFfCNbKwrk-204" value="&lt;font style=&quot;font-size: 11px;&quot;&gt;Авторизация администратора&lt;/font&gt;" style="ellipse;whiteSpace=wrap;html=1;rounded=1;fontSize=11;" parent="1" vertex="1">
          <mxGeometry x="3917" y="1686" width="90" height="90" as="geometry" />
        </mxCell>
        <mxCell id="NZz8lFGvhAFFfCNbKwrk-208" value="&lt;font style=&quot;font-size: 14px;&quot;&gt;Переход по вкладкам&lt;/font&gt;" style="ellipse;whiteSpace=wrap;html=1;rounded=1;" parent="1" vertex="1">
          <mxGeometry x="4062" y="1215" width="90" height="90" as="geometry" />
        </mxCell>
        <mxCell id="NZz8lFGvhAFFfCNbKwrk-209" value="&lt;font style=&quot;font-size: 14px;&quot;&gt;Выбор товара&lt;/font&gt;" style="ellipse;whiteSpace=wrap;html=1;rounded=1;" parent="1" vertex="1">
          <mxGeometry x="4218" y="1215" width="90" height="90" as="geometry" />
        </mxCell>
        <mxCell id="NZz8lFGvhAFFfCNbKwrk-210" value="&lt;font style=&quot;font-size: 14px;&quot;&gt;Оформление заказа&lt;/font&gt;" style="ellipse;whiteSpace=wrap;html=1;rounded=1;" parent="1" vertex="1">
          <mxGeometry x="4365" y="1215" width="90" height="90" as="geometry" />
        </mxCell>
        <mxCell id="NZz8lFGvhAFFfCNbKwrk-211" value="&lt;font style=&quot;font-size: 14px;&quot;&gt;Запись данных в БД&lt;/font&gt;" style="ellipse;whiteSpace=wrap;html=1;rounded=1;" parent="1" vertex="1">
          <mxGeometry x="4531" y="1215" width="90" height="90" as="geometry" />
        </mxCell>
        <mxCell id="NZz8lFGvhAFFfCNbKwrk-222" value="&lt;font style=&quot;font-size: 14px;&quot;&gt;Сообщение об ошибке&lt;/font&gt;" style="ellipse;whiteSpace=wrap;html=1;rounded=1;" parent="1" vertex="1">
          <mxGeometry x="4097" y="1687" width="90" height="90" as="geometry" />
        </mxCell>
        <mxCell id="NZz8lFGvhAFFfCNbKwrk-225" value="&lt;font style=&quot;font-size: 14px;&quot;&gt;Выбор товара&lt;/font&gt;" style="ellipse;whiteSpace=wrap;html=1;rounded=1;" parent="1" vertex="1">
          <mxGeometry x="4294" y="1380" width="90" height="90" as="geometry" />
        </mxCell>
        <mxCell id="NZz8lFGvhAFFfCNbKwrk-240" value="" style="endArrow=classic;html=1;rounded=0;exitX=0.5;exitY=1;exitDx=0;exitDy=0;entryX=0;entryY=0.5;entryDx=0;entryDy=0;" parent="1" source="NZz8lFGvhAFFfCNbKwrk-185" target="NZz8lFGvhAFFfCNbKwrk-204" edge="1">
          <mxGeometry width="50" height="50" relative="1" as="geometry">
            <mxPoint x="3753" y="1747" as="sourcePoint" />
            <mxPoint x="3803" y="1697" as="targetPoint" />
            <Array as="points">
              <mxPoint x="3801" y="1731" />
            </Array>
          </mxGeometry>
        </mxCell>
        <mxCell id="NZz8lFGvhAFFfCNbKwrk-241" value="" style="endArrow=classic;html=1;rounded=0;exitX=1;exitY=0;exitDx=0;exitDy=0;entryX=0;entryY=0;entryDx=0;entryDy=0;" parent="1" source="NZz8lFGvhAFFfCNbKwrk-204" target="NZz8lFGvhAFFfCNbKwrk-222" edge="1">
          <mxGeometry width="50" height="50" relative="1" as="geometry">
            <mxPoint x="4079" y="1857" as="sourcePoint" />
            <mxPoint x="4129" y="1807" as="targetPoint" />
          </mxGeometry>
        </mxCell>
        <mxCell id="NZz8lFGvhAFFfCNbKwrk-242" value="" style="endArrow=classic;html=1;rounded=0;exitX=0;exitY=1;exitDx=0;exitDy=0;entryX=1;entryY=1;entryDx=0;entryDy=0;" parent="1" source="NZz8lFGvhAFFfCNbKwrk-222" target="NZz8lFGvhAFFfCNbKwrk-204" edge="1">
          <mxGeometry width="50" height="50" relative="1" as="geometry">
            <mxPoint x="3841" y="1831" as="sourcePoint" />
            <mxPoint x="4098" y="1823" as="targetPoint" />
          </mxGeometry>
        </mxCell>
        <mxCell id="NZz8lFGvhAFFfCNbKwrk-243" value="" style="endArrow=classic;html=1;rounded=0;exitX=1;exitY=0.5;exitDx=0;exitDy=0;entryX=0;entryY=0.5;entryDx=0;entryDy=0;" parent="1" source="NZz8lFGvhAFFfCNbKwrk-185" target="NZz8lFGvhAFFfCNbKwrk-182" edge="1">
          <mxGeometry width="50" height="50" relative="1" as="geometry">
            <mxPoint x="3903" y="1549" as="sourcePoint" />
            <mxPoint x="3953" y="1499" as="targetPoint" />
          </mxGeometry>
        </mxCell>
        <mxCell id="NZz8lFGvhAFFfCNbKwrk-244" value="" style="endArrow=classic;html=1;rounded=0;exitX=1;exitY=0.5;exitDx=0;exitDy=0;entryX=0;entryY=0.5;entryDx=0;entryDy=0;" parent="1" source="NZz8lFGvhAFFfCNbKwrk-182" target="NZz8lFGvhAFFfCNbKwrk-191" edge="1">
          <mxGeometry width="50" height="50" relative="1" as="geometry">
            <mxPoint x="4081" y="1541" as="sourcePoint" />
            <mxPoint x="4131" y="1491" as="targetPoint" />
          </mxGeometry>
        </mxCell>
        <mxCell id="NZz8lFGvhAFFfCNbKwrk-245" value="" style="endArrow=classic;html=1;rounded=0;exitX=0.5;exitY=0;exitDx=0;exitDy=0;entryX=0;entryY=0.5;entryDx=0;entryDy=0;" parent="1" source="NZz8lFGvhAFFfCNbKwrk-182" target="NZz8lFGvhAFFfCNbKwrk-208" edge="1">
          <mxGeometry width="50" height="50" relative="1" as="geometry">
            <mxPoint x="3963" y="1425" as="sourcePoint" />
            <mxPoint x="4013" y="1375" as="targetPoint" />
            <Array as="points">
              <mxPoint x="3984" y="1260" />
            </Array>
          </mxGeometry>
        </mxCell>
        <mxCell id="NZz8lFGvhAFFfCNbKwrk-246" value="" style="endArrow=classic;html=1;rounded=0;exitX=1;exitY=0.5;exitDx=0;exitDy=0;entryX=0;entryY=0.5;entryDx=0;entryDy=0;" parent="1" source="NZz8lFGvhAFFfCNbKwrk-208" target="NZz8lFGvhAFFfCNbKwrk-209" edge="1">
          <mxGeometry width="50" height="50" relative="1" as="geometry">
            <mxPoint x="4178" y="1370" as="sourcePoint" />
            <mxPoint x="4228" y="1320" as="targetPoint" />
          </mxGeometry>
        </mxCell>
        <mxCell id="NZz8lFGvhAFFfCNbKwrk-247" value="" style="endArrow=classic;html=1;rounded=0;exitX=1;exitY=0.5;exitDx=0;exitDy=0;entryX=0;entryY=0.5;entryDx=0;entryDy=0;" parent="1" source="NZz8lFGvhAFFfCNbKwrk-209" target="NZz8lFGvhAFFfCNbKwrk-210" edge="1">
          <mxGeometry width="50" height="50" relative="1" as="geometry">
            <mxPoint x="4322" y="1352" as="sourcePoint" />
            <mxPoint x="4372" y="1302" as="targetPoint" />
          </mxGeometry>
        </mxCell>
        <mxCell id="NZz8lFGvhAFFfCNbKwrk-248" value="" style="endArrow=classic;html=1;rounded=0;exitX=1;exitY=0.5;exitDx=0;exitDy=0;entryX=0;entryY=0.5;entryDx=0;entryDy=0;" parent="1" source="NZz8lFGvhAFFfCNbKwrk-210" target="NZz8lFGvhAFFfCNbKwrk-211" edge="1">
          <mxGeometry width="50" height="50" relative="1" as="geometry">
            <mxPoint x="4475" y="1358" as="sourcePoint" />
            <mxPoint x="4522" y="1308" as="targetPoint" />
          </mxGeometry>
        </mxCell>
        <mxCell id="NZz8lFGvhAFFfCNbKwrk-249" value="" style="endArrow=classic;html=1;rounded=0;exitX=0.5;exitY=0;exitDx=0;exitDy=0;entryX=0;entryY=0.5;entryDx=0;entryDy=0;" parent="1" source="NZz8lFGvhAFFfCNbKwrk-191" target="NZz8lFGvhAFFfCNbKwrk-225" edge="1">
          <mxGeometry width="50" height="50" relative="1" as="geometry">
            <mxPoint x="4161" y="1504" as="sourcePoint" />
            <mxPoint x="4211" y="1454" as="targetPoint" />
            <Array as="points">
              <mxPoint x="4167" y="1425" />
            </Array>
          </mxGeometry>
        </mxCell>
        <mxCell id="NZz8lFGvhAFFfCNbKwrk-250" value="" style="endArrow=classic;html=1;rounded=0;exitX=1;exitY=0.5;exitDx=0;exitDy=0;entryX=0;entryY=0.5;entryDx=0;entryDy=0;" parent="1" source="NZz8lFGvhAFFfCNbKwrk-225" target="NZz8lFGvhAFFfCNbKwrk-183" edge="1">
          <mxGeometry width="50" height="50" relative="1" as="geometry">
            <mxPoint x="4407" y="1528" as="sourcePoint" />
            <mxPoint x="4457" y="1478" as="targetPoint" />
          </mxGeometry>
        </mxCell>
        <mxCell id="NZz8lFGvhAFFfCNbKwrk-251" value="" style="endArrow=classic;html=1;rounded=0;exitX=0.5;exitY=0;exitDx=0;exitDy=0;entryX=0.5;entryY=1;entryDx=0;entryDy=0;" parent="1" source="NZz8lFGvhAFFfCNbKwrk-183" target="NZz8lFGvhAFFfCNbKwrk-210" edge="1">
          <mxGeometry width="50" height="50" relative="1" as="geometry">
            <mxPoint x="4495" y="1381" as="sourcePoint" />
            <mxPoint x="4545" y="1331" as="targetPoint" />
            <Array as="points">
              <mxPoint x="4500" y="1350" />
              <mxPoint x="4410" y="1350" />
            </Array>
          </mxGeometry>
        </mxCell>
        <mxCell id="NZz8lFGvhAFFfCNbKwrk-252" value="" style="endArrow=classic;html=1;rounded=0;exitX=1;exitY=0.5;exitDx=0;exitDy=0;entryX=0.5;entryY=0;entryDx=0;entryDy=0;" parent="1" source="NZz8lFGvhAFFfCNbKwrk-211" target="NZz8lFGvhAFFfCNbKwrk-198" edge="1">
          <mxGeometry relative="1" as="geometry">
            <mxPoint x="4659" y="1272" as="sourcePoint" />
            <mxPoint x="4831" y="1320" as="targetPoint" />
            <Array as="points">
              <mxPoint x="4700" y="1260" />
            </Array>
          </mxGeometry>
        </mxCell>
        <mxCell id="NZz8lFGvhAFFfCNbKwrk-254" value="" style="endArrow=classic;html=1;rounded=0;exitX=1;exitY=0.5;exitDx=0;exitDy=0;entryX=0;entryY=0.5;entryDx=0;entryDy=0;" parent="1" source="NZz8lFGvhAFFfCNbKwrk-195" target="NZz8lFGvhAFFfCNbKwrk-198" edge="1">
          <mxGeometry width="50" height="50" relative="1" as="geometry">
            <mxPoint x="4607" y="1731" as="sourcePoint" />
            <mxPoint x="4657" y="1681" as="targetPoint" />
          </mxGeometry>
        </mxCell>
        <mxCell id="NZz8lFGvhAFFfCNbKwrk-257" value="" style="endArrow=classic;html=1;rounded=0;exitX=1;exitY=0;exitDx=0;exitDy=0;entryX=0;entryY=0;entryDx=0;entryDy=0;" parent="1" source="NZz8lFGvhAFFfCNbKwrk-191" target="NZz8lFGvhAFFfCNbKwrk-188" edge="1">
          <mxGeometry width="50" height="50" relative="1" as="geometry">
            <mxPoint x="4227" y="1639" as="sourcePoint" />
            <mxPoint x="4277" y="1589" as="targetPoint" />
          </mxGeometry>
        </mxCell>
        <mxCell id="NZz8lFGvhAFFfCNbKwrk-258" value="" style="endArrow=classic;html=1;rounded=0;exitX=0;exitY=1;exitDx=0;exitDy=0;entryX=1;entryY=1;entryDx=0;entryDy=0;" parent="1" source="NZz8lFGvhAFFfCNbKwrk-188" target="NZz8lFGvhAFFfCNbKwrk-191" edge="1">
          <mxGeometry width="50" height="50" relative="1" as="geometry">
            <mxPoint x="4240" y="1703" as="sourcePoint" />
            <mxPoint x="4251" y="1658" as="targetPoint" />
          </mxGeometry>
        </mxCell>
        <mxCell id="NZz8lFGvhAFFfCNbKwrk-259" value="" style="endArrow=classic;html=1;rounded=0;exitX=1;exitY=0;exitDx=0;exitDy=0;entryX=0.5;entryY=1;entryDx=0;entryDy=0;" parent="1" source="NZz8lFGvhAFFfCNbKwrk-188" target="NZz8lFGvhAFFfCNbKwrk-183" edge="1">
          <mxGeometry width="50" height="50" relative="1" as="geometry">
            <mxPoint x="4420" y="1603" as="sourcePoint" />
            <mxPoint x="4470" y="1553" as="targetPoint" />
            <Array as="points">
              <mxPoint x="4500" y="1533" />
            </Array>
          </mxGeometry>
        </mxCell>
        <mxCell id="NZz8lFGvhAFFfCNbKwrk-260" value="" style="endArrow=classic;html=1;rounded=0;exitX=1;exitY=1;exitDx=0;exitDy=0;entryX=0.5;entryY=0;entryDx=0;entryDy=0;" parent="1" source="NZz8lFGvhAFFfCNbKwrk-188" target="NZz8lFGvhAFFfCNbKwrk-195" edge="1">
          <mxGeometry width="50" height="50" relative="1" as="geometry">
            <mxPoint x="4401" y="1708" as="sourcePoint" />
            <mxPoint x="4451" y="1658" as="targetPoint" />
            <Array as="points">
              <mxPoint x="4518" y="1597" />
            </Array>
          </mxGeometry>
        </mxCell>
        <mxCell id="NZz8lFGvhAFFfCNbKwrk-261" value="" style="endArrow=classic;html=1;rounded=0;exitX=0;exitY=0;exitDx=0;exitDy=0;entryX=0.5;entryY=1;entryDx=0;entryDy=0;" parent="1" source="NZz8lFGvhAFFfCNbKwrk-195" target="NZz8lFGvhAFFfCNbKwrk-188" edge="1">
          <mxGeometry width="50" height="50" relative="1" as="geometry">
            <mxPoint x="4316" y="1771" as="sourcePoint" />
            <mxPoint x="4366" y="1721" as="targetPoint" />
            <Array as="points">
              <mxPoint x="4339" y="1667" />
            </Array>
          </mxGeometry>
        </mxCell>
        <mxCell id="NZz8lFGvhAFFfCNbKwrk-262" value="" style="endArrow=classic;html=1;rounded=0;exitX=0.427;exitY=0.99;exitDx=0;exitDy=0;exitPerimeter=0;entryX=0.5;entryY=1;entryDx=0;entryDy=0;" parent="1" source="NZz8lFGvhAFFfCNbKwrk-204" target="NZz8lFGvhAFFfCNbKwrk-195" edge="1">
          <mxGeometry width="50" height="50" relative="1" as="geometry">
            <mxPoint x="4038" y="1881" as="sourcePoint" />
            <mxPoint x="4088" y="1831" as="targetPoint" />
            <Array as="points">
              <mxPoint x="3955" y="1838" />
              <mxPoint x="4518" y="1838" />
            </Array>
          </mxGeometry>
        </mxCell>
        <mxCell id="NZz8lFGvhAFFfCNbKwrk-263" value="" style="endArrow=classic;html=1;rounded=0;exitX=0.996;exitY=0.431;exitDx=0;exitDy=0;exitPerimeter=0;entryX=0;entryY=0.5;entryDx=0;entryDy=0;" parent="1" source="NZz8lFGvhAFFfCNbKwrk-198" target="NZz8lFGvhAFFfCNbKwrk-200" edge="1">
          <mxGeometry width="50" height="50" relative="1" as="geometry">
            <mxPoint x="4739" y="1807" as="sourcePoint" />
            <mxPoint x="4789" y="1757" as="targetPoint" />
          </mxGeometry>
        </mxCell>
        <mxCell id="NZz8lFGvhAFFfCNbKwrk-264" value="" style="endArrow=classic;html=1;rounded=0;exitX=0.5;exitY=0;exitDx=0;exitDy=0;entryX=0;entryY=0;entryDx=0;entryDy=0;" parent="1" source="NZz8lFGvhAFFfCNbKwrk-200" target="NZz8lFGvhAFFfCNbKwrk-182" edge="1">
          <mxGeometry width="50" height="50" relative="1" as="geometry">
            <mxPoint x="4807" y="1849" as="sourcePoint" />
            <mxPoint x="4857" y="1799" as="targetPoint" />
            <Array as="points">
              <mxPoint x="4884" y="1145" />
              <mxPoint x="3952" y="1148" />
              <mxPoint x="3952" y="1472" />
            </Array>
          </mxGeometry>
        </mxCell>
        <mxCell id="NZz8lFGvhAFFfCNbKwrk-265" value="" style="endArrow=none;html=1;rounded=0;" parent="1" edge="1">
          <mxGeometry width="50" height="50" relative="1" as="geometry">
            <mxPoint x="3892" y="1597" as="sourcePoint" />
            <mxPoint x="3892" y="1533" as="targetPoint" />
          </mxGeometry>
        </mxCell>
        <mxCell id="NZz8lFGvhAFFfCNbKwrk-266" value="" style="endArrow=none;html=1;rounded=0;" parent="1" edge="1">
          <mxGeometry width="50" height="50" relative="1" as="geometry">
            <mxPoint x="4423" y="1175" as="sourcePoint" />
            <mxPoint x="4423" y="1111" as="targetPoint" />
          </mxGeometry>
        </mxCell>
        <mxCell id="NZz8lFGvhAFFfCNbKwrk-267" value="" style="endArrow=none;html=1;rounded=0;" parent="1" edge="1">
          <mxGeometry width="50" height="50" relative="1" as="geometry">
            <mxPoint x="4021" y="1290" as="sourcePoint" />
            <mxPoint x="4021" y="1226" as="targetPoint" />
          </mxGeometry>
        </mxCell>
        <mxCell id="NZz8lFGvhAFFfCNbKwrk-268" value="" style="endArrow=none;html=1;rounded=0;" parent="1" edge="1">
          <mxGeometry width="50" height="50" relative="1" as="geometry">
            <mxPoint x="4185.75" y="1285" as="sourcePoint" />
            <mxPoint x="4185.75" y="1221" as="targetPoint" />
          </mxGeometry>
        </mxCell>
        <mxCell id="NZz8lFGvhAFFfCNbKwrk-269" value="" style="endArrow=none;html=1;rounded=0;" parent="1" edge="1">
          <mxGeometry width="50" height="50" relative="1" as="geometry">
            <mxPoint x="4336" y="1287" as="sourcePoint" />
            <mxPoint x="4336" y="1223" as="targetPoint" />
          </mxGeometry>
        </mxCell>
        <mxCell id="NZz8lFGvhAFFfCNbKwrk-270" value="" style="endArrow=none;html=1;rounded=0;" parent="1" edge="1">
          <mxGeometry width="50" height="50" relative="1" as="geometry">
            <mxPoint x="4487" y="1292" as="sourcePoint" />
            <mxPoint x="4487" y="1228" as="targetPoint" />
          </mxGeometry>
        </mxCell>
        <mxCell id="NZz8lFGvhAFFfCNbKwrk-271" value="" style="endArrow=none;html=1;rounded=0;" parent="1" edge="1">
          <mxGeometry width="50" height="50" relative="1" as="geometry">
            <mxPoint x="4658" y="1292" as="sourcePoint" />
            <mxPoint x="4658" y="1228" as="targetPoint" />
          </mxGeometry>
        </mxCell>
        <mxCell id="NZz8lFGvhAFFfCNbKwrk-272" value="" style="endArrow=none;html=1;rounded=0;" parent="1" edge="1">
          <mxGeometry width="50" height="50" relative="1" as="geometry">
            <mxPoint x="4226" y="1454" as="sourcePoint" />
            <mxPoint x="4226" y="1390" as="targetPoint" />
          </mxGeometry>
        </mxCell>
        <mxCell id="NZz8lFGvhAFFfCNbKwrk-273" value="" style="endArrow=none;html=1;rounded=0;" parent="1" edge="1">
          <mxGeometry width="50" height="50" relative="1" as="geometry">
            <mxPoint x="4419" y="1452" as="sourcePoint" />
            <mxPoint x="4419" y="1388" as="targetPoint" />
          </mxGeometry>
        </mxCell>
        <mxCell id="NZz8lFGvhAFFfCNbKwrk-274" value="" style="endArrow=none;html=1;rounded=0;" parent="1" edge="1">
          <mxGeometry width="50" height="50" relative="1" as="geometry">
            <mxPoint x="4446" y="1560" as="sourcePoint" />
            <mxPoint x="4446" y="1496" as="targetPoint" />
          </mxGeometry>
        </mxCell>
        <mxCell id="NZz8lFGvhAFFfCNbKwrk-275" value="" style="endArrow=none;html=1;rounded=0;" parent="1" edge="1">
          <mxGeometry width="50" height="50" relative="1" as="geometry">
            <mxPoint x="4252" y="1556" as="sourcePoint" />
            <mxPoint x="4252" y="1492" as="targetPoint" />
          </mxGeometry>
        </mxCell>
        <mxCell id="NZz8lFGvhAFFfCNbKwrk-276" value="" style="endArrow=none;html=1;rounded=0;" parent="1" edge="1">
          <mxGeometry width="50" height="50" relative="1" as="geometry">
            <mxPoint x="4252" y="1630" as="sourcePoint" />
            <mxPoint x="4252" y="1566" as="targetPoint" />
          </mxGeometry>
        </mxCell>
        <mxCell id="NZz8lFGvhAFFfCNbKwrk-277" value="" style="endArrow=none;html=1;rounded=0;" parent="1" edge="1">
          <mxGeometry width="50" height="50" relative="1" as="geometry">
            <mxPoint x="4075" y="1597" as="sourcePoint" />
            <mxPoint x="4075" y="1533" as="targetPoint" />
          </mxGeometry>
        </mxCell>
        <mxCell id="NZz8lFGvhAFFfCNbKwrk-278" value="" style="endArrow=none;html=1;rounded=0;" parent="1" edge="1">
          <mxGeometry width="50" height="50" relative="1" as="geometry">
            <mxPoint x="4051" y="1719" as="sourcePoint" />
            <mxPoint x="4051" y="1655" as="targetPoint" />
          </mxGeometry>
        </mxCell>
        <mxCell id="NZz8lFGvhAFFfCNbKwrk-279" value="" style="endArrow=none;html=1;rounded=0;" parent="1" edge="1">
          <mxGeometry width="50" height="50" relative="1" as="geometry">
            <mxPoint x="4051" y="1795" as="sourcePoint" />
            <mxPoint x="4051" y="1731" as="targetPoint" />
          </mxGeometry>
        </mxCell>
        <mxCell id="NZz8lFGvhAFFfCNbKwrk-280" value="" style="endArrow=none;html=1;rounded=0;" parent="1" edge="1">
          <mxGeometry width="50" height="50" relative="1" as="geometry">
            <mxPoint x="3859" y="1763" as="sourcePoint" />
            <mxPoint x="3859" y="1699" as="targetPoint" />
          </mxGeometry>
        </mxCell>
        <mxCell id="NZz8lFGvhAFFfCNbKwrk-281" value="" style="endArrow=none;html=1;rounded=0;" parent="1" edge="1">
          <mxGeometry width="50" height="50" relative="1" as="geometry">
            <mxPoint x="4606" y="1729.5" as="sourcePoint" />
            <mxPoint x="4606" y="1665.5" as="targetPoint" />
          </mxGeometry>
        </mxCell>
        <mxCell id="NZz8lFGvhAFFfCNbKwrk-282" value="" style="endArrow=none;html=1;rounded=0;" parent="1" edge="1">
          <mxGeometry width="50" height="50" relative="1" as="geometry">
            <mxPoint x="4413" y="1697" as="sourcePoint" />
            <mxPoint x="4413" y="1633" as="targetPoint" />
          </mxGeometry>
        </mxCell>
        <mxCell id="NZz8lFGvhAFFfCNbKwrk-283" value="" style="endArrow=none;html=1;rounded=0;" parent="1" edge="1">
          <mxGeometry width="50" height="50" relative="1" as="geometry">
            <mxPoint x="4492" y="1630" as="sourcePoint" />
            <mxPoint x="4492" y="1566" as="targetPoint" />
          </mxGeometry>
        </mxCell>
        <mxCell id="NZz8lFGvhAFFfCNbKwrk-284" value="" style="endArrow=none;html=1;rounded=0;" parent="1" edge="1">
          <mxGeometry width="50" height="50" relative="1" as="geometry">
            <mxPoint x="4791" y="1724" as="sourcePoint" />
            <mxPoint x="4791" y="1660" as="targetPoint" />
          </mxGeometry>
        </mxCell>
        <mxCell id="NZz8lFGvhAFFfCNbKwrk-286" value="" style="endArrow=none;html=1;rounded=0;" parent="1" edge="1">
          <mxGeometry width="50" height="50" relative="1" as="geometry">
            <mxPoint x="4247" y="1873" as="sourcePoint" />
            <mxPoint x="4247" y="1809" as="targetPoint" />
          </mxGeometry>
        </mxCell>
        <mxCell id="NZz8lFGvhAFFfCNbKwrk-287" value="Загрузка сайта" style="text;html=1;strokeColor=none;fillColor=none;align=center;verticalAlign=middle;whiteSpace=wrap;rounded=0;" parent="1" vertex="1">
          <mxGeometry x="3863" y="1503" width="60" height="30" as="geometry" />
        </mxCell>
        <mxCell id="NZz8lFGvhAFFfCNbKwrk-288" value="Загрузка страницы авторизации" style="text;html=1;strokeColor=none;fillColor=none;align=center;verticalAlign=middle;whiteSpace=wrap;rounded=0;" parent="1" vertex="1">
          <mxGeometry x="3828" y="1659" width="60" height="30" as="geometry" />
        </mxCell>
        <mxCell id="NZz8lFGvhAFFfCNbKwrk-289" value="Переход к поиску" style="text;html=1;strokeColor=none;fillColor=none;align=center;verticalAlign=middle;whiteSpace=wrap;rounded=0;" parent="1" vertex="1">
          <mxGeometry x="4043" y="1501" width="60" height="30" as="geometry" />
        </mxCell>
        <mxCell id="NZz8lFGvhAFFfCNbKwrk-290" value="Результат поиска" style="text;html=1;strokeColor=none;fillColor=none;align=center;verticalAlign=middle;whiteSpace=wrap;rounded=0;" parent="1" vertex="1">
          <mxGeometry x="4192" y="1342" width="60" height="30" as="geometry" />
        </mxCell>
        <mxCell id="NZz8lFGvhAFFfCNbKwrk-293" value="Отправка запроса в БД" style="text;html=1;strokeColor=none;fillColor=none;align=center;verticalAlign=middle;whiteSpace=wrap;rounded=0;" parent="1" vertex="1">
          <mxGeometry x="4222" y="1456" width="60" height="30" as="geometry" />
        </mxCell>
        <mxCell id="NZz8lFGvhAFFfCNbKwrk-294" value="Получение результата из БД" style="text;html=1;strokeColor=none;fillColor=none;align=center;verticalAlign=middle;whiteSpace=wrap;rounded=0;" parent="1" vertex="1">
          <mxGeometry x="4222" y="1635" width="60" height="30" as="geometry" />
        </mxCell>
        <mxCell id="NZz8lFGvhAFFfCNbKwrk-295" value="Выбранный товар" style="text;html=1;strokeColor=none;fillColor=none;align=center;verticalAlign=middle;whiteSpace=wrap;rounded=0;" parent="1" vertex="1">
          <mxGeometry x="4387" y="1355" width="60" height="30" as="geometry" />
        </mxCell>
        <mxCell id="NZz8lFGvhAFFfCNbKwrk-296" value="Данные из БД" style="text;html=1;strokeColor=none;fillColor=none;align=center;verticalAlign=middle;whiteSpace=wrap;rounded=0;" parent="1" vertex="1">
          <mxGeometry x="4413" y="1466" width="60" height="30" as="geometry" />
        </mxCell>
        <mxCell id="NZz8lFGvhAFFfCNbKwrk-297" value="Данные из БД" style="text;html=1;strokeColor=none;fillColor=none;align=center;verticalAlign=middle;whiteSpace=wrap;rounded=0;" parent="1" vertex="1">
          <mxGeometry x="4463" y="1537" width="60" height="30" as="geometry" />
        </mxCell>
        <mxCell id="NZz8lFGvhAFFfCNbKwrk-298" value="Измененные данные" style="text;html=1;strokeColor=none;fillColor=none;align=center;verticalAlign=middle;whiteSpace=wrap;rounded=0;" parent="1" vertex="1">
          <mxGeometry x="4380" y="1600" width="60" height="30" as="geometry" />
        </mxCell>
        <mxCell id="NZz8lFGvhAFFfCNbKwrk-299" value="Некорректные данные" style="text;html=1;strokeColor=none;fillColor=none;align=center;verticalAlign=middle;whiteSpace=wrap;rounded=0;" parent="1" vertex="1">
          <mxGeometry x="4020" y="1628" width="60" height="30" as="geometry" />
        </mxCell>
        <mxCell id="NZz8lFGvhAFFfCNbKwrk-300" value="Результат" style="text;html=1;strokeColor=none;fillColor=none;align=center;verticalAlign=middle;whiteSpace=wrap;rounded=0;" parent="1" vertex="1">
          <mxGeometry x="4020" y="1798" width="60" height="30" as="geometry" />
        </mxCell>
        <mxCell id="NZz8lFGvhAFFfCNbKwrk-301" value="Корректные данные" style="text;html=1;strokeColor=none;fillColor=none;align=center;verticalAlign=middle;whiteSpace=wrap;rounded=0;" parent="1" vertex="1">
          <mxGeometry x="4215" y="1781" width="60" height="30" as="geometry" />
        </mxCell>
        <mxCell id="NZz8lFGvhAFFfCNbKwrk-302" value="Отправка данных на сервер" style="text;html=1;strokeColor=none;fillColor=none;align=center;verticalAlign=middle;whiteSpace=wrap;rounded=0;" parent="1" vertex="1">
          <mxGeometry x="4575" y="1629" width="60" height="30" as="geometry" />
        </mxCell>
        <mxCell id="NZz8lFGvhAFFfCNbKwrk-303" value="Данные из сервера" style="text;html=1;strokeColor=none;fillColor=none;align=center;verticalAlign=middle;whiteSpace=wrap;rounded=0;" parent="1" vertex="1">
          <mxGeometry x="4759" y="1623" width="60" height="30" as="geometry" />
        </mxCell>
        <mxCell id="NZz8lFGvhAFFfCNbKwrk-304" value="Обновление товаров в каталоге" style="text;html=1;strokeColor=none;fillColor=none;align=center;verticalAlign=middle;whiteSpace=wrap;rounded=0;" parent="1" vertex="1">
          <mxGeometry x="4392" y="1067" width="60" height="30" as="geometry" />
        </mxCell>
        <mxCell id="NZz8lFGvhAFFfCNbKwrk-306" value="Переход к вкладкам" style="text;html=1;strokeColor=none;fillColor=none;align=center;verticalAlign=middle;whiteSpace=wrap;rounded=0;" parent="1" vertex="1">
          <mxGeometry x="3991" y="1191" width="60" height="30" as="geometry" />
        </mxCell>
        <mxCell id="NZz8lFGvhAFFfCNbKwrk-307" value="Переход на выбранную категорию&amp;nbsp;" style="text;html=1;strokeColor=none;fillColor=none;align=center;verticalAlign=middle;whiteSpace=wrap;rounded=0;" parent="1" vertex="1">
          <mxGeometry x="4155" y="1175" width="60" height="30" as="geometry" />
        </mxCell>
        <mxCell id="NZz8lFGvhAFFfCNbKwrk-308" value="Выбранный товар" style="text;html=1;strokeColor=none;fillColor=none;align=center;verticalAlign=middle;whiteSpace=wrap;rounded=0;" parent="1" vertex="1">
          <mxGeometry x="4305" y="1180" width="60" height="30" as="geometry" />
        </mxCell>
        <mxCell id="NZz8lFGvhAFFfCNbKwrk-309" value="Сформированный заказ" style="text;html=1;strokeColor=none;fillColor=none;align=center;verticalAlign=middle;whiteSpace=wrap;rounded=0;" parent="1" vertex="1">
          <mxGeometry x="4458" y="1180" width="60" height="30" as="geometry" />
        </mxCell>
        <mxCell id="NZz8lFGvhAFFfCNbKwrk-310" value="Отправка данных на сервер" style="text;html=1;strokeColor=none;fillColor=none;align=center;verticalAlign=middle;whiteSpace=wrap;rounded=0;" parent="1" vertex="1">
          <mxGeometry x="4627" y="1185" width="60" height="30" as="geometry" />
        </mxCell>
        <mxCell id="NZz8lFGvhAFFfCNbKwrk-327" value="&lt;table border=&quot;1&quot; width=&quot;100%&quot; height=&quot;100%&quot; cellpadding=&quot;4&quot; style=&quot;width:100%;height:100%;border-collapse:collapse;&quot;&gt;&lt;tbody&gt;&lt;tr&gt;&lt;th style=&quot;text-align: center;&quot;&gt;ServerConnection&lt;/th&gt;&lt;/tr&gt;&lt;tr&gt;&lt;td&gt;- port : string&lt;br&gt;- host : string&lt;/td&gt;&lt;/tr&gt;&lt;tr&gt;&lt;td&gt;+ ConnectAsync() : void&lt;br&gt;+SendMessage() : void&lt;br&gt;+ GetData() : Enemerable&amp;lt;&amp;gt;&lt;br&gt;- Dissconnect() : void&lt;/td&gt;&lt;/tr&gt;&lt;/tbody&gt;&lt;/table&gt;" style="text;html=1;whiteSpace=wrap;overflow=fill;align=left;" parent="1" vertex="1">
          <mxGeometry x="6097" y="1608" width="180" height="180" as="geometry" />
        </mxCell>
        <mxCell id="NZz8lFGvhAFFfCNbKwrk-328" value="&lt;table border=&quot;1&quot; width=&quot;100%&quot; height=&quot;100%&quot; cellpadding=&quot;4&quot; style=&quot;width:100%;height:100%;border-collapse:collapse;&quot;&gt;&lt;tbody&gt;&lt;tr&gt;&lt;th style=&quot;text-align: center;&quot;&gt;Site&lt;/th&gt;&lt;/tr&gt;&lt;tr&gt;&lt;td&gt;- site_name : String&lt;/td&gt;&lt;/tr&gt;&lt;tr&gt;&lt;td&gt;&lt;br&gt;&lt;/td&gt;&lt;/tr&gt;&lt;/tbody&gt;&lt;/table&gt;" style="text;html=1;whiteSpace=wrap;overflow=fill;align=left;" parent="1" vertex="1">
          <mxGeometry x="6097" y="1279" width="180" height="90" as="geometry" />
        </mxCell>
        <mxCell id="NZz8lFGvhAFFfCNbKwrk-330" value="&lt;table border=&quot;1&quot; width=&quot;100%&quot; height=&quot;100%&quot; cellpadding=&quot;4&quot; style=&quot;width:100%;height:100%;border-collapse:collapse;&quot;&gt;&lt;tbody&gt;&lt;tr&gt;&lt;th style=&quot;text-align: center;&quot;&gt;Customer&lt;/th&gt;&lt;/tr&gt;&lt;tr&gt;&lt;td&gt;- customer_name : String&lt;br&gt;- customer_address: String&lt;br&gt;- customer_number: String&lt;br&gt;- customer_email: String&lt;br&gt;&lt;/td&gt;&lt;/tr&gt;&lt;tr&gt;&lt;td&gt;&lt;br&gt;&lt;/td&gt;&lt;/tr&gt;&lt;/tbody&gt;&lt;/table&gt;" style="text;html=1;whiteSpace=wrap;overflow=fill;align=left;" parent="1" vertex="1">
          <mxGeometry x="5872" y="1415" width="180" height="126" as="geometry" />
        </mxCell>
        <mxCell id="NZz8lFGvhAFFfCNbKwrk-332" value="&lt;table border=&quot;1&quot; width=&quot;100%&quot; height=&quot;100%&quot; cellpadding=&quot;4&quot; style=&quot;width:100%;height:100%;border-collapse:collapse;&quot;&gt;&lt;tbody&gt;&lt;tr&gt;&lt;th style=&quot;text-align: center;&quot;&gt;Order&lt;/th&gt;&lt;/tr&gt;&lt;tr&gt;&lt;td&gt;- order_number : String&lt;br&gt;- order_date : String&lt;br&gt;- order_address : String&lt;br&gt;- order_total : String&lt;br&gt;- order_status : String&lt;br&gt;&lt;/td&gt;&lt;/tr&gt;&lt;tr&gt;&lt;td&gt;&lt;br&gt;&lt;/td&gt;&lt;/tr&gt;&lt;/tbody&gt;&lt;/table&gt;" style="text;html=1;whiteSpace=wrap;overflow=fill;align=left;" parent="1" vertex="1">
          <mxGeometry x="6097" y="1414" width="180" height="141" as="geometry" />
        </mxCell>
        <mxCell id="NZz8lFGvhAFFfCNbKwrk-333" value="&lt;table border=&quot;1&quot; width=&quot;100%&quot; height=&quot;100%&quot; cellpadding=&quot;4&quot; style=&quot;width:100%;height:100%;border-collapse:collapse;&quot;&gt;&lt;tbody&gt;&lt;tr&gt;&lt;th style=&quot;text-align: center;&quot;&gt;ConfigurationItem&lt;/th&gt;&lt;/tr&gt;&lt;tr&gt;&lt;td&gt;- item_type : String&lt;br&gt;- item_descr : String&lt;br&gt;&lt;/td&gt;&lt;/tr&gt;&lt;tr&gt;&lt;td&gt;&lt;br&gt;&lt;/td&gt;&lt;/tr&gt;&lt;/tbody&gt;&lt;/table&gt;" style="text;html=1;whiteSpace=wrap;overflow=fill;align=left;" parent="1" vertex="1">
          <mxGeometry x="6323" y="1635" width="180" height="126" as="geometry" />
        </mxCell>
        <mxCell id="NZz8lFGvhAFFfCNbKwrk-334" value="&lt;table border=&quot;1&quot; width=&quot;100%&quot; height=&quot;100%&quot; cellpadding=&quot;4&quot; style=&quot;width:100%;height:100%;border-collapse:collapse;&quot;&gt;&lt;tbody&gt;&lt;tr&gt;&lt;th style=&quot;text-align: center;&quot;&gt;Invoice&lt;/th&gt;&lt;/tr&gt;&lt;tr&gt;&lt;td&gt;- invoice_number : String&lt;br&gt;- invoice_date : String&lt;br&gt;- invoice_total : String&lt;br&gt;&lt;/td&gt;&lt;/tr&gt;&lt;tr&gt;&lt;td&gt;&lt;br&gt;&lt;/td&gt;&lt;/tr&gt;&lt;/tbody&gt;&lt;/table&gt;" style="text;html=1;whiteSpace=wrap;overflow=fill;align=left;" parent="1" vertex="1">
          <mxGeometry x="6323" y="1414" width="180" height="126" as="geometry" />
        </mxCell>
        <mxCell id="NZz8lFGvhAFFfCNbKwrk-335" value="" style="endArrow=classic;html=1;rounded=0;exitX=0;exitY=0.5;exitDx=0;exitDy=0;entryX=1;entryY=0.5;entryDx=0;entryDy=0;" parent="1" source="NZz8lFGvhAFFfCNbKwrk-333" target="NZz8lFGvhAFFfCNbKwrk-327" edge="1">
          <mxGeometry width="50" height="50" relative="1" as="geometry">
            <mxPoint x="5856" y="1745" as="sourcePoint" />
            <mxPoint x="5906" y="1695" as="targetPoint" />
          </mxGeometry>
        </mxCell>
        <mxCell id="NZz8lFGvhAFFfCNbKwrk-337" value="" style="endArrow=none;html=1;rounded=0;exitX=1;exitY=0.5;exitDx=0;exitDy=0;entryX=0;entryY=0.5;entryDx=0;entryDy=0;" parent="1" source="NZz8lFGvhAFFfCNbKwrk-330" target="NZz8lFGvhAFFfCNbKwrk-332" edge="1">
          <mxGeometry width="50" height="50" relative="1" as="geometry">
            <mxPoint x="5982" y="1649" as="sourcePoint" />
            <mxPoint x="6032" y="1599" as="targetPoint" />
          </mxGeometry>
        </mxCell>
        <mxCell id="NZz8lFGvhAFFfCNbKwrk-338" value="" style="endArrow=none;html=1;rounded=0;entryX=0;entryY=0.5;entryDx=0;entryDy=0;exitX=1;exitY=0.5;exitDx=0;exitDy=0;" parent="1" source="NZz8lFGvhAFFfCNbKwrk-332" target="NZz8lFGvhAFFfCNbKwrk-334" edge="1">
          <mxGeometry width="50" height="50" relative="1" as="geometry">
            <mxPoint x="5851" y="1671" as="sourcePoint" />
            <mxPoint x="5901" y="1621" as="targetPoint" />
          </mxGeometry>
        </mxCell>
        <mxCell id="NZz8lFGvhAFFfCNbKwrk-339" value="" style="endArrow=none;html=1;rounded=0;exitX=0.5;exitY=0;exitDx=0;exitDy=0;entryX=0.5;entryY=1;entryDx=0;entryDy=0;" parent="1" source="NZz8lFGvhAFFfCNbKwrk-332" target="NZz8lFGvhAFFfCNbKwrk-328" edge="1">
          <mxGeometry width="50" height="50" relative="1" as="geometry">
            <mxPoint x="6235" y="1439" as="sourcePoint" />
            <mxPoint x="6285" y="1389" as="targetPoint" />
          </mxGeometry>
        </mxCell>
        <mxCell id="NZz8lFGvhAFFfCNbKwrk-340" value="" style="endArrow=none;html=1;rounded=0;exitX=0.5;exitY=0;exitDx=0;exitDy=0;entryX=0.5;entryY=1;entryDx=0;entryDy=0;" parent="1" source="NZz8lFGvhAFFfCNbKwrk-327" target="NZz8lFGvhAFFfCNbKwrk-332" edge="1">
          <mxGeometry width="50" height="50" relative="1" as="geometry">
            <mxPoint x="6307" y="1597" as="sourcePoint" />
            <mxPoint x="6357" y="1547" as="targetPoint" />
          </mxGeometry>
        </mxCell>
        <mxCell id="NZz8lFGvhAFFfCNbKwrk-341" value="" style="endArrow=none;html=1;rounded=0;entryX=0;entryY=0.5;entryDx=0;entryDy=0;exitX=0;exitY=0.5;exitDx=0;exitDy=0;" parent="1" source="NZz8lFGvhAFFfCNbKwrk-328" target="NZz8lFGvhAFFfCNbKwrk-327" edge="1">
          <mxGeometry width="50" height="50" relative="1" as="geometry">
            <mxPoint x="5980" y="1682" as="sourcePoint" />
            <mxPoint x="6030" y="1632" as="targetPoint" />
            <Array as="points">
              <mxPoint x="5814" y="1324" />
              <mxPoint x="5817" y="1695" />
            </Array>
          </mxGeometry>
        </mxCell>
        <mxCell id="NZz8lFGvhAFFfCNbKwrk-342" value="1" style="text;html=1;strokeColor=none;fillColor=none;align=center;verticalAlign=middle;whiteSpace=wrap;rounded=0;" parent="1" vertex="1">
          <mxGeometry x="6026" y="1452" width="60" height="30" as="geometry" />
        </mxCell>
        <mxCell id="NZz8lFGvhAFFfCNbKwrk-343" value="0" style="text;html=1;strokeColor=none;fillColor=none;align=center;verticalAlign=middle;whiteSpace=wrap;rounded=0;" parent="1" vertex="1">
          <mxGeometry x="6061" y="1452" width="60" height="30" as="geometry" />
        </mxCell>
        <mxCell id="NZz8lFGvhAFFfCNbKwrk-344" value="0..1" style="text;html=1;strokeColor=none;fillColor=none;align=center;verticalAlign=middle;whiteSpace=wrap;rounded=0;" parent="1" vertex="1">
          <mxGeometry x="6282" y="1452" width="60" height="30" as="geometry" />
        </mxCell>
        <mxCell id="NZz8lFGvhAFFfCNbKwrk-345" value="0" style="text;html=1;strokeColor=none;fillColor=none;align=center;verticalAlign=middle;whiteSpace=wrap;rounded=0;" parent="1" vertex="1">
          <mxGeometry x="6061" y="1296" width="60" height="30" as="geometry" />
        </mxCell>
        <mxCell id="NZz8lFGvhAFFfCNbKwrk-346" value="1" style="text;html=1;strokeColor=none;fillColor=none;align=center;verticalAlign=middle;whiteSpace=wrap;rounded=0;" parent="1" vertex="1">
          <mxGeometry x="6059" y="1669" width="60" height="30" as="geometry" />
        </mxCell>
        <mxCell id="NZz8lFGvhAFFfCNbKwrk-347" value="1.." style="text;html=1;strokeColor=none;fillColor=none;align=center;verticalAlign=middle;whiteSpace=wrap;rounded=0;" parent="1" vertex="1">
          <mxGeometry x="6284" y="1672" width="60" height="30" as="geometry" />
        </mxCell>
        <mxCell id="NZz8lFGvhAFFfCNbKwrk-348" value="0" style="text;html=1;strokeColor=none;fillColor=none;align=center;verticalAlign=middle;whiteSpace=wrap;rounded=0;" parent="1" vertex="1">
          <mxGeometry x="6168" y="1392" width="60" height="30" as="geometry" />
        </mxCell>
        <mxCell id="NZz8lFGvhAFFfCNbKwrk-351" value="1.." style="text;html=1;strokeColor=none;fillColor=none;align=center;verticalAlign=middle;whiteSpace=wrap;rounded=0;" parent="1" vertex="1">
          <mxGeometry x="6171" y="1362" width="60" height="30" as="geometry" />
        </mxCell>
        <mxCell id="NZz8lFGvhAFFfCNbKwrk-352" value="1.." style="text;html=1;strokeColor=none;fillColor=none;align=center;verticalAlign=middle;whiteSpace=wrap;rounded=0;" parent="1" vertex="1">
          <mxGeometry x="6168" y="1550" width="60" height="30" as="geometry" />
        </mxCell>
        <mxCell id="NZz8lFGvhAFFfCNbKwrk-353" value="1.." style="text;html=1;strokeColor=none;fillColor=none;align=center;verticalAlign=middle;whiteSpace=wrap;rounded=0;" parent="1" vertex="1">
          <mxGeometry x="6168" y="1583" width="60" height="30" as="geometry" />
        </mxCell>
        <mxCell id="NZz8lFGvhAFFfCNbKwrk-357" value="Сайт" style="rounded=0;whiteSpace=wrap;html=1;" parent="1" vertex="1">
          <mxGeometry x="7042.5" y="1341" width="120" height="60" as="geometry" />
        </mxCell>
        <mxCell id="NZz8lFGvhAFFfCNbKwrk-358" value="БД" style="rounded=0;whiteSpace=wrap;html=1;" parent="1" vertex="1">
          <mxGeometry x="7273.5" y="1341" width="120" height="60" as="geometry" />
        </mxCell>
        <mxCell id="NZz8lFGvhAFFfCNbKwrk-359" value="Оформление заказа" style="rounded=0;whiteSpace=wrap;html=1;" parent="1" vertex="1">
          <mxGeometry x="7504.5" y="1340" width="120" height="61" as="geometry" />
        </mxCell>
        <mxCell id="NZz8lFGvhAFFfCNbKwrk-360" value="Подтверждение заказа" style="rounded=0;whiteSpace=wrap;html=1;" parent="1" vertex="1">
          <mxGeometry x="7683.5" y="1340" width="120" height="60" as="geometry" />
        </mxCell>
        <mxCell id="NZz8lFGvhAFFfCNbKwrk-361" value="Клиент" style="shape=umlActor;verticalLabelPosition=bottom;verticalAlign=top;html=1;outlineConnect=0;" parent="1" vertex="1">
          <mxGeometry x="6821.5" y="1327" width="30" height="60" as="geometry" />
        </mxCell>
        <mxCell id="NZz8lFGvhAFFfCNbKwrk-362" value="" style="rounded=0;whiteSpace=wrap;html=1;" parent="1" vertex="1">
          <mxGeometry x="6831" y="1436" width="11" height="576" as="geometry" />
        </mxCell>
        <mxCell id="NZz8lFGvhAFFfCNbKwrk-363" value="" style="rounded=0;whiteSpace=wrap;html=1;" parent="1" vertex="1">
          <mxGeometry x="7097" y="1432" width="11" height="335" as="geometry" />
        </mxCell>
        <mxCell id="NZz8lFGvhAFFfCNbKwrk-364" value="" style="rounded=0;whiteSpace=wrap;html=1;" parent="1" vertex="1">
          <mxGeometry x="7328" y="1584" width="11" height="155" as="geometry" />
        </mxCell>
        <mxCell id="NZz8lFGvhAFFfCNbKwrk-365" value="" style="rounded=0;whiteSpace=wrap;html=1;" parent="1" vertex="1">
          <mxGeometry x="7559" y="1758" width="11" height="257" as="geometry" />
        </mxCell>
        <mxCell id="NZz8lFGvhAFFfCNbKwrk-366" value="" style="rounded=0;whiteSpace=wrap;html=1;" parent="1" vertex="1">
          <mxGeometry x="7738" y="1704" width="11" height="218" as="geometry" />
        </mxCell>
        <mxCell id="NZz8lFGvhAFFfCNbKwrk-370" value="" style="endArrow=classic;html=1;rounded=0;dashed=1;" parent="1" edge="1">
          <mxGeometry width="50" height="50" relative="1" as="geometry">
            <mxPoint x="7095" y="1476" as="sourcePoint" />
            <mxPoint x="6840" y="1476" as="targetPoint" />
          </mxGeometry>
        </mxCell>
        <mxCell id="NZz8lFGvhAFFfCNbKwrk-374" value="" style="endArrow=classic;html=1;rounded=0;exitX=1;exitY=0;exitDx=0;exitDy=0;" parent="1" edge="1">
          <mxGeometry width="50" height="50" relative="1" as="geometry">
            <mxPoint x="6842" y="1523" as="sourcePoint" />
            <mxPoint x="7098" y="1519" as="targetPoint" />
          </mxGeometry>
        </mxCell>
        <mxCell id="NZz8lFGvhAFFfCNbKwrk-376" value="" style="endArrow=classic;html=1;rounded=0;exitX=1;exitY=0;exitDx=0;exitDy=0;entryX=0.019;entryY=0.155;entryDx=0;entryDy=0;entryPerimeter=0;" parent="1" edge="1">
          <mxGeometry width="50" height="50" relative="1" as="geometry">
            <mxPoint x="6842" y="1436" as="sourcePoint" />
            <mxPoint x="7097" y="1435" as="targetPoint" />
          </mxGeometry>
        </mxCell>
        <mxCell id="NZz8lFGvhAFFfCNbKwrk-377" value="" style="endArrow=classic;html=1;rounded=0;exitX=1;exitY=0;exitDx=0;exitDy=0;entryX=0.019;entryY=0.155;entryDx=0;entryDy=0;entryPerimeter=0;" parent="1" edge="1">
          <mxGeometry width="50" height="50" relative="1" as="geometry">
            <mxPoint x="6842" y="1572.95" as="sourcePoint" />
            <mxPoint x="7097" y="1571.95" as="targetPoint" />
          </mxGeometry>
        </mxCell>
        <mxCell id="NZz8lFGvhAFFfCNbKwrk-379" value="" style="endArrow=classic;html=1;rounded=0;exitX=1;exitY=0;exitDx=0;exitDy=0;entryX=0.019;entryY=0.155;entryDx=0;entryDy=0;entryPerimeter=0;" parent="1" edge="1">
          <mxGeometry width="50" height="50" relative="1" as="geometry">
            <mxPoint x="6842" y="1624" as="sourcePoint" />
            <mxPoint x="7097" y="1623" as="targetPoint" />
          </mxGeometry>
        </mxCell>
        <mxCell id="NZz8lFGvhAFFfCNbKwrk-381" value="Купить товар" style="text;html=1;strokeColor=none;fillColor=none;align=center;verticalAlign=middle;whiteSpace=wrap;rounded=0;" parent="1" vertex="1">
          <mxGeometry x="6919" y="1402" width="103" height="30" as="geometry" />
        </mxCell>
        <mxCell id="NZz8lFGvhAFFfCNbKwrk-382" value="Открыть форму покупки" style="text;html=1;strokeColor=none;fillColor=none;align=center;verticalAlign=middle;whiteSpace=wrap;rounded=0;" parent="1" vertex="1">
          <mxGeometry x="6896" y="1443" width="149" height="30" as="geometry" />
        </mxCell>
        <mxCell id="NZz8lFGvhAFFfCNbKwrk-383" value="Внести данные покупателя" style="text;html=1;strokeColor=none;fillColor=none;align=center;verticalAlign=middle;whiteSpace=wrap;rounded=0;" parent="1" vertex="1">
          <mxGeometry x="6886.25" y="1490" width="168.5" height="30" as="geometry" />
        </mxCell>
        <mxCell id="NZz8lFGvhAFFfCNbKwrk-384" value="Внести данные доставки" style="text;html=1;strokeColor=none;fillColor=none;align=center;verticalAlign=middle;whiteSpace=wrap;rounded=0;" parent="1" vertex="1">
          <mxGeometry x="6890.25" y="1537" width="160.5" height="30" as="geometry" />
        </mxCell>
        <mxCell id="NZz8lFGvhAFFfCNbKwrk-385" value="Внести почту и телефон" style="text;html=1;strokeColor=none;fillColor=none;align=center;verticalAlign=middle;whiteSpace=wrap;rounded=0;" parent="1" vertex="1">
          <mxGeometry x="6896" y="1588" width="149" height="30" as="geometry" />
        </mxCell>
        <mxCell id="NZz8lFGvhAFFfCNbKwrk-386" value="" style="endArrow=classic;html=1;rounded=0;dashed=1;" parent="1" edge="1">
          <mxGeometry width="50" height="50" relative="1" as="geometry">
            <mxPoint x="7098" y="1681.95" as="sourcePoint" />
            <mxPoint x="6843" y="1681.95" as="targetPoint" />
          </mxGeometry>
        </mxCell>
        <mxCell id="NZz8lFGvhAFFfCNbKwrk-387" value="Показать итоговую цену&amp;nbsp;" style="text;html=1;strokeColor=none;fillColor=none;align=center;verticalAlign=middle;whiteSpace=wrap;rounded=0;" parent="1" vertex="1">
          <mxGeometry x="6889.75" y="1647" width="161" height="30" as="geometry" />
        </mxCell>
        <mxCell id="NZz8lFGvhAFFfCNbKwrk-388" value="" style="endArrow=classic;html=1;rounded=0;exitX=1;exitY=0;exitDx=0;exitDy=0;entryX=0.019;entryY=0.155;entryDx=0;entryDy=0;entryPerimeter=0;" parent="1" edge="1">
          <mxGeometry width="50" height="50" relative="1" as="geometry">
            <mxPoint x="6842.75" y="1736.95" as="sourcePoint" />
            <mxPoint x="7097.75" y="1735.95" as="targetPoint" />
          </mxGeometry>
        </mxCell>
        <mxCell id="NZz8lFGvhAFFfCNbKwrk-389" value="Выбрать оплату товара" style="text;html=1;strokeColor=none;fillColor=none;align=center;verticalAlign=middle;whiteSpace=wrap;rounded=0;" parent="1" vertex="1">
          <mxGeometry x="6889.75" y="1699" width="161" height="30" as="geometry" />
        </mxCell>
        <mxCell id="NZz8lFGvhAFFfCNbKwrk-390" value="" style="endArrow=classic;html=1;rounded=0;exitX=-0.067;exitY=0.542;exitDx=0;exitDy=0;dashed=1;exitPerimeter=0;" parent="1" source="NZz8lFGvhAFFfCNbKwrk-365" edge="1">
          <mxGeometry width="50" height="50" relative="1" as="geometry">
            <mxPoint x="7210" y="1930" as="sourcePoint" />
            <mxPoint x="7109" y="1897" as="targetPoint" />
          </mxGeometry>
        </mxCell>
        <mxCell id="NZz8lFGvhAFFfCNbKwrk-391" value="вернуть статус заказа" style="text;html=1;strokeColor=none;fillColor=none;align=center;verticalAlign=middle;whiteSpace=wrap;rounded=0;" parent="1" vertex="1">
          <mxGeometry x="7170.5" y="1858" width="103" height="30" as="geometry" />
        </mxCell>
        <mxCell id="NZz8lFGvhAFFfCNbKwrk-392" value="" style="endArrow=classic;html=1;rounded=0;entryX=1.043;entryY=0.938;entryDx=0;entryDy=0;entryPerimeter=0;dashed=1;" parent="1" target="NZz8lFGvhAFFfCNbKwrk-362" edge="1">
          <mxGeometry width="50" height="50" relative="1" as="geometry">
            <mxPoint x="7095" y="1976" as="sourcePoint" />
            <mxPoint x="6851" y="1993" as="targetPoint" />
          </mxGeometry>
        </mxCell>
        <mxCell id="NZz8lFGvhAFFfCNbKwrk-393" value="Обновить страницу завершения заказа" style="text;html=1;strokeColor=none;fillColor=none;align=center;verticalAlign=middle;whiteSpace=wrap;rounded=0;" parent="1" vertex="1">
          <mxGeometry x="6886" y="1937" width="174" height="30" as="geometry" />
        </mxCell>
        <mxCell id="NZz8lFGvhAFFfCNbKwrk-395" value="" style="endArrow=classic;html=1;rounded=0;entryX=-0.024;entryY=0.298;entryDx=0;entryDy=0;entryPerimeter=0;" parent="1" target="NZz8lFGvhAFFfCNbKwrk-364" edge="1">
          <mxGeometry width="50" height="50" relative="1" as="geometry">
            <mxPoint x="7109" y="1631" as="sourcePoint" />
            <mxPoint x="7189" y="1630" as="targetPoint" />
          </mxGeometry>
        </mxCell>
        <mxCell id="NZz8lFGvhAFFfCNbKwrk-396" value="Найти нужный товар" style="text;html=1;strokeColor=none;fillColor=none;align=center;verticalAlign=middle;whiteSpace=wrap;rounded=0;" parent="1" vertex="1">
          <mxGeometry x="7159" y="1594" width="135" height="30" as="geometry" />
        </mxCell>
        <mxCell id="NZz8lFGvhAFFfCNbKwrk-397" value="Вернуть результат обратно" style="text;html=1;strokeColor=none;fillColor=none;align=center;verticalAlign=middle;whiteSpace=wrap;rounded=0;" parent="1" vertex="1">
          <mxGeometry x="7137.5" y="1644" width="169" height="30" as="geometry" />
        </mxCell>
        <mxCell id="NZz8lFGvhAFFfCNbKwrk-398" value="" style="endArrow=classic;html=1;rounded=0;entryX=0.976;entryY=0.685;entryDx=0;entryDy=0;entryPerimeter=0;dashed=1;" parent="1" edge="1">
          <mxGeometry width="50" height="50" relative="1" as="geometry">
            <mxPoint x="7327" y="1676" as="sourcePoint" />
            <mxPoint x="7107.735999999999" y="1676.4750000000001" as="targetPoint" />
          </mxGeometry>
        </mxCell>
        <mxCell id="NZz8lFGvhAFFfCNbKwrk-399" value="" style="endArrow=classic;html=1;rounded=0;exitX=1.139;exitY=0.642;exitDx=0;exitDy=0;exitPerimeter=0;" parent="1" source="NZz8lFGvhAFFfCNbKwrk-362" edge="1">
          <mxGeometry width="50" height="50" relative="1" as="geometry">
            <mxPoint x="6934" y="1858" as="sourcePoint" />
            <mxPoint x="7558" y="1803" as="targetPoint" />
          </mxGeometry>
        </mxCell>
        <mxCell id="NZz8lFGvhAFFfCNbKwrk-400" value="Заполнить&amp;nbsp; данные клиента в заказ" style="text;html=1;strokeColor=none;fillColor=none;align=center;verticalAlign=middle;whiteSpace=wrap;rounded=0;" parent="1" vertex="1">
          <mxGeometry x="7123.5" y="1771" width="206" height="30" as="geometry" />
        </mxCell>
        <mxCell id="NZz8lFGvhAFFfCNbKwrk-401" value="" style="rounded=0;whiteSpace=wrap;html=1;" parent="1" vertex="1">
          <mxGeometry x="7097" y="1883" width="11" height="104" as="geometry" />
        </mxCell>
        <mxCell id="NZz8lFGvhAFFfCNbKwrk-402" value="" style="endArrow=classic;html=1;rounded=0;exitX=0.986;exitY=0.214;exitDx=0;exitDy=0;exitPerimeter=0;" parent="1" source="NZz8lFGvhAFFfCNbKwrk-365" edge="1">
          <mxGeometry width="50" height="50" relative="1" as="geometry">
            <mxPoint x="7644" y="1769" as="sourcePoint" />
            <mxPoint x="7736" y="1813" as="targetPoint" />
          </mxGeometry>
        </mxCell>
        <mxCell id="NZz8lFGvhAFFfCNbKwrk-403" value="Проверить заказ" style="text;html=1;strokeColor=none;fillColor=none;align=center;verticalAlign=middle;whiteSpace=wrap;rounded=0;" parent="1" vertex="1">
          <mxGeometry x="7619" y="1779" width="60" height="30" as="geometry" />
        </mxCell>
        <mxCell id="NZz8lFGvhAFFfCNbKwrk-404" value="" style="endArrow=classic;html=1;rounded=0;dashed=1;" parent="1" edge="1">
          <mxGeometry width="50" height="50" relative="1" as="geometry">
            <mxPoint x="7736" y="1854" as="sourcePoint" />
            <mxPoint x="7572" y="1854" as="targetPoint" />
          </mxGeometry>
        </mxCell>
        <mxCell id="NZz8lFGvhAFFfCNbKwrk-405" value="Вернуть результат проверки" style="text;html=1;strokeColor=none;fillColor=none;align=center;verticalAlign=middle;whiteSpace=wrap;rounded=0;" parent="1" vertex="1">
          <mxGeometry x="7587" y="1819.5" width="130" height="30" as="geometry" />
        </mxCell>
        <mxCell id="NZz8lFGvhAFFfCNbKwrk-406" value="" style="endArrow=none;dashed=1;html=1;rounded=0;exitX=0.25;exitY=0;exitDx=0;exitDy=0;" parent="1" edge="1">
          <mxGeometry width="50" height="50" relative="1" as="geometry">
            <mxPoint x="6836.749999999998" y="1436" as="sourcePoint" />
            <mxPoint x="6837" y="1410" as="targetPoint" />
          </mxGeometry>
        </mxCell>
        <mxCell id="NZz8lFGvhAFFfCNbKwrk-407" value="" style="endArrow=none;dashed=1;html=1;rounded=0;exitX=0.25;exitY=0;exitDx=0;exitDy=0;" parent="1" edge="1">
          <mxGeometry width="50" height="50" relative="1" as="geometry">
            <mxPoint x="7102.749999999998" y="1432" as="sourcePoint" />
            <mxPoint x="7103" y="1406" as="targetPoint" />
          </mxGeometry>
        </mxCell>
        <mxCell id="NZz8lFGvhAFFfCNbKwrk-408" value="" style="endArrow=none;dashed=1;html=1;rounded=0;" parent="1" edge="1">
          <mxGeometry width="50" height="50" relative="1" as="geometry">
            <mxPoint x="7333" y="1581" as="sourcePoint" />
            <mxPoint x="7333.49" y="1402" as="targetPoint" />
          </mxGeometry>
        </mxCell>
        <mxCell id="NZz8lFGvhAFFfCNbKwrk-409" value="" style="endArrow=none;dashed=1;html=1;rounded=0;" parent="1" edge="1">
          <mxGeometry width="50" height="50" relative="1" as="geometry">
            <mxPoint x="7743" y="1700" as="sourcePoint" />
            <mxPoint x="7743.49" y="1399" as="targetPoint" />
          </mxGeometry>
        </mxCell>
        <mxCell id="NZz8lFGvhAFFfCNbKwrk-410" value="" style="endArrow=none;dashed=1;html=1;rounded=0;" parent="1" edge="1">
          <mxGeometry width="50" height="50" relative="1" as="geometry">
            <mxPoint x="7564" y="1754" as="sourcePoint" />
            <mxPoint x="7564.49" y="1401" as="targetPoint" />
          </mxGeometry>
        </mxCell>
        <mxCell id="NZz8lFGvhAFFfCNbKwrk-411" value="" style="endArrow=none;dashed=1;html=1;rounded=0;" parent="1" edge="1">
          <mxGeometry width="50" height="50" relative="1" as="geometry">
            <mxPoint x="7333" y="2020" as="sourcePoint" />
            <mxPoint x="7333.44" y="1741" as="targetPoint" />
          </mxGeometry>
        </mxCell>
        <mxCell id="NZz8lFGvhAFFfCNbKwrk-412" value="" style="endArrow=none;dashed=1;html=1;rounded=0;exitX=0.25;exitY=0;exitDx=0;exitDy=0;" parent="1" edge="1">
          <mxGeometry width="50" height="50" relative="1" as="geometry">
            <mxPoint x="7102.189999999998" y="2013" as="sourcePoint" />
            <mxPoint x="7102.44" y="1987" as="targetPoint" />
          </mxGeometry>
        </mxCell>
        <mxCell id="NZz8lFGvhAFFfCNbKwrk-413" value="" style="endArrow=none;dashed=1;html=1;rounded=0;" parent="1" edge="1">
          <mxGeometry width="50" height="50" relative="1" as="geometry">
            <mxPoint x="7102" y="1880" as="sourcePoint" />
            <mxPoint x="7102.44" y="1767" as="targetPoint" />
          </mxGeometry>
        </mxCell>
        <mxCell id="NZz8lFGvhAFFfCNbKwrk-414" value="" style="endArrow=none;dashed=1;html=1;rounded=0;" parent="1" edge="1">
          <mxGeometry width="50" height="50" relative="1" as="geometry">
            <mxPoint x="7743" y="2011" as="sourcePoint" />
            <mxPoint x="7743.44" y="1925" as="targetPoint" />
          </mxGeometry>
        </mxCell>
        <mxCell id="syEFxh6rMcdIZyKsbed8-1" value="&lt;font style=&quot;font-size: 14px;&quot;&gt;Загрузка каталога&lt;/font&gt;" style="ellipse;whiteSpace=wrap;html=1;rounded=1;fontColor=none;noLabel=1;" vertex="1" parent="1">
          <mxGeometry x="3849" y="2542" width="90" height="90" as="geometry" />
        </mxCell>
        <mxCell id="syEFxh6rMcdIZyKsbed8-2" value="&lt;font style=&quot;font-size: 14px;&quot;&gt;Товары из БД&lt;/font&gt;" style="ellipse;whiteSpace=wrap;html=1;rounded=1;fontColor=none;noLabel=1;" vertex="1" parent="1">
          <mxGeometry x="4365" y="2401" width="90" height="90" as="geometry" />
        </mxCell>
        <mxCell id="syEFxh6rMcdIZyKsbed8-3" value="&lt;font style=&quot;font-size: 14px;&quot;&gt;Переход на сайт&lt;/font&gt;" style="ellipse;whiteSpace=wrap;html=1;rounded=1;fontColor=none;noLabel=1;" vertex="1" parent="1">
          <mxGeometry x="3666" y="2544" width="90" height="90" as="geometry" />
        </mxCell>
        <mxCell id="syEFxh6rMcdIZyKsbed8-4" value="&lt;font style=&quot;font-size: 14px;&quot;&gt;Получение данных из БД&lt;/font&gt;" style="ellipse;whiteSpace=wrap;html=1;rounded=1;fontColor=none;noLabel=1;" vertex="1" parent="1">
          <mxGeometry x="4204" y="2541" width="90" height="90" as="geometry" />
        </mxCell>
        <mxCell id="syEFxh6rMcdIZyKsbed8-5" value="&lt;font style=&quot;font-size: 14px;&quot;&gt;Поиск товаров&lt;/font&gt;" style="ellipse;whiteSpace=wrap;html=1;rounded=1;fontColor=none;noLabel=1;" vertex="1" parent="1">
          <mxGeometry x="4032" y="2542" width="90" height="90" as="geometry" />
        </mxCell>
        <mxCell id="syEFxh6rMcdIZyKsbed8-6" value="&lt;font style=&quot;font-size: 11px;&quot;&gt;Редактирование БД&lt;/font&gt;" style="ellipse;whiteSpace=wrap;html=1;rounded=1;fontSize=11;" vertex="1" parent="1">
          <mxGeometry x="4383" y="2675" width="90" height="90" as="geometry" />
        </mxCell>
        <mxCell id="syEFxh6rMcdIZyKsbed8-7" value="&lt;font style=&quot;font-size: 14px;&quot;&gt;Подключение к серверу&lt;/font&gt;" style="ellipse;whiteSpace=wrap;html=1;rounded=1;" vertex="1" parent="1">
          <mxGeometry x="4568" y="2674" width="90" height="90" as="geometry" />
        </mxCell>
        <mxCell id="syEFxh6rMcdIZyKsbed8-8" value="&lt;font style=&quot;font-size: 14px;&quot;&gt;&lt;br&gt;&lt;/font&gt;" style="ellipse;whiteSpace=wrap;html=1;rounded=1;" vertex="1" parent="1">
          <mxGeometry x="4753" y="2668" width="90" height="90" as="geometry" />
        </mxCell>
        <mxCell id="syEFxh6rMcdIZyKsbed8-9" value="&lt;font style=&quot;font-size: 11px;&quot;&gt;Авторизация администратора&lt;/font&gt;" style="ellipse;whiteSpace=wrap;html=1;rounded=1;fontSize=11;fontColor=none;noLabel=1;" vertex="1" parent="1">
          <mxGeometry x="3827" y="2707" width="90" height="90" as="geometry" />
        </mxCell>
        <mxCell id="syEFxh6rMcdIZyKsbed8-10" value="&lt;font style=&quot;font-size: 14px;&quot;&gt;Переход по вкладкам&lt;/font&gt;" style="ellipse;whiteSpace=wrap;html=1;rounded=1;fontColor=none;noLabel=1;" vertex="1" parent="1">
          <mxGeometry x="3972" y="2236" width="90" height="90" as="geometry" />
        </mxCell>
        <mxCell id="syEFxh6rMcdIZyKsbed8-11" value="&lt;font style=&quot;font-size: 14px;&quot;&gt;Выбор товара&lt;/font&gt;" style="ellipse;whiteSpace=wrap;html=1;rounded=1;fontColor=none;noLabel=1;" vertex="1" parent="1">
          <mxGeometry x="4128" y="2236" width="90" height="90" as="geometry" />
        </mxCell>
        <mxCell id="syEFxh6rMcdIZyKsbed8-12" value="&lt;font style=&quot;font-size: 14px;&quot;&gt;Оформление заказа&lt;/font&gt;" style="ellipse;whiteSpace=wrap;html=1;rounded=1;fontColor=none;noLabel=1;" vertex="1" parent="1">
          <mxGeometry x="4275" y="2236" width="90" height="90" as="geometry" />
        </mxCell>
        <mxCell id="syEFxh6rMcdIZyKsbed8-13" value="&lt;font style=&quot;font-size: 14px;&quot;&gt;Запись данных в БД&lt;/font&gt;" style="ellipse;whiteSpace=wrap;html=1;rounded=1;fontColor=none;noLabel=1;" vertex="1" parent="1">
          <mxGeometry x="4441" y="2236" width="90" height="90" as="geometry" />
        </mxCell>
        <mxCell id="syEFxh6rMcdIZyKsbed8-14" value="&lt;font style=&quot;font-size: 14px;&quot;&gt;Сообщение об ошибке&lt;/font&gt;" style="ellipse;whiteSpace=wrap;html=1;rounded=1;fontColor=none;noLabel=1;" vertex="1" parent="1">
          <mxGeometry x="4007" y="2708" width="90" height="90" as="geometry" />
        </mxCell>
        <mxCell id="syEFxh6rMcdIZyKsbed8-15" value="&lt;font style=&quot;font-size: 14px;&quot;&gt;Выбор товара&lt;/font&gt;" style="ellipse;whiteSpace=wrap;html=1;rounded=1;fontColor=none;noLabel=1;" vertex="1" parent="1">
          <mxGeometry x="4204" y="2401" width="90" height="90" as="geometry" />
        </mxCell>
        <mxCell id="syEFxh6rMcdIZyKsbed8-16" value="" style="endArrow=classic;html=1;rounded=0;exitX=0.5;exitY=1;exitDx=0;exitDy=0;entryX=0;entryY=0.5;entryDx=0;entryDy=0;" edge="1" parent="1" source="syEFxh6rMcdIZyKsbed8-3" target="syEFxh6rMcdIZyKsbed8-9">
          <mxGeometry width="50" height="50" relative="1" as="geometry">
            <mxPoint x="3663" y="2768" as="sourcePoint" />
            <mxPoint x="3713" y="2718" as="targetPoint" />
            <Array as="points">
              <mxPoint x="3711" y="2752" />
            </Array>
          </mxGeometry>
        </mxCell>
        <mxCell id="syEFxh6rMcdIZyKsbed8-17" value="" style="endArrow=classic;html=1;rounded=0;exitX=1;exitY=0;exitDx=0;exitDy=0;entryX=0;entryY=0;entryDx=0;entryDy=0;" edge="1" parent="1" source="syEFxh6rMcdIZyKsbed8-9" target="syEFxh6rMcdIZyKsbed8-14">
          <mxGeometry width="50" height="50" relative="1" as="geometry">
            <mxPoint x="3989" y="2878" as="sourcePoint" />
            <mxPoint x="4039" y="2828" as="targetPoint" />
          </mxGeometry>
        </mxCell>
        <mxCell id="syEFxh6rMcdIZyKsbed8-18" value="" style="endArrow=classic;html=1;rounded=0;exitX=0;exitY=1;exitDx=0;exitDy=0;entryX=1;entryY=1;entryDx=0;entryDy=0;" edge="1" parent="1" source="syEFxh6rMcdIZyKsbed8-14" target="syEFxh6rMcdIZyKsbed8-9">
          <mxGeometry width="50" height="50" relative="1" as="geometry">
            <mxPoint x="3751" y="2852" as="sourcePoint" />
            <mxPoint x="4008" y="2844" as="targetPoint" />
          </mxGeometry>
        </mxCell>
        <mxCell id="syEFxh6rMcdIZyKsbed8-19" value="" style="endArrow=classic;html=1;rounded=0;exitX=1;exitY=0.5;exitDx=0;exitDy=0;entryX=0;entryY=0.5;entryDx=0;entryDy=0;" edge="1" parent="1" source="syEFxh6rMcdIZyKsbed8-3" target="syEFxh6rMcdIZyKsbed8-1">
          <mxGeometry width="50" height="50" relative="1" as="geometry">
            <mxPoint x="3813" y="2570" as="sourcePoint" />
            <mxPoint x="3863" y="2520" as="targetPoint" />
          </mxGeometry>
        </mxCell>
        <mxCell id="syEFxh6rMcdIZyKsbed8-20" value="" style="endArrow=classic;html=1;rounded=0;exitX=1;exitY=0.5;exitDx=0;exitDy=0;entryX=0;entryY=0.5;entryDx=0;entryDy=0;" edge="1" parent="1" source="syEFxh6rMcdIZyKsbed8-1" target="syEFxh6rMcdIZyKsbed8-5">
          <mxGeometry width="50" height="50" relative="1" as="geometry">
            <mxPoint x="3991" y="2562" as="sourcePoint" />
            <mxPoint x="4041" y="2512" as="targetPoint" />
          </mxGeometry>
        </mxCell>
        <mxCell id="syEFxh6rMcdIZyKsbed8-21" value="" style="endArrow=classic;html=1;rounded=0;exitX=0.5;exitY=0;exitDx=0;exitDy=0;entryX=0;entryY=0.5;entryDx=0;entryDy=0;" edge="1" parent="1" source="syEFxh6rMcdIZyKsbed8-1" target="syEFxh6rMcdIZyKsbed8-10">
          <mxGeometry width="50" height="50" relative="1" as="geometry">
            <mxPoint x="3873" y="2446" as="sourcePoint" />
            <mxPoint x="3923" y="2396" as="targetPoint" />
            <Array as="points">
              <mxPoint x="3894" y="2281" />
            </Array>
          </mxGeometry>
        </mxCell>
        <mxCell id="syEFxh6rMcdIZyKsbed8-22" value="" style="endArrow=classic;html=1;rounded=0;exitX=1;exitY=0.5;exitDx=0;exitDy=0;entryX=0;entryY=0.5;entryDx=0;entryDy=0;" edge="1" parent="1" source="syEFxh6rMcdIZyKsbed8-10" target="syEFxh6rMcdIZyKsbed8-11">
          <mxGeometry width="50" height="50" relative="1" as="geometry">
            <mxPoint x="4088" y="2391" as="sourcePoint" />
            <mxPoint x="4138" y="2341" as="targetPoint" />
          </mxGeometry>
        </mxCell>
        <mxCell id="syEFxh6rMcdIZyKsbed8-23" value="" style="endArrow=classic;html=1;rounded=0;exitX=1;exitY=0.5;exitDx=0;exitDy=0;entryX=0;entryY=0.5;entryDx=0;entryDy=0;" edge="1" parent="1" source="syEFxh6rMcdIZyKsbed8-11" target="syEFxh6rMcdIZyKsbed8-12">
          <mxGeometry width="50" height="50" relative="1" as="geometry">
            <mxPoint x="4232" y="2373" as="sourcePoint" />
            <mxPoint x="4282" y="2323" as="targetPoint" />
          </mxGeometry>
        </mxCell>
        <mxCell id="syEFxh6rMcdIZyKsbed8-24" value="" style="endArrow=classic;html=1;rounded=0;exitX=1;exitY=0.5;exitDx=0;exitDy=0;entryX=0;entryY=0.5;entryDx=0;entryDy=0;" edge="1" parent="1" source="syEFxh6rMcdIZyKsbed8-12" target="syEFxh6rMcdIZyKsbed8-13">
          <mxGeometry width="50" height="50" relative="1" as="geometry">
            <mxPoint x="4385" y="2379" as="sourcePoint" />
            <mxPoint x="4432" y="2329" as="targetPoint" />
          </mxGeometry>
        </mxCell>
        <mxCell id="syEFxh6rMcdIZyKsbed8-25" value="" style="endArrow=classic;html=1;rounded=0;exitX=0.5;exitY=0;exitDx=0;exitDy=0;entryX=0;entryY=0.5;entryDx=0;entryDy=0;" edge="1" parent="1" source="syEFxh6rMcdIZyKsbed8-5" target="syEFxh6rMcdIZyKsbed8-15">
          <mxGeometry width="50" height="50" relative="1" as="geometry">
            <mxPoint x="4071" y="2525" as="sourcePoint" />
            <mxPoint x="4121" y="2475" as="targetPoint" />
            <Array as="points">
              <mxPoint x="4077" y="2446" />
            </Array>
          </mxGeometry>
        </mxCell>
        <mxCell id="syEFxh6rMcdIZyKsbed8-26" value="" style="endArrow=classic;html=1;rounded=0;exitX=1;exitY=0.5;exitDx=0;exitDy=0;entryX=0;entryY=0.5;entryDx=0;entryDy=0;" edge="1" parent="1" source="syEFxh6rMcdIZyKsbed8-15" target="syEFxh6rMcdIZyKsbed8-2">
          <mxGeometry width="50" height="50" relative="1" as="geometry">
            <mxPoint x="4317" y="2549" as="sourcePoint" />
            <mxPoint x="4367" y="2499" as="targetPoint" />
          </mxGeometry>
        </mxCell>
        <mxCell id="syEFxh6rMcdIZyKsbed8-27" value="" style="endArrow=classic;html=1;rounded=0;exitX=0.5;exitY=0;exitDx=0;exitDy=0;entryX=0.5;entryY=1;entryDx=0;entryDy=0;" edge="1" parent="1" source="syEFxh6rMcdIZyKsbed8-2" target="syEFxh6rMcdIZyKsbed8-12">
          <mxGeometry width="50" height="50" relative="1" as="geometry">
            <mxPoint x="4405" y="2402" as="sourcePoint" />
            <mxPoint x="4455" y="2352" as="targetPoint" />
            <Array as="points">
              <mxPoint x="4410" y="2371" />
              <mxPoint x="4320" y="2371" />
            </Array>
          </mxGeometry>
        </mxCell>
        <mxCell id="syEFxh6rMcdIZyKsbed8-28" value="" style="endArrow=classic;html=1;rounded=0;exitX=1;exitY=0.5;exitDx=0;exitDy=0;entryX=0.5;entryY=0;entryDx=0;entryDy=0;" edge="1" parent="1" source="syEFxh6rMcdIZyKsbed8-13" target="syEFxh6rMcdIZyKsbed8-7">
          <mxGeometry relative="1" as="geometry">
            <mxPoint x="4569" y="2293" as="sourcePoint" />
            <mxPoint x="4741" y="2341" as="targetPoint" />
            <Array as="points">
              <mxPoint x="4610" y="2281" />
            </Array>
          </mxGeometry>
        </mxCell>
        <mxCell id="syEFxh6rMcdIZyKsbed8-29" value="" style="endArrow=classic;html=1;rounded=0;exitX=1;exitY=0.5;exitDx=0;exitDy=0;entryX=0;entryY=0.5;entryDx=0;entryDy=0;" edge="1" parent="1" source="syEFxh6rMcdIZyKsbed8-6" target="syEFxh6rMcdIZyKsbed8-7">
          <mxGeometry width="50" height="50" relative="1" as="geometry">
            <mxPoint x="4517" y="2752" as="sourcePoint" />
            <mxPoint x="4567" y="2702" as="targetPoint" />
          </mxGeometry>
        </mxCell>
        <mxCell id="syEFxh6rMcdIZyKsbed8-30" value="" style="endArrow=classic;html=1;rounded=0;exitX=1;exitY=0;exitDx=0;exitDy=0;entryX=0;entryY=0;entryDx=0;entryDy=0;" edge="1" parent="1" source="syEFxh6rMcdIZyKsbed8-5" target="syEFxh6rMcdIZyKsbed8-4">
          <mxGeometry width="50" height="50" relative="1" as="geometry">
            <mxPoint x="4137" y="2660" as="sourcePoint" />
            <mxPoint x="4187" y="2610" as="targetPoint" />
          </mxGeometry>
        </mxCell>
        <mxCell id="syEFxh6rMcdIZyKsbed8-31" value="" style="endArrow=classic;html=1;rounded=0;exitX=0;exitY=1;exitDx=0;exitDy=0;entryX=1;entryY=1;entryDx=0;entryDy=0;" edge="1" parent="1" source="syEFxh6rMcdIZyKsbed8-4" target="syEFxh6rMcdIZyKsbed8-5">
          <mxGeometry width="50" height="50" relative="1" as="geometry">
            <mxPoint x="4150" y="2724" as="sourcePoint" />
            <mxPoint x="4161" y="2679" as="targetPoint" />
          </mxGeometry>
        </mxCell>
        <mxCell id="syEFxh6rMcdIZyKsbed8-32" value="" style="endArrow=classic;html=1;rounded=0;exitX=1;exitY=0;exitDx=0;exitDy=0;entryX=0.5;entryY=1;entryDx=0;entryDy=0;" edge="1" parent="1" source="syEFxh6rMcdIZyKsbed8-4" target="syEFxh6rMcdIZyKsbed8-2">
          <mxGeometry width="50" height="50" relative="1" as="geometry">
            <mxPoint x="4330" y="2624" as="sourcePoint" />
            <mxPoint x="4380" y="2574" as="targetPoint" />
            <Array as="points">
              <mxPoint x="4410" y="2554" />
            </Array>
          </mxGeometry>
        </mxCell>
        <mxCell id="syEFxh6rMcdIZyKsbed8-33" value="" style="endArrow=classic;html=1;rounded=0;exitX=1;exitY=1;exitDx=0;exitDy=0;entryX=0.5;entryY=0;entryDx=0;entryDy=0;" edge="1" parent="1" source="syEFxh6rMcdIZyKsbed8-4" target="syEFxh6rMcdIZyKsbed8-6">
          <mxGeometry width="50" height="50" relative="1" as="geometry">
            <mxPoint x="4311" y="2729" as="sourcePoint" />
            <mxPoint x="4361" y="2679" as="targetPoint" />
            <Array as="points">
              <mxPoint x="4428" y="2618" />
            </Array>
          </mxGeometry>
        </mxCell>
        <mxCell id="syEFxh6rMcdIZyKsbed8-34" value="" style="endArrow=classic;html=1;rounded=0;exitX=0;exitY=0;exitDx=0;exitDy=0;entryX=0.5;entryY=1;entryDx=0;entryDy=0;" edge="1" parent="1" source="syEFxh6rMcdIZyKsbed8-6" target="syEFxh6rMcdIZyKsbed8-4">
          <mxGeometry width="50" height="50" relative="1" as="geometry">
            <mxPoint x="4226" y="2792" as="sourcePoint" />
            <mxPoint x="4276" y="2742" as="targetPoint" />
            <Array as="points">
              <mxPoint x="4249" y="2688" />
            </Array>
          </mxGeometry>
        </mxCell>
        <mxCell id="syEFxh6rMcdIZyKsbed8-35" value="" style="endArrow=classic;html=1;rounded=0;exitX=0.427;exitY=0.99;exitDx=0;exitDy=0;exitPerimeter=0;entryX=0.5;entryY=1;entryDx=0;entryDy=0;" edge="1" parent="1" source="syEFxh6rMcdIZyKsbed8-9" target="syEFxh6rMcdIZyKsbed8-6">
          <mxGeometry width="50" height="50" relative="1" as="geometry">
            <mxPoint x="3948" y="2902" as="sourcePoint" />
            <mxPoint x="3998" y="2852" as="targetPoint" />
            <Array as="points">
              <mxPoint x="3865" y="2859" />
              <mxPoint x="4428" y="2859" />
            </Array>
          </mxGeometry>
        </mxCell>
        <mxCell id="syEFxh6rMcdIZyKsbed8-36" value="" style="endArrow=classic;html=1;rounded=0;exitX=0.996;exitY=0.431;exitDx=0;exitDy=0;exitPerimeter=0;entryX=0;entryY=0.5;entryDx=0;entryDy=0;" edge="1" parent="1" source="syEFxh6rMcdIZyKsbed8-7" target="syEFxh6rMcdIZyKsbed8-8">
          <mxGeometry width="50" height="50" relative="1" as="geometry">
            <mxPoint x="4649" y="2828" as="sourcePoint" />
            <mxPoint x="4699" y="2778" as="targetPoint" />
          </mxGeometry>
        </mxCell>
        <mxCell id="syEFxh6rMcdIZyKsbed8-37" value="" style="endArrow=classic;html=1;rounded=0;exitX=0.5;exitY=0;exitDx=0;exitDy=0;entryX=0;entryY=0;entryDx=0;entryDy=0;" edge="1" parent="1" source="syEFxh6rMcdIZyKsbed8-8" target="syEFxh6rMcdIZyKsbed8-1">
          <mxGeometry width="50" height="50" relative="1" as="geometry">
            <mxPoint x="4717" y="2870" as="sourcePoint" />
            <mxPoint x="4767" y="2820" as="targetPoint" />
            <Array as="points">
              <mxPoint x="4794" y="2166" />
              <mxPoint x="3862" y="2169" />
              <mxPoint x="3862" y="2493" />
            </Array>
          </mxGeometry>
        </mxCell>
        <mxCell id="syEFxh6rMcdIZyKsbed8-38" value="" style="endArrow=none;html=1;rounded=0;" edge="1" parent="1">
          <mxGeometry width="50" height="50" relative="1" as="geometry">
            <mxPoint x="3802" y="2618" as="sourcePoint" />
            <mxPoint x="3802" y="2554" as="targetPoint" />
          </mxGeometry>
        </mxCell>
        <mxCell id="syEFxh6rMcdIZyKsbed8-39" value="" style="endArrow=none;html=1;rounded=0;" edge="1" parent="1">
          <mxGeometry width="50" height="50" relative="1" as="geometry">
            <mxPoint x="4333" y="2196" as="sourcePoint" />
            <mxPoint x="4333" y="2132" as="targetPoint" />
          </mxGeometry>
        </mxCell>
        <mxCell id="syEFxh6rMcdIZyKsbed8-40" value="" style="endArrow=none;html=1;rounded=0;" edge="1" parent="1">
          <mxGeometry width="50" height="50" relative="1" as="geometry">
            <mxPoint x="3931" y="2311" as="sourcePoint" />
            <mxPoint x="3931" y="2247" as="targetPoint" />
          </mxGeometry>
        </mxCell>
        <mxCell id="syEFxh6rMcdIZyKsbed8-41" value="" style="endArrow=none;html=1;rounded=0;" edge="1" parent="1">
          <mxGeometry width="50" height="50" relative="1" as="geometry">
            <mxPoint x="4095.75" y="2306" as="sourcePoint" />
            <mxPoint x="4095.75" y="2242" as="targetPoint" />
          </mxGeometry>
        </mxCell>
        <mxCell id="syEFxh6rMcdIZyKsbed8-42" value="" style="endArrow=none;html=1;rounded=0;" edge="1" parent="1">
          <mxGeometry width="50" height="50" relative="1" as="geometry">
            <mxPoint x="4246" y="2308" as="sourcePoint" />
            <mxPoint x="4246" y="2244" as="targetPoint" />
          </mxGeometry>
        </mxCell>
        <mxCell id="syEFxh6rMcdIZyKsbed8-43" value="" style="endArrow=none;html=1;rounded=0;" edge="1" parent="1">
          <mxGeometry width="50" height="50" relative="1" as="geometry">
            <mxPoint x="4397" y="2313" as="sourcePoint" />
            <mxPoint x="4397" y="2249" as="targetPoint" />
          </mxGeometry>
        </mxCell>
        <mxCell id="syEFxh6rMcdIZyKsbed8-44" value="" style="endArrow=none;html=1;rounded=0;" edge="1" parent="1">
          <mxGeometry width="50" height="50" relative="1" as="geometry">
            <mxPoint x="4568" y="2313" as="sourcePoint" />
            <mxPoint x="4568" y="2249" as="targetPoint" />
          </mxGeometry>
        </mxCell>
        <mxCell id="syEFxh6rMcdIZyKsbed8-45" value="" style="endArrow=none;html=1;rounded=0;" edge="1" parent="1">
          <mxGeometry width="50" height="50" relative="1" as="geometry">
            <mxPoint x="4136" y="2475" as="sourcePoint" />
            <mxPoint x="4136" y="2411" as="targetPoint" />
          </mxGeometry>
        </mxCell>
        <mxCell id="syEFxh6rMcdIZyKsbed8-46" value="" style="endArrow=none;html=1;rounded=0;" edge="1" parent="1">
          <mxGeometry width="50" height="50" relative="1" as="geometry">
            <mxPoint x="4329" y="2473" as="sourcePoint" />
            <mxPoint x="4329" y="2409" as="targetPoint" />
          </mxGeometry>
        </mxCell>
        <mxCell id="syEFxh6rMcdIZyKsbed8-47" value="" style="endArrow=none;html=1;rounded=0;" edge="1" parent="1">
          <mxGeometry width="50" height="50" relative="1" as="geometry">
            <mxPoint x="4356" y="2581" as="sourcePoint" />
            <mxPoint x="4356" y="2517" as="targetPoint" />
          </mxGeometry>
        </mxCell>
        <mxCell id="syEFxh6rMcdIZyKsbed8-48" value="" style="endArrow=none;html=1;rounded=0;" edge="1" parent="1">
          <mxGeometry width="50" height="50" relative="1" as="geometry">
            <mxPoint x="4162" y="2577" as="sourcePoint" />
            <mxPoint x="4162" y="2513" as="targetPoint" />
          </mxGeometry>
        </mxCell>
        <mxCell id="syEFxh6rMcdIZyKsbed8-49" value="" style="endArrow=none;html=1;rounded=0;" edge="1" parent="1">
          <mxGeometry width="50" height="50" relative="1" as="geometry">
            <mxPoint x="4162" y="2651" as="sourcePoint" />
            <mxPoint x="4162" y="2587" as="targetPoint" />
          </mxGeometry>
        </mxCell>
        <mxCell id="syEFxh6rMcdIZyKsbed8-50" value="" style="endArrow=none;html=1;rounded=0;" edge="1" parent="1">
          <mxGeometry width="50" height="50" relative="1" as="geometry">
            <mxPoint x="3985" y="2618" as="sourcePoint" />
            <mxPoint x="3985" y="2554" as="targetPoint" />
          </mxGeometry>
        </mxCell>
        <mxCell id="syEFxh6rMcdIZyKsbed8-51" value="" style="endArrow=none;html=1;rounded=0;" edge="1" parent="1">
          <mxGeometry width="50" height="50" relative="1" as="geometry">
            <mxPoint x="3961" y="2740" as="sourcePoint" />
            <mxPoint x="3961" y="2676" as="targetPoint" />
          </mxGeometry>
        </mxCell>
        <mxCell id="syEFxh6rMcdIZyKsbed8-52" value="" style="endArrow=none;html=1;rounded=0;" edge="1" parent="1">
          <mxGeometry width="50" height="50" relative="1" as="geometry">
            <mxPoint x="3961" y="2816" as="sourcePoint" />
            <mxPoint x="3961" y="2752" as="targetPoint" />
          </mxGeometry>
        </mxCell>
        <mxCell id="syEFxh6rMcdIZyKsbed8-53" value="" style="endArrow=none;html=1;rounded=0;" edge="1" parent="1">
          <mxGeometry width="50" height="50" relative="1" as="geometry">
            <mxPoint x="3769" y="2784" as="sourcePoint" />
            <mxPoint x="3769" y="2720" as="targetPoint" />
          </mxGeometry>
        </mxCell>
        <mxCell id="syEFxh6rMcdIZyKsbed8-54" value="" style="endArrow=none;html=1;rounded=0;" edge="1" parent="1">
          <mxGeometry width="50" height="50" relative="1" as="geometry">
            <mxPoint x="4516" y="2750.5" as="sourcePoint" />
            <mxPoint x="4516" y="2686.5" as="targetPoint" />
          </mxGeometry>
        </mxCell>
        <mxCell id="syEFxh6rMcdIZyKsbed8-55" value="" style="endArrow=none;html=1;rounded=0;" edge="1" parent="1">
          <mxGeometry width="50" height="50" relative="1" as="geometry">
            <mxPoint x="4323" y="2718" as="sourcePoint" />
            <mxPoint x="4323" y="2654" as="targetPoint" />
          </mxGeometry>
        </mxCell>
        <mxCell id="syEFxh6rMcdIZyKsbed8-56" value="" style="endArrow=none;html=1;rounded=0;" edge="1" parent="1">
          <mxGeometry width="50" height="50" relative="1" as="geometry">
            <mxPoint x="4402" y="2651" as="sourcePoint" />
            <mxPoint x="4402" y="2587" as="targetPoint" />
          </mxGeometry>
        </mxCell>
        <mxCell id="syEFxh6rMcdIZyKsbed8-57" value="" style="endArrow=none;html=1;rounded=0;" edge="1" parent="1">
          <mxGeometry width="50" height="50" relative="1" as="geometry">
            <mxPoint x="4701" y="2745" as="sourcePoint" />
            <mxPoint x="4701" y="2681" as="targetPoint" />
          </mxGeometry>
        </mxCell>
        <mxCell id="syEFxh6rMcdIZyKsbed8-58" value="" style="endArrow=none;html=1;rounded=0;" edge="1" parent="1">
          <mxGeometry width="50" height="50" relative="1" as="geometry">
            <mxPoint x="4157" y="2894" as="sourcePoint" />
            <mxPoint x="4157" y="2830" as="targetPoint" />
          </mxGeometry>
        </mxCell>
        <mxCell id="syEFxh6rMcdIZyKsbed8-80" value="&lt;font style=&quot;font-size: 14px;&quot;&gt;Подключение к серверу&lt;/font&gt;" style="ellipse;whiteSpace=wrap;html=1;rounded=1;fontColor=none;noLabel=1;" vertex="1" parent="1">
          <mxGeometry x="4569" y="2674" width="90" height="90" as="geometry" />
        </mxCell>
        <mxCell id="syEFxh6rMcdIZyKsbed8-81" value="&lt;font style=&quot;font-size: 11px;&quot;&gt;Редактирование БД&lt;/font&gt;" style="ellipse;whiteSpace=wrap;html=1;rounded=1;fontSize=11;fontColor=none;noLabel=1;" vertex="1" parent="1">
          <mxGeometry x="4384" y="2675" width="90" height="90" as="geometry" />
        </mxCell>
        <mxCell id="syEFxh6rMcdIZyKsbed8-82" style="edgeStyle=orthogonalEdgeStyle;rounded=0;orthogonalLoop=1;jettySize=auto;html=1;exitX=0;exitY=0.5;exitDx=0;exitDy=0;" edge="1" parent="1" source="syEFxh6rMcdIZyKsbed8-12" target="syEFxh6rMcdIZyKsbed8-12">
          <mxGeometry relative="1" as="geometry" />
        </mxCell>
        <mxCell id="syEFxh6rMcdIZyKsbed8-95" value="" style="curved=1;endArrow=classic;html=1;rounded=0;" edge="1" parent="1">
          <mxGeometry width="50" height="50" relative="1" as="geometry">
            <mxPoint x="4289" y="3094" as="sourcePoint" />
            <mxPoint x="4339" y="3044" as="targetPoint" />
            <Array as="points">
              <mxPoint x="4339" y="3094" />
              <mxPoint x="4289" y="3044" />
            </Array>
          </mxGeometry>
        </mxCell>
      </root>
    </mxGraphModel>
  </diagram>
</mxfile>
